<?xml version="1.0" standalone="no"?>
<!DOCTYPE svg PUBLIC "-//W3C//DTD SVG 1.1//EN" "http://www.w3.org/Graphics/SVG/1.1/DTD/svg11.dtd" >
<svg xmlns="http://www.w3.org/2000/svg" xmlns:xlink="http://www.w3.org/1999/xlink" version="1.1">
<metadata>
Created by FontForge 20170731 at Sat Jul 15 13:41:59 2017
 By Aleksey,,,
Copyright (c) 2015 by Kostas Bartsokas. All rights reserved.
</metadata>
<defs>
<font id="AvertaStdPE-Regular" horiz-adv-x="0" >
  <font-face 
    font-family="Averta Std PE"
    font-weight="400"
    font-stretch="normal"
    units-per-em="1000"
    panose-1="0 0 5 0 0 0 0 0 0 0"
    ascent="800"
    descent="-200"
    x-height="487"
    cap-height="710"
    bbox="-680 -257 1396 1041"
    underline-thickness="38"
    underline-position="-235"
    unicode-range="U+000D-2E18"
  />
<missing-glyph horiz-adv-x="446" 
 />
    <glyph glyph-name=".notdef" horiz-adv-x="446" 
 />
    <glyph glyph-name=".null" 
 />
    <glyph glyph-name="nonmarkingreturn" horiz-adv-x="333" 
 />
    <glyph glyph-name="CR" unicode="&#xd;" 
 />
    <glyph glyph-name="space" unicode=" " horiz-adv-x="272" 
 />
    <glyph glyph-name="exclam" unicode="!" horiz-adv-x="242" 
d="M91 209l-15 527h93l-15 -527h-63zM121 -7q-25 0 -42.5 17t-17.5 42t17.5 42t42.5 17t42 -17t17 -42t-17 -42t-42 -17z" />
    <glyph glyph-name="quotedbl" unicode="&#x22;" horiz-adv-x="338" 
d="M38 469l33 241h87l-54 -241h-66zM180 469l32 241h88l-54 -241h-66z" />
    <glyph glyph-name="numbersign" unicode="#" horiz-adv-x="630" 
d="M127 -35l31 204h-118v63h127l25 161h-131v62h141l31 201h58l-31 -201h163l31 201h58l-31 -201h123l-1 -62h-132l-24 -161h134v-63h-144l-31 -204h-58l32 204h-164l-31 -204h-58zM225 232h164l24 161h-163z" />
    <glyph glyph-name="dollar" unicode="$" horiz-adv-x="562" 
d="M518 181q0 -77 -52.5 -127t-144.5 -56v-121h-65v122q-118 14 -203 98l53 62q85 -83 192 -83q57 0 92.5 26.5t35.5 72.5q0 50 -34.5 75t-114.5 51q-41 13 -64.5 21.5t-55.5 25t-48.5 34t-29 45.5t-12.5 62q0 74 50 123t139 54v125h65v-129q102 -16 174 -74l-50 -61
q-81 59 -168 59q-53 0 -86 -24.5t-33 -67.5t34 -65t110 -47q46 -15 71 -24.5t57.5 -26.5t48 -35.5t27.5 -48t12 -66.5z" />
    <glyph glyph-name="percent" unicode="%" horiz-adv-x="994" 
d="M375 -17l-66 28l311 711l66 -28zM242 323q-84 0 -141.5 55t-57.5 143q0 83 55.5 139.5t143.5 56.5q83 0 141 -55t58 -141q0 -83 -55.5 -140.5t-143.5 -57.5zM242 387q58 0 94 38t36 95q0 58 -37 95t-93 37q-57 0 -92.5 -38t-35.5 -94q0 -59 37 -96t91 -37zM748 -6
q-84 0 -141.5 55t-57.5 142q0 83 55.5 139.5t143.5 56.5q84 0 142 -54.5t58 -141.5q0 -83 -56 -140t-144 -57zM749 57q58 0 94 38t36 95q0 58 -37.5 95t-92.5 37q-57 0 -93.5 -38t-36.5 -94q0 -58 37.5 -95.5t92.5 -37.5z" />
    <glyph glyph-name="ampersand" unicode="&#x26;" horiz-adv-x="652" 
d="M274 -6q-96 0 -161 58t-65 151q0 65 37 121t97 88v2l-84 102q7 88 65 144.5t145 56.5q78 0 130 -38.5t77 -95.5l-70 -27q-40 87 -131 87q-59 0 -92 -32t-39 -82l288 -342h3q36 65 36 142l79 1q0 -121 -61 -210v-2l98 -118h-97l-57 67h-2q-75 -73 -196 -73zM282 71
q85 0 141 54v2l-191 227q-45 -22 -72 -62t-27 -85q0 -59 41 -97.5t108 -38.5z" />
    <glyph glyph-name="quotesingle" unicode="'" horiz-adv-x="196" 
d="M38 469l33 241h87l-54 -241h-66z" />
    <glyph glyph-name="parenleft" unicode="(" horiz-adv-x="279" 
d="M171 -148q-112 199 -112 444q0 258 116 445l62 -29q-102 -186 -102 -416q0 -215 99 -416z" />
    <glyph glyph-name="parenright" unicode=")" horiz-adv-x="279" 
d="M108 -148l-63 28q99 201 99 416q0 230 -102 416l62 29q116 -187 116 -445q0 -245 -112 -444z" />
    <glyph glyph-name="asterisk" unicode="*" horiz-adv-x="406" 
d="M176 393l4 119l-100 -63l-28 48l105 54l-106 56l29 47l100 -62l-4 118h54l-5 -118l102 62l26 -47l-105 -56l105 -54l-26 -48l-100 63l3 -119h-54z" />
    <glyph glyph-name="plus" unicode="+" horiz-adv-x="580" 
d="M252 43v196h-197v75h197v197h75v-197h197v-75h-197v-196h-75z" />
    <glyph glyph-name="comma" unicode="," horiz-adv-x="210" 
d="M30 -131l33 241h88l-60 -241h-61z" />
    <glyph glyph-name="hyphen" unicode="-" horiz-adv-x="406" 
d="M55 268v80h296v-80h-296z" />
    <glyph glyph-name="period" unicode="." horiz-adv-x="236" 
d="M118 -7q-25 0 -42.5 17t-17.5 42t17.5 42t42.5 17t42 -17t17 -42t-17 -42t-42 -17z" />
    <glyph glyph-name="slash" unicode="/" horiz-adv-x="410" 
d="M39 -113l-65 30l385 853l64 -31z" />
    <glyph glyph-name="zero" unicode="0" horiz-adv-x="624" 
d="M312 -6q-115 0 -186.5 92.5t-71.5 256.5q0 156 69 253t189 97q115 0 186.5 -92.5t71.5 -257.5q0 -156 -68.5 -252.5t-189.5 -96.5zM312 72q81 0 126.5 73t45.5 198q0 129 -47 200.5t-125 71.5q-81 0 -126.5 -73.5t-45.5 -198.5q0 -128 47.5 -199.5t124.5 -71.5z" />
    <glyph glyph-name="one" unicode="1" horiz-adv-x="372" 
d="M198 0v586l-137 -104l-41 63l192 142h70v-687h-84z" />
    <glyph glyph-name="two" unicode="2" horiz-adv-x="516" 
d="M38 0l-1 58l235 240q52 53 78 94.5t26 88.5q0 57 -36 94.5t-93 37.5q-98 0 -147 -94l-62 43q65 130 214 130q87 0 148.5 -55t61.5 -147q0 -58 -27.5 -112t-90.5 -118l-179 -180l1 -3h304v-77h-432z" />
    <glyph glyph-name="three" unicode="3" horiz-adv-x="533" 
d="M261 -6q-85 0 -147 37.5t-88 98.5l73 33q40 -91 156 -91q61 0 101.5 34.5t40.5 89.5q0 53 -39 88.5t-112 35.5h-57v72h67q62 0 93 32t31 78q0 50 -36.5 81.5t-91.5 31.5q-88 0 -135 -69l-68 38q28 50 81 79.5t124 29.5q91 0 151 -48.5t60 -131.5q0 -49 -26.5 -91
t-74.5 -63v-3q56 -21 87.5 -66t31.5 -106q0 -85 -63 -137.5t-159 -52.5z" />
    <glyph glyph-name="four" unicode="4" horiz-adv-x="563" 
d="M348 0v121h-319v60l332 506h71v-490h100v-76h-100v-121h-84zM127 195h224v349z" />
    <glyph glyph-name="five" unicode="5" horiz-adv-x="552" 
d="M283 436q95 0 158.5 -59.5t63.5 -159.5q0 -99 -67 -161t-172 -62q-72 0 -132.5 30t-96.5 84l63 47q24 -38 65.5 -60.5t93.5 -22.5q71 0 115.5 41t44.5 105q0 67 -46.5 106t-112.5 39q-72 0 -121 -38l-49 15l20 347h363v-78h-284l-11 -193q55 20 105 20z" />
    <glyph glyph-name="six" unicode="6" horiz-adv-x="580" 
d="M318 433q95 0 154.5 -58.5t59.5 -159.5q0 -95 -67.5 -158t-170.5 -63q-104 0 -172.5 74.5t-68.5 194.5q0 175 102.5 297t246.5 148l25 -71q-101 -26 -175.5 -92t-102.5 -173q69 61 169 61zM299 72q66 0 107.5 42t41.5 102q0 63 -41 101.5t-108 38.5q-53 0 -95.5 -27.5
t-68.5 -68.5v-6q0 -80 47.5 -131t116.5 -51z" />
    <glyph glyph-name="seven" unicode="7" horiz-adv-x="490" 
d="M25 687h426v-59l-272 -640l-84 17l262 605h-332v77z" />
    <glyph glyph-name="eight" unicode="8" horiz-adv-x="572" 
d="M285 -6q-106 0 -173.5 55t-67.5 140q0 67 36.5 115t94.5 67v2q-39 15 -68 54t-29 91q0 81 58.5 128t148.5 47q93 0 150.5 -48t57.5 -127q0 -52 -29.5 -92t-68.5 -53v-2q59 -18 95.5 -66t36.5 -116q0 -87 -69 -141t-173 -54zM285 408q57 0 92 28t35 75t-36 77t-91 30
q-56 0 -91 -31t-35 -76q0 -47 35 -75t91 -28zM285 70q69 0 112.5 37.5t43.5 90.5q0 59 -43 95.5t-113 36.5t-112.5 -36.5t-42.5 -95.5q0 -55 44.5 -91.5t110.5 -36.5z" />
    <glyph glyph-name="nine" unicode="9" horiz-adv-x="578" 
d="M286 693q103 0 172 -75t68 -195q0 -177 -107 -298.5t-251 -148.5l-25 71q103 26 180.5 93t106.5 175q-71 -63 -174 -63q-92 0 -151.5 59t-59.5 157q0 97 68.5 161t172.5 64zM275 330q51 0 96.5 25.5t72.5 68.5v6q0 83 -44.5 134t-112.5 51q-70 0 -113.5 -42.5
t-43.5 -104.5t39.5 -100t105.5 -38z" />
    <glyph glyph-name="colon" unicode=":" horiz-adv-x="233" 
d="M114 375q-25 0 -42.5 17t-17.5 42t17.5 42t42.5 17t42 -17t17 -42t-17 -42t-42 -17zM114 -7q-25 0 -42.5 17t-17.5 42t17.5 42t42.5 17t42 -17t17 -42t-17 -42t-42 -17z" />
    <glyph glyph-name="semicolon" unicode=";" horiz-adv-x="222" 
d="M114 375q-25 0 -42.5 17t-17.5 42t17.5 42t42.5 17t42 -17t17 -42t-17 -42t-42 -17zM37 -131l33 241h88l-60 -241h-61z" />
    <glyph glyph-name="less" unicode="&#x3c;" horiz-adv-x="571" 
d="M507 43l-449 204v60l449 207v-82l-338 -154l338 -154v-81z" />
    <glyph glyph-name="equal" unicode="=" horiz-adv-x="579" 
d="M62 352v75h469v-75h-469zM62 126v75h469v-75h-469z" />
    <glyph glyph-name="greater" unicode="&#x3e;" horiz-adv-x="570" 
d="M67 43v81l338 154l-338 154v82l449 -207v-60z" />
    <glyph glyph-name="question" unicode="?" horiz-adv-x="447" 
d="M157 207v54q0 13 2 25t8.5 24.5t10 20.5t15.5 22t16 18.5t20 21t18 19.5q22 25 35 42t24.5 44t11.5 54q0 51 -32 80.5t-80 29.5q-36 0 -70 -18.5t-55 -50.5l-61 57q71 93 192 93q84 0 140.5 -51t56.5 -136q0 -54 -24 -96t-66 -84q-6 -6 -25 -24t-25.5 -25.5t-17.5 -21.5
t-15.5 -25t-4.5 -23l-2 -50h-72zM195 -7q-25 0 -42.5 17t-17.5 42t17.5 42t42.5 17t42 -17t17 -42t-17 -42t-42 -17z" />
    <glyph glyph-name="at" unicode="@" horiz-adv-x="899" 
d="M417 -140q-161 0 -265.5 104t-104.5 271q0 55 14 111t47 112.5t81.5 99.5t124.5 70.5t169 27.5q165 0 267 -100.5t102 -259.5q0 -38 -10.5 -79t-32.5 -82t-64 -67t-98 -26q-66 0 -83 53q-11 16 -14 42h-3q-22 -40 -61 -62t-87 -22q-75 0 -123.5 52.5t-48.5 137.5
q0 36 11.5 73.5t34 73.5t63 58.5t91.5 22.5q94 0 135 -86h2l8 80h83l-27 -270q-1 -12 -1 -29q0 -34 10.5 -46t32.5 -12q54 0 85.5 62t31.5 125q0 131 -85 216t-220 85q-92 0 -165 -32.5t-116.5 -85.5t-66 -115.5t-22.5 -128.5q0 -130 84 -221t221 -91q115 0 207 52l29 -47
q-94 -67 -236 -67zM422 127q63 0 100 46.5t37 102.5q0 52 -30.5 86t-78.5 34q-64 0 -102 -43t-38 -102q0 -54 31.5 -89t80.5 -35z" />
    <glyph glyph-name="A" unicode="A" horiz-adv-x="676" 
d="M25 0l269 710h87l270 -710h-91l-64 173h-317l-63 -173h-91zM207 249h262l-131 356h-2z" />
    <glyph glyph-name="B" unicode="B" horiz-adv-x="635" 
d="M88 0v710h232q108 0 168.5 -42.5t60.5 -130.5q0 -54 -29 -98.5t-84 -63.5v-2q66 -13 107 -59.5t41 -120.5q0 -88 -60 -140.5t-177 -52.5h-259zM175 404h146q61 0 100 28t39 88q0 112 -149 112l-136 -1v-227zM175 79h164q72 0 113 30.5t41 90.5q0 61 -43 94.5t-124 33.5
h-151v-249z" />
    <glyph glyph-name="C" unicode="C" horiz-adv-x="724" 
d="M411 -5q-151 0 -252.5 95t-101.5 263q0 157 94 260.5t259 103.5q166 0 277 -136l-65 -54q-86 107 -212 107q-119 0 -190.5 -78.5t-71.5 -202.5q0 -125 74 -200.5t189 -75.5q127 0 212 107l65 -55q-108 -134 -277 -134z" />
    <glyph glyph-name="D" unicode="D" horiz-adv-x="726" 
d="M88 0v710h212q167 0 268 -98.5t101 -257.5t-99 -256.5t-267 -97.5h-215zM175 79h123q128 0 204.5 76.5t76.5 198.5t-77 199.5t-201 77.5h-126v-552z" />
    <glyph glyph-name="E" unicode="E" horiz-adv-x="593" 
d="M88 0v710h435v-79h-348v-238h285v-79h-285v-235h369v-79h-456z" />
    <glyph glyph-name="F" unicode="F" horiz-adv-x="579" 
d="M88 0v710h453v-79h-366v-250h310v-79h-310v-302h-87z" />
    <glyph glyph-name="G" unicode="G" horiz-adv-x="759" 
d="M412 -5q-155 0 -255 98t-100 261q0 160 96.5 261.5t255.5 101.5q163 0 270 -111l-61 -54q-85 82 -210 82q-113 0 -186.5 -77t-73.5 -203q0 -122 73 -200.5t191 -78.5q111 0 189 59v153h-206v79h293v-281q-106 -90 -276 -90z" />
    <glyph glyph-name="H" unicode="H" horiz-adv-x="721" 
d="M88 0v710h87v-333h371v333h87v-710h-87v298h-371v-298h-87z" />
    <glyph glyph-name="I" unicode="I" horiz-adv-x="273" 
d="M93 0v710h87v-710h-87z" />
    <glyph glyph-name="J" unicode="J" horiz-adv-x="493" 
d="M217 -5q-50 0 -101.5 23.5t-86.5 67.5l50 64q63 -72 134 -72q116 0 116 155v477h88v-479q0 -236 -200 -236z" />
    <glyph glyph-name="K" unicode="K" horiz-adv-x="646" 
d="M88 0v710h87v-389h2l322 389h112l-275 -324l282 -386h-109l-231 318l-103 -121v-197h-87z" />
    <glyph glyph-name="L" unicode="L" horiz-adv-x="557" 
d="M88 0v710h87v-631h351v-79h-438z" />
    <glyph glyph-name="M" unicode="M" horiz-adv-x="875" 
d="M88 0v710h88l261 -459h2l261 459h87v-710h-87v541h-2l-231 -398h-59l-231 398h-1v-541h-88z" />
    <glyph glyph-name="N" unicode="N" horiz-adv-x="751" 
d="M88 0v710h86l401 -565h1v565h87v-710h-89l-397 559h-2v-559h-87z" />
    <glyph glyph-name="O" unicode="O" horiz-adv-x="825" 
d="M414 -6q-156 0 -256.5 101.5t-100.5 259.5t101 260t256 102q152 0 253 -101t101 -261t-101 -260.5t-253 -100.5zM414 76q112 0 187.5 78.5t75.5 200.5t-75.5 201t-187.5 79q-115 0 -190.5 -79.5t-75.5 -200.5q0 -120 75.5 -199.5t190.5 -79.5z" />
    <glyph glyph-name="P" unicode="P" horiz-adv-x="613" 
d="M88 0v710h248q119 0 177 -60t58 -160q0 -109 -67.5 -164t-182.5 -55h-146v-271h-87zM175 350h138q85 0 126.5 38.5t41.5 103.5q0 67 -41 103t-113 36h-152v-281z" />
    <glyph glyph-name="Q" unicode="Q" horiz-adv-x="842" 
d="M785 47l-50 -62l-95 86q-96 -77 -227 -77q-157 0 -256.5 102.5t-99.5 258.5t99.5 259t256.5 103q152 0 253.5 -101t101.5 -261q0 -133 -73 -228zM148 355q0 -120 75.5 -199.5t189.5 -79.5q93 0 162 55l-82 75l49 58l86 -76q49 71 49 167q0 121 -74.5 200.5t-189.5 79.5
q-114 0 -189.5 -80t-75.5 -200z" />
    <glyph glyph-name="R" unicode="R" horiz-adv-x="642" 
d="M88 0v710h252q118 0 176.5 -60t58.5 -160q0 -175 -177 -211l196 -279h-104l-188 271h-127v-271h-87zM175 350h141q85 0 127 38.5t42 103.5q0 67 -41.5 103t-115.5 36h-153v-281z" />
    <glyph glyph-name="S" unicode="S" horiz-adv-x="580" 
d="M293 -6q-148 0 -251 110l56 67q37 -46 89.5 -71t106.5 -25q66 0 106 29t40 80q0 60 -59 94q-25 14 -100 42q-39 14 -63.5 24.5t-56 29.5t-49 39t-30.5 50t-13 66q0 79 62.5 133.5t154.5 54.5q121 0 224 -83l-53 -69q-87 72 -171 72q-53 0 -89.5 -27.5t-37.5 -76.5
q0 -25 9.5 -43t34.5 -33.5t45.5 -25t62.5 -25.5q108 -43 141 -64q78 -53 79 -148q0 -93 -69.5 -146.5t-168.5 -53.5z" />
    <glyph glyph-name="T" unicode="T" horiz-adv-x="573" 
d="M242 0v631h-212v79h514v-79h-215v-631h-87z" />
    <glyph glyph-name="U" unicode="U" horiz-adv-x="706" 
d="M353 -6q-124 0 -199.5 78.5t-75.5 216.5v421h87v-415q0 -99 51 -159t137 -60q84 0 136.5 59t52.5 160v415h87v-421q0 -136 -74.5 -215.5t-201.5 -79.5z" />
    <glyph glyph-name="V" unicode="V" horiz-adv-x="670" 
d="M298 0l-268 710h94l213 -584h1l213 584h93l-268 -710h-78z" />
    <glyph glyph-name="W" unicode="W" horiz-adv-x="1020" 
d="M259 0l-226 710h93l175 -569h2l160 569h95l159 -568h2l176 568h92l-227 -710h-84l-164 583h-2l-167 -583h-84z" />
    <glyph glyph-name="X" unicode="X" horiz-adv-x="663" 
d="M33 0l241 355l-238 355h101l195 -287h1l194 287h101l-239 -355l242 -355h-103l-196 286h-2l-196 -286h-101z" />
    <glyph glyph-name="Y" unicode="Y" horiz-adv-x="601" 
d="M256 0v317l-241 393h100l184 -305h2l183 305h102l-243 -393v-317h-87z" />
    <glyph glyph-name="Z" unicode="Z" horiz-adv-x="613" 
d="M57 0v69l378 561l-1 1h-358v79h473v-69l-381 -560l1 -2h384v-79h-496z" />
    <glyph glyph-name="bracketleft" unicode="[" horiz-adv-x="307" 
d="M67 -145v874h195v-63h-123v-747h123v-64h-195z" />
    <glyph glyph-name="backslash" unicode="\" horiz-adv-x="416" 
d="M375 -113l-384 852l64 31l385 -853z" />
    <glyph glyph-name="bracketright" unicode="]" horiz-adv-x="307" 
d="M240 -145h-195v64h123v747h-123v63h195v-874z" />
    <glyph glyph-name="asciicircum" unicode="^" horiz-adv-x="464" 
d="M59 500l141 210h64l141 -210h-74l-100 153l-100 -153h-72z" />
    <glyph glyph-name="underscore" unicode="_" horiz-adv-x="523" 
d="M-4 -85v58h531v-58h-531z" />
    <glyph glyph-name="grave" unicode="`" horiz-adv-x="505" 
d="M256 542l-121 138l92 -1l111 -137h-82z" />
    <glyph glyph-name="a" unicode="a" horiz-adv-x="604" 
d="M281 -6q-102 0 -169.5 68.5t-67.5 177.5t67 181t170 72q54 0 99 -24.5t71 -68.5l2 1v86h81v-487h-78v88h-1q-57 -94 -174 -94zM293 68q69 0 116 48t47 124t-46 127.5t-117 51.5t-119 -50t-48 -129q0 -74 46.5 -123t120.5 -49z" />
    <glyph glyph-name="b" unicode="b" horiz-adv-x="614" 
d="M331 -6q-118 0 -176 94h-2v-88h-77v736h81v-334h1q58 91 173 91q103 0 170 -72t67 -181t-67.5 -177.5t-169.5 -68.5zM320 68q73 0 119.5 49t46.5 123q0 79 -48 129t-119 50q-73 0 -119.5 -51.5t-46.5 -127.5t48 -124t119 -48z" />
    <glyph glyph-name="c" unicode="c" horiz-adv-x="521" 
d="M288 -6q-107 0 -175 69t-68 180q0 110 68.5 180t177.5 70q56 0 108.5 -22.5t87.5 -64.5l-55 -49q-53 62 -137 62q-75 0 -121 -49t-46 -127t46 -126.5t120 -48.5q89 0 139 62l56 -51q-71 -85 -201 -85z" />
    <glyph glyph-name="d" unicode="d" horiz-adv-x="613" 
d="M283 -6q-103 0 -171 68.5t-68 177.5q0 108 68 180.5t170 72.5q116 0 174 -93h1v336h81v-736h-78v90h-1q-57 -96 -176 -96zM294 68q70 0 118 48t48 124t-46.5 127.5t-118.5 51.5q-71 0 -119.5 -50t-48.5 -129q0 -74 46.5 -123t120.5 -49z" />
    <glyph glyph-name="e" unicode="e" horiz-adv-x="552" 
d="M509 252q0 -7 -1 -19t-1 -14h-380q8 -69 53 -110t114 -41q88 0 141 65l57 -48q-71 -91 -201 -91q-109 0 -177.5 69t-68.5 180q0 110 67.5 180t172.5 70q99 0 161.5 -68t62.5 -173zM284 419q-59 0 -101.5 -36t-53.5 -98h299q-9 61 -47 97.5t-97 36.5z" />
    <glyph glyph-name="f" unicode="f" horiz-adv-x="332" 
d="M96 0v417h-59v70h59v99q0 77 35.5 117t101.5 40q62 0 113 -32l-18 -69q-50 26 -85 26q-66 0 -66 -90v-91h138v-70h-138v-417h-81z" />
    <glyph glyph-name="g" unicode="g" horiz-adv-x="600" 
d="M291 -204q-110 0 -198 53l20 72q89 -51 175 -51q79 0 121 40.5t42 105.5v78h-2q-59 -85 -169 -85q-101 0 -168.5 67t-67.5 174q0 105 65.5 174t167.5 69q109 0 171 -84h2v78h81v-451q0 -111 -59 -175.5t-181 -64.5zM290 84q73 0 118 48t45 122q0 72 -46.5 118t-115.5 46
q-73 0 -119 -47t-46 -119q0 -76 46.5 -122t117.5 -46z" />
    <glyph glyph-name="h" unicode="h" horiz-adv-x="581" 
d="M76 0v736h81v-334h1q60 91 180 91q82 0 129.5 -50t47.5 -151v-292h-81v269q0 150 -120 150q-73 0 -115 -46t-42 -128v-245h-81z" />
    <glyph glyph-name="i" unicode="i" horiz-adv-x="245" 
d="M123 576q-25 0 -42 17t-17 41t17 41t42 17t42 -17t17 -41t-17 -41t-42 -17zM82 0v487h81v-487h-81z" />
    <glyph glyph-name="j" unicode="j" horiz-adv-x="224" 
d="M114 576q-25 0 -42 17t-17 41t17 41t42 17t42 -17t17 -41t-17 -41t-42 -17zM32 -204q-46 0 -84 16l13 72q24 -15 55 -15q58 0 58 80v538h81v-538q0 -71 -32.5 -112t-90.5 -41z" />
    <glyph glyph-name="k" unicode="k" horiz-adv-x="517" 
d="M76 0v736h81v-515l1 -1l239 267h98l-182 -201l184 -286h-93l-147 229l-100 -108v-121h-81z" />
    <glyph glyph-name="l" unicode="l" horiz-adv-x="245" 
d="M82 0v736h81v-736h-81z" />
    <glyph glyph-name="m" unicode="m" horiz-adv-x="885" 
d="M76 0v487h81v-88h1q28 44 71 69t92 25q112 0 151 -104h1q28 49 75 76.5t104 27.5q81 0 124.5 -54.5t43.5 -158.5v-280h-81v258q0 161 -111 161q-59 0 -98 -48.5t-39 -128.5v-242h-81v258q0 78 -29 119.5t-84 41.5q-61 0 -100.5 -48.5t-39.5 -128.5v-242h-81z" />
    <glyph glyph-name="n" unicode="n" horiz-adv-x="576" 
d="M76 0v487h81v-88h1q61 94 177 94q81 0 128 -51.5t47 -152.5v-289h-81v266q0 153 -120 153q-70 0 -111 -47t-41 -129v-243h-81z" />
    <glyph glyph-name="o" unicode="o" horiz-adv-x="593" 
d="M297 -6q-112 0 -182 71t-70 178t70 178.5t182 71.5q109 0 180 -70t71 -180t-71 -179.5t-180 -69.5zM297 68q71 0 119.5 49t48.5 126t-48.5 126.5t-119.5 49.5q-75 0 -122 -51t-47 -125t47.5 -124.5t121.5 -50.5z" />
    <glyph glyph-name="p" unicode="p" horiz-adv-x="614" 
d="M76 -198v685h81v-86h1q59 92 173 92q103 0 170 -72t67 -181t-67.5 -177.5t-169.5 -68.5q-115 0 -173 90h-1v-282h-81zM320 68q73 0 119.5 49t46.5 123q0 79 -48 129t-119 50q-73 0 -119.5 -51.5t-46.5 -127.5t48 -124t119 -48z" />
    <glyph glyph-name="q" unicode="q" horiz-adv-x="611" 
d="M458 -198v282h-1q-58 -90 -174 -90q-102 0 -169.5 68.5t-67.5 177.5t67 181t170 72q116 0 174 -93h1v87h81v-685h-81zM295 68q70 0 117.5 48t47.5 124t-46.5 127.5t-118.5 51.5q-71 0 -119 -49.5t-48 -129.5q0 -74 46.5 -123t120.5 -49z" />
    <glyph glyph-name="r" unicode="r" horiz-adv-x="353" 
d="M76 0v487h81v-89h2q56 95 158 95q13 0 20 -1v-90q-24 2 -32 2q-68 0 -108 -47t-40 -122v-235h-81z" />
    <glyph glyph-name="s" unicode="s" horiz-adv-x="437" 
d="M223 -6q-111 0 -190 69l41 62q61 -59 149 -59q43 0 68 18.5t25 47.5q0 33 -45 54q-12 5 -71 27q-35 12 -57 23t-44.5 28t-33.5 41.5t-11 56.5q0 56 45.5 93.5t114.5 37.5q94 0 168 -60l-42 -64q-56 52 -129 52q-30 0 -52.5 -16t-22.5 -43q0 -26 23 -42.5t69 -33.5
q95 -37 118 -51q53 -35 52 -102q0 -60 -45.5 -99.5t-129.5 -39.5z" />
    <glyph glyph-name="t" unicode="t" horiz-adv-x="361" 
d="M213 -6q-126 0 -126 151v272h-63v70h63v166l81 9v-175h161v-70h-161v-260q0 -46 13 -66.5t46 -20.5q37 0 83 25l21 -71q-51 -30 -118 -30z" />
    <glyph glyph-name="u" unicode="u" horiz-adv-x="562" 
d="M248 -6q-87 0 -135 50.5t-48 152.5v290h81v-267q0 -80 29.5 -116t89.5 -36q61 0 103 49.5t42 133.5v236h81v-487h-81v84h-1q-27 -43 -69.5 -66.5t-91.5 -23.5z" />
    <glyph glyph-name="v" unicode="v" horiz-adv-x="520" 
d="M221 0l-198 487h88l149 -384h1l149 384h87l-198 -487h-78z" />
    <glyph glyph-name="w" unicode="w" horiz-adv-x="764" 
d="M195 0l-168 487h83l123 -366h2l112 366h70l114 -366h2l122 366h83l-168 -487h-76l-112 357h-1l-112 -357h-74z" />
    <glyph glyph-name="x" unicode="x" horiz-adv-x="506" 
d="M29 0l177 247l-177 240h96l126 -178h2l128 178h95l-176 -241l178 -246h-92l-132 177h-1l-133 -177h-91z" />
    <glyph glyph-name="y" unicode="y" horiz-adv-x="525" 
d="M142 -198l87 217l-207 468h88l158 -370h2l147 370h85l-276 -685h-84z" />
    <glyph glyph-name="z" unicode="z" horiz-adv-x="471" 
d="M36 0v59l283 355l-1 3h-267v70h379v-58l-284 -358l1 -1h283v-70h-394z" />
    <glyph glyph-name="braceleft" unicode="{" horiz-adv-x="333" 
d="M232 -144q-46 0 -76.5 30.5t-30.5 80.5v214q0 18 -2 27.5t-9 22t-24 18.5t-45 7v64q28 2 45 9t24 19.5t9 22t2 26.5v221q0 47 29 79t78 32h53v-57h-25q-31 0 -48 -20t-17 -48v-215q0 -44 -12.5 -67t-44.5 -32v-2q33 -9 45 -29.5t12 -70.5v-196q0 -41 15 -60t50 -19h25
v-57h-53z" />
    <glyph glyph-name="bar" unicode="|" horiz-adv-x="290" 
d="M109 -115v852h71v-852h-71z" />
    <glyph glyph-name="braceright" unicode="}" horiz-adv-x="333" 
d="M101 -144h-53v57h25q35 0 50 19t15 60v196q0 50 12 70.5t45 29.5v2q-32 9 -44.5 32t-12.5 67v215q0 28 -17 48t-48 20h-25v57h53q49 0 78 -32t29 -79v-221q0 -17 2 -26.5t9 -22t24 -19.5t45 -9v-64q-28 -1 -45 -7t-24 -18.5t-9 -22t-2 -27.5v-214q0 -50 -30.5 -80.5
t-76.5 -30.5z" />
    <glyph glyph-name="asciitilde" unicode="~" horiz-adv-x="558" 
d="M377 211q-9 0 -17 1t-17.5 3.5t-15.5 4t-16 5.5t-13.5 5.5t-15.5 7t-14 6.5q-42 22 -74 22q-50 0 -77 -52l-58 23q39 106 125 106q44 0 102 -28q54 -27 81 -27q49 0 74 52l58 -20q-17 -50 -50 -79.5t-72 -29.5z" />
    <glyph glyph-name="uni00A0" unicode="&#xa0;" horiz-adv-x="272" 
 />
    <glyph glyph-name="exclamdown" unicode="&#xa1;" horiz-adv-x="242" 
d="M121 493q25 0 42 -17t17 -42t-17 -42t-42 -17t-42.5 17t-17.5 42t17.5 42t42.5 17zM91 277h63l15 -527h-93z" />
    <glyph glyph-name="cent" unicode="&#xa2;" horiz-adv-x="541" 
d="M505 130q-63 -68 -172 -80v-103h-61v102q-100 9 -161.5 77t-61.5 171q0 102 61.5 170t161.5 78v106h61v-106q107 -10 170 -85l-56 -48q-56 61 -142 61q-77 0 -125 -49t-48 -126q0 -78 48 -127t125 -49q88 0 144 59z" />
    <glyph glyph-name="sterling" unicode="&#xa3;" horiz-adv-x="560" 
d="M45 0v79h79v255h-63v62h63v68q0 116 56 172t142 56q119 0 186 -97l-46 -59q-49 75 -130 75q-122 0 -122 -156v-59h168v-62h-167v-255h323v-79h-489z" />
    <glyph glyph-name="currency" unicode="&#xa4;" horiz-adv-x="502" 
d="M433 386q0 -60 -36 -109l77 -77l-39 -40l-78 78q-48 -35 -109 -35t-108 36l-78 -78l-39 40l78 78q-35 48 -35 107q0 60 35 108l-78 79l39 39l78 -78q51 36 109 36q59 0 108 -36l78 79l40 -40l-78 -78q36 -51 36 -109zM249 264q51 0 87 36.5t36 86.5q0 51 -36 87.5
t-87 36.5q-50 -1 -86.5 -37t-36.5 -86q0 -51 36.5 -87.5t86.5 -36.5z" />
    <glyph glyph-name="yen" unicode="&#xa5;" horiz-adv-x="558" 
d="M548 687l-190 -332h129v-60h-163l-1 -2v-70h164v-59h-164v-164h-87v164h-171v59h171v70l-1 2h-170v60h136l-190 332h101l167 -307h2l166 307h101z" />
    <glyph glyph-name="brokenbar" unicode="&#xa6;" horiz-adv-x="290" 
d="M109 385v352h71v-352h-71zM109 -114v353h71v-353h-71z" />
    <glyph glyph-name="section" unicode="&#xa7;" horiz-adv-x="535" 
d="M398 129q66 -42 66 -119q0 -73 -53 -118t-142 -45q-127 0 -213 92l50 60q33 -37 76 -56t85 -19q46 0 77 23t31 62q0 37 -27.5 56.5t-95.5 44.5q-50 18 -77 30.5t-59.5 33t-46.5 46.5t-14 60q0 93 86 132q-62 44 -62 116q0 68 50 113t132 45q49 0 101.5 -19.5t91.5 -51.5
l-49 -59q-69 52 -140 52q-41 0 -69.5 -21t-28.5 -57q0 -37 27 -56t90 -43q106 -42 133 -59q64 -41 64 -116q0 -84 -83 -127zM138 294q0 -37 31 -59t107 -51q13 -4 49 -19q34 8 53.5 30t19.5 52q0 39 -28.5 58.5t-108.5 49.5l-46 18q-35 -6 -56 -27.5t-21 -51.5z" />
    <glyph glyph-name="dieresis" unicode="&#xa8;" horiz-adv-x="509" 
d="M164 561q-25 0 -41.5 17t-16.5 41q0 23 16.5 39.5t41.5 16.5q24 0 41 -17t17 -40t-17 -40t-41 -17zM345 561q-24 0 -41 17t-17 41q0 23 17 39.5t41 16.5t41 -17t17 -40t-17 -40t-41 -17z" />
    <glyph glyph-name="copyright" unicode="&#xa9;" horiz-adv-x="698" 
d="M349 12q-127 0 -215.5 90.5t-88.5 215.5t89 215.5t216 90.5t215 -90t88 -216q0 -125 -88.5 -215.5t-215.5 -90.5zM349 69q103 0 174.5 73.5t71.5 175.5q0 103 -71 176t-174 73q-104 0 -175.5 -73.5t-71.5 -176.5q0 -102 71.5 -175t174.5 -73zM356 153q-70 0 -116 43
t-46 120q0 71 43 117.5t119 46.5q77 0 128 -62l-39 -33q-35 45 -89 45q-49 0 -78.5 -31.5t-29.5 -82.5q0 -52 30 -82t78 -30q56 0 89 43l39 -33q-50 -61 -128 -61z" />
    <glyph glyph-name="ordfeminine" unicode="&#xaa;" horiz-adv-x="417" 
d="M185 390q-64 0 -104.5 41.5t-40.5 108.5q0 65 39.5 108t102.5 43q66 0 110 -53h1v49h59v-292h-59v44h-2q-38 -49 -106 -49zM198 447q40 0 67 25.5t27 67.5q0 40 -26.5 67.5t-67.5 27.5t-69 -27t-28 -68q0 -40 27.5 -66.5t69.5 -26.5z" />
    <glyph glyph-name="guillemotleft" unicode="&#xab;" horiz-adv-x="471" 
d="M245 26h-81l-124 219l125 221h80l-124 -221zM422 26h-81l-125 219l126 221h81l-126 -221z" />
    <glyph glyph-name="logicalnot" unicode="&#xac;" horiz-adv-x="559" 
d="M429 164v158h-373v73h446v-231h-73z" />
    <glyph glyph-name="registered" unicode="&#xae;" horiz-adv-x="698" 
d="M350 624q127 0 215 -90t88 -216q0 -125 -88.5 -215.5t-215.5 -90.5t-215.5 90.5t-88.5 215.5t89 215.5t216 90.5zM349 69q103 0 174.5 73.5t71.5 175.5q0 103 -71 176t-174 73q-104 0 -175.5 -73.5t-71.5 -176.5q0 -102 71.5 -175t174.5 -73zM469 380q0 -78 -71 -97
l86 -125h-61l-81 120h-47v-120h-51v324h117q54 0 81 -28t27 -74zM295 434v-109h54q34 0 50.5 15.5t16.5 40.5q0 24 -16.5 38.5t-46.5 14.5h-58z" />
    <glyph glyph-name="macron" unicode="&#xaf;" horiz-adv-x="457" 
d="M85 580v69h288v-69h-288z" />
    <glyph glyph-name="degree" unicode="&#xb0;" horiz-adv-x="390" 
d="M195 445q-57 0 -98 40t-41 95q0 56 42 96.5t97 40.5t96.5 -41t41.5 -97q0 -55 -41 -94.5t-97 -39.5zM195 501q33 0 57 23t24 56t-24.5 57t-56.5 24t-56.5 -24t-24.5 -57t23.5 -56t57.5 -23z" />
    <glyph glyph-name="plusminus" unicode="&#xb1;" horiz-adv-x="586" 
d="M255 160v196h-197v75h197v197h75v-197h197v-75h-197v-196h-75zM58 0v75h469v-75h-469z" />
    <glyph glyph-name="uni00B2" unicode="&#xb2;" horiz-adv-x="337" 
d="M25 436l-1 47l144 137q33 31 48 53.5t15 47.5q0 29 -19.5 48t-50.5 19q-57 0 -85 -51l-52 38q20 34 57.5 56t83.5 22q56 0 96.5 -34.5t40.5 -89.5q0 -38 -16.5 -69t-59.5 -69l-98 -90l1 -2h178v-63h-282z" />
    <glyph glyph-name="uni00B3" unicode="&#xb3;" horiz-adv-x="343" 
d="M172 430q-56 0 -97 24.5t-57 63.5l62 27q21 -53 87 -53q36 0 57 17.5t21 48.5q0 27 -23 45t-62 18h-34v53h41q32 0 51.5 16t19.5 40q0 28 -19.5 44.5t-53.5 16.5q-51 0 -74 -41l-57 32q16 32 51 51.5t81 19.5q59 0 98.5 -29.5t39.5 -80.5q0 -66 -59 -93v-2
q71 -26 71 -101q0 -52 -39.5 -84.5t-104.5 -32.5z" />
    <glyph glyph-name="acute" unicode="&#xb4;" horiz-adv-x="505" 
d="M164 541l118 141l91 1l-124 -142h-85z" />
    <glyph glyph-name="uni00B5" unicode="&#xb5;" horiz-adv-x="569" 
d="M72 -198v685h81v-258q0 -161 124 -161q61 0 100.5 48t39.5 128v243h81v-487h-74l-5 84h-2q-57 -90 -155 -90q-76 0 -111 54l-2 -1q4 -70 4 -108v-137h-81z" />
    <glyph glyph-name="paragraph" unicode="&#xb6;" horiz-adv-x="468" 
d="M324 -150v746h-62v-596h-54v351q-73 3 -118 42t-45 107q0 71 46 112t127 41h159v-803h-53z" />
    <glyph glyph-name="periodcentered" unicode="&#xb7;" horiz-adv-x="232" 
d="M117 184q-25 0 -42.5 17t-17.5 42t17.5 42t42.5 17t42 -17t17 -42t-17 -42t-42 -17z" />
    <glyph glyph-name="cedilla" unicode="&#xb8;" horiz-adv-x="385" 
d="M167 -188q-26 0 -56 6v44q21 -7 48 -7q23 0 39.5 9.5t16.5 27.5t-21.5 30t-61.5 12l1 30l19 42h51l-17 -37v-2q40 -2 64 -22.5t24 -56.5q0 -34 -27 -55t-80 -21z" />
    <glyph glyph-name="uni00B9" unicode="&#xb9;" horiz-adv-x="260" 
d="M130 436v325l-79 -54l-34 53l128 88h54v-412h-69z" />
    <glyph glyph-name="ordmasculine" unicode="&#xba;" horiz-adv-x="397" 
d="M195 390q-69 0 -112 42.5t-43 108.5q0 64 43.5 107t111.5 43q67 0 111 -42t44 -108q0 -67 -44 -109t-111 -42zM195 446q39 0 65 26.5t26 68.5q0 41 -26 68t-65 27q-41 0 -66 -27t-25 -68t25 -68t66 -27z" />
    <glyph glyph-name="guillemotright" unicode="&#xbb;" horiz-adv-x="471" 
d="M49 26l125 219l-126 221h81l126 -221l-125 -219h-81zM226 26l124 219l-124 221h80l125 -221l-124 -219h-81z" />
    <glyph glyph-name="onequarter" unicode="&#xbc;" horiz-adv-x="768" 
d="M251 -17l-67 28l311 711l66 -28zM130 299v325l-79 -54l-34 53l128 88h54v-412h-69zM616 0v68h-189v45l203 299h54v-283h61v-61h-61v-68h-68zM504 125h116v173z" />
    <glyph glyph-name="onehalf" unicode="&#xbd;" horiz-adv-x="799" 
d="M251 -17l-67 28l311 711l66 -28zM130 299v325l-79 -54l-34 53l128 88h54v-412h-69zM487 0l-1 47l144 137q33 31 48 53.5t15 47.5q0 29 -19.5 48t-50.5 19q-57 0 -85 -51l-52 38q20 34 57.5 56t83.5 22q56 0 96.5 -34.5t40.5 -89.5q0 -38 -16.5 -69t-59.5 -69l-98 -90
l1 -2h178v-63h-282z" />
    <glyph glyph-name="threequarters" unicode="&#xbe;" horiz-adv-x="833" 
d="M316 -17l-67 28l311 711l66 -28zM172 293q-56 0 -97 24.5t-57 63.5l62 27q21 -53 87 -53q36 0 57 17.5t21 48.5q0 27 -23 45t-62 18h-34v53h41q32 0 51.5 16t19.5 40q0 28 -19.5 44.5t-53.5 16.5q-51 0 -74 -41l-57 32q16 32 51 51.5t81 19.5q59 0 98.5 -29.5t39.5 -80.5
q0 -66 -59 -93v-2q71 -26 71 -101q0 -52 -39.5 -84.5t-104.5 -32.5zM681 0v68h-189v45l203 299h54v-283h61v-61h-61v-68h-68zM569 125h116v173z" />
    <glyph glyph-name="questiondown" unicode="&#xbf;" horiz-adv-x="421" 
d="M252 493q25 0 42.5 -17t17.5 -42t-17.5 -42t-42.5 -17t-42 17t-17 42t17 42t42 17zM290 279v-54q0 -13 -2 -25t-8.5 -24.5t-10 -20.5t-15.5 -22t-16 -18.5t-20 -21t-18 -19.5q-22 -25 -35 -42t-24.5 -44t-11.5 -54q0 -51 32 -80.5t80 -29.5q36 0 70 18.5t55 50.5l61 -57
q-71 -93 -192 -93q-84 0 -140.5 51t-56.5 136q0 54 24 96t66 84q6 6 25 24t25.5 25.5t17.5 21.5t15.5 25t4.5 23l2 50h72z" />
    <glyph glyph-name="Agrave" unicode="&#xc0;" horiz-adv-x="676" 
d="M304 782l-122 129h92l112 -129h-82zM25 0l269 710h87l270 -710h-91l-64 173h-317l-63 -173h-91zM207 249h262l-131 356h-2z" />
    <glyph glyph-name="Aacute" unicode="&#xc1;" horiz-adv-x="676" 
d="M296 782l112 129h93l-122 -129h-83zM25 0l269 710h87l270 -710h-91l-64 173h-317l-63 -173h-91zM207 249h262l-131 356h-2z" />
    <glyph glyph-name="Acircumflex" unicode="&#xc2;" horiz-adv-x="676" 
d="M180 782l116 124h85l113 -124h-81l-74 78h-2l-74 -78h-83zM25 0l269 710h87l270 -710h-91l-64 173h-317l-63 -173h-91zM207 249h262l-131 356h-2z" />
    <glyph glyph-name="Atilde" unicode="&#xc3;" horiz-adv-x="676" 
d="M416 782q-35 0 -85 33q-41 25 -63 25q-35 0 -58 -55l-52 22q32 94 104 94q36 0 85 -30q4 -2 12.5 -7.5t13 -8t12 -6t13.5 -5t13 -1.5q34 0 54 55l52 -17q-30 -99 -101 -99zM25 0l269 710h87l270 -710h-91l-64 173h-317l-63 -173h-91zM207 249h262l-131 356h-2z" />
    <glyph glyph-name="Adieresis" unicode="&#xc4;" horiz-adv-x="676" 
d="M248 793q-25 0 -41.5 17t-16.5 41q0 23 16.5 39.5t41.5 16.5q24 0 41 -17t17 -40t-17 -40t-41 -17zM429 793q-24 0 -41 17t-17 41q0 23 17 39.5t41 16.5t41 -17t17 -40t-17 -40t-41 -17zM25 0l269 710h87l270 -710h-91l-64 173h-317l-63 -173h-91zM207 249h262l-131 356
h-2z" />
    <glyph glyph-name="Aring" unicode="&#xc5;" horiz-adv-x="676" 
d="M337 760q-39 0 -67 27.5t-28 66.5t27.5 66.5t67.5 27.5q41 0 69 -27t28 -67q0 -38 -28 -66t-69 -28zM337 813q19 0 31.5 12.5t12.5 29.5t-12.5 29.5t-31.5 12.5q-17 0 -29.5 -12.5t-12.5 -29.5q0 -18 12.5 -30t29.5 -12zM25 0l269 710h87l270 -710h-91l-64 173h-317
l-63 -173h-91zM207 249h262l-131 356h-2z" />
    <glyph glyph-name="AE" unicode="&#xc6;" horiz-adv-x="928" 
d="M9 0l374 710h486v-79h-349v-238h290v-79h-290v-235h369v-79h-455v173h-243l-92 -173h-90zM229 249h205v384h-2z" />
    <glyph glyph-name="Ccedilla" unicode="&#xc7;" horiz-adv-x="724" 
d="M412 -5l-12 -26v-2q40 -2 64 -22.5t24 -56.5q0 -34 -27 -55t-80 -21q-26 0 -56 6v44q21 -7 48 -7q23 0 39.5 9.5t16.5 27.5t-21.5 30t-61.5 12l1 30l15 34q-133 15 -219 108.5t-86 246.5q0 157 94 260.5t259 103.5q166 0 277 -136l-65 -54q-86 107 -212 107
q-119 0 -190.5 -78.5t-71.5 -202.5q0 -125 74 -200.5t189 -75.5q127 0 212 107l65 -55q-108 -134 -276 -134z" />
    <glyph glyph-name="Egrave" unicode="&#xc8;" horiz-adv-x="593" 
d="M321 782l-122 129h92l112 -129h-82zM88 0v710h435v-79h-348v-238h285v-79h-285v-235h369v-79h-456z" />
    <glyph glyph-name="Eacute" unicode="&#xc9;" horiz-adv-x="593" 
d="M218 782l112 129h93l-122 -129h-83zM88 0v710h435v-79h-348v-238h285v-79h-285v-235h369v-79h-456z" />
    <glyph glyph-name="Ecircumflex" unicode="&#xca;" horiz-adv-x="593" 
d="M150 782l116 124h85l113 -124h-81l-74 78h-2l-74 -78h-83zM88 0v710h435v-79h-348v-238h285v-79h-285v-235h369v-79h-456z" />
    <glyph glyph-name="Edieresis" unicode="&#xcb;" horiz-adv-x="593" 
d="M218 793q-25 0 -41.5 17t-16.5 41q0 23 16.5 39.5t41.5 16.5q24 0 41 -17t17 -40t-17 -40t-41 -17zM399 793q-24 0 -41 17t-17 41q0 23 17 39.5t41 16.5t41 -17t17 -40t-17 -40t-41 -17zM88 0v710h435v-79h-348v-238h285v-79h-285v-235h369v-79h-456z" />
    <glyph glyph-name="Igrave" unicode="&#xcc;" horiz-adv-x="273" 
d="M97 782l-122 129h92l112 -129h-82zM93 0v710h87v-710h-87z" />
    <glyph glyph-name="Iacute" unicode="&#xcd;" horiz-adv-x="273" 
d="M95 782l112 129h93l-122 -129h-83zM93 0v710h87v-710h-87z" />
    <glyph glyph-name="Icircumflex" unicode="&#xce;" horiz-adv-x="273" 
d="M-22 782l116 124h85l113 -124h-81l-74 78h-2l-74 -78h-83zM93 0v710h87v-710h-87z" />
    <glyph glyph-name="Idieresis" unicode="&#xcf;" horiz-adv-x="273" 
d="M46 793q-25 0 -41.5 17t-16.5 41q0 23 16.5 39.5t41.5 16.5q24 0 41 -17t17 -40t-17 -40t-41 -17zM227 793q-24 0 -41 17t-17 41q0 23 17 39.5t41 16.5t41 -17t17 -40t-17 -40t-41 -17zM93 0v710h87v-710h-87z" />
    <glyph glyph-name="Eth" unicode="&#xd0;" horiz-adv-x="726" 
d="M300 710q167 0 268 -98.5t101 -257.5t-99 -256.5t-267 -97.5h-215v316h-68v77h68v317h212zM298 79q128 0 204.5 76.5t76.5 198.5t-77 199.5t-201 77.5h-126v-238h190v-77h-190v-237h123z" />
    <glyph glyph-name="Ntilde" unicode="&#xd1;" horiz-adv-x="751" 
d="M453 782q-35 0 -85 33q-41 25 -63 25q-35 0 -58 -55l-52 22q32 94 104 94q36 0 85 -30q4 -2 12.5 -7.5t13 -8t12 -6t13.5 -5t13 -1.5q34 0 54 55l52 -17q-30 -99 -101 -99zM88 0v710h86l401 -565h1v565h87v-710h-89l-397 559h-2v-559h-87z" />
    <glyph glyph-name="Ograve" unicode="&#xd2;" horiz-adv-x="825" 
d="M384 782l-122 129h92l112 -129h-82zM414 -6q-156 0 -256.5 101.5t-100.5 259.5t101 260t256 102q152 0 253 -101t101 -261t-101 -260.5t-253 -100.5zM414 76q112 0 187.5 78.5t75.5 200.5t-75.5 201t-187.5 79q-115 0 -190.5 -79.5t-75.5 -200.5q0 -120 75.5 -199.5
t190.5 -79.5z" />
    <glyph glyph-name="Oacute" unicode="&#xd3;" horiz-adv-x="825" 
d="M362 782l112 129h93l-122 -129h-83zM414 -6q-156 0 -256.5 101.5t-100.5 259.5t101 260t256 102q152 0 253 -101t101 -261t-101 -260.5t-253 -100.5zM414 76q112 0 187.5 78.5t75.5 200.5t-75.5 201t-187.5 79q-115 0 -190.5 -79.5t-75.5 -200.5q0 -120 75.5 -199.5
t190.5 -79.5z" />
    <glyph glyph-name="Ocircumflex" unicode="&#xd4;" horiz-adv-x="825" 
d="M256 782l116 124h85l113 -124h-81l-74 78h-2l-74 -78h-83zM414 -6q-156 0 -256.5 101.5t-100.5 259.5t101 260t256 102q152 0 253 -101t101 -261t-101 -260.5t-253 -100.5zM414 76q112 0 187.5 78.5t75.5 200.5t-75.5 201t-187.5 79q-115 0 -190.5 -79.5t-75.5 -200.5
q0 -120 75.5 -199.5t190.5 -79.5z" />
    <glyph glyph-name="Otilde" unicode="&#xd5;" horiz-adv-x="825" 
d="M492 782q-35 0 -85 33q-41 25 -63 25q-35 0 -58 -55l-52 22q32 94 104 94q36 0 85 -30q4 -2 12.5 -7.5t13 -8t12 -6t13.5 -5t13 -1.5q34 0 54 55l52 -17q-30 -99 -101 -99zM414 -6q-156 0 -256.5 101.5t-100.5 259.5t101 260t256 102q152 0 253 -101t101 -261
t-101 -260.5t-253 -100.5zM414 76q112 0 187.5 78.5t75.5 200.5t-75.5 201t-187.5 79q-115 0 -190.5 -79.5t-75.5 -200.5q0 -120 75.5 -199.5t190.5 -79.5z" />
    <glyph glyph-name="Odieresis" unicode="&#xd6;" horiz-adv-x="825" 
d="M324 793q-25 0 -41.5 17t-16.5 41q0 23 16.5 39.5t41.5 16.5q24 0 41 -17t17 -40t-17 -40t-41 -17zM505 793q-24 0 -41 17t-17 41q0 23 17 39.5t41 16.5t41 -17t17 -40t-17 -40t-41 -17zM414 -6q-156 0 -256.5 101.5t-100.5 259.5t101 260t256 102q152 0 253 -101
t101 -261t-101 -260.5t-253 -100.5zM414 76q112 0 187.5 78.5t75.5 200.5t-75.5 201t-187.5 79q-115 0 -190.5 -79.5t-75.5 -200.5q0 -120 75.5 -199.5t190.5 -79.5z" />
    <glyph glyph-name="multiply" unicode="&#xd7;" horiz-adv-x="508" 
d="M106 77l-53 51l149 149l-149 148l52 53l148 -149l149 149l53 -52l-149 -150l148 -148l-52 -51l-148 148z" />
    <glyph glyph-name="Oslash" unicode="&#xd8;" horiz-adv-x="825" 
d="M772 684l-84 -91q80 -98 80 -238q0 -160 -101 -260.5t-253 -100.5q-125 0 -218 68l-81 -88l-51 47l81 88q-88 101 -88 246q0 158 101 260t256 102q132 0 225 -76l82 88zM148 355q0 -103 59 -180l373 402q-71 58 -166 58q-115 0 -190.5 -79.5t-75.5 -200.5zM677 355
q0 98 -51 171l-370 -400q67 -50 158 -50q112 0 187.5 78.5t75.5 200.5z" />
    <glyph glyph-name="Ugrave" unicode="&#xd9;" horiz-adv-x="706" 
d="M331 782l-122 129h92l112 -129h-82zM353 -6q-124 0 -199.5 78.5t-75.5 216.5v421h87v-415q0 -99 51 -159t137 -60q84 0 136.5 59t52.5 160v415h87v-421q0 -136 -74.5 -215.5t-201.5 -79.5z" />
    <glyph glyph-name="Uacute" unicode="&#xda;" horiz-adv-x="706" 
d="M286 782l112 129h93l-122 -129h-83zM353 -6q-124 0 -199.5 78.5t-75.5 216.5v421h87v-415q0 -99 51 -159t137 -60q84 0 136.5 59t52.5 160v415h87v-421q0 -136 -74.5 -215.5t-201.5 -79.5z" />
    <glyph glyph-name="Ucircumflex" unicode="&#xdb;" horiz-adv-x="706" 
d="M195 782l116 124h85l113 -124h-81l-74 78h-2l-74 -78h-83zM353 -6q-124 0 -199.5 78.5t-75.5 216.5v421h87v-415q0 -99 51 -159t137 -60q84 0 136.5 59t52.5 160v415h87v-421q0 -136 -74.5 -215.5t-201.5 -79.5z" />
    <glyph glyph-name="Udieresis" unicode="&#xdc;" horiz-adv-x="706" 
d="M263 793q-25 0 -41.5 17t-16.5 41q0 23 16.5 39.5t41.5 16.5q24 0 41 -17t17 -40t-17 -40t-41 -17zM444 793q-24 0 -41 17t-17 41q0 23 17 39.5t41 16.5t41 -17t17 -40t-17 -40t-41 -17zM353 -6q-124 0 -199.5 78.5t-75.5 216.5v421h87v-415q0 -99 51 -159t137 -60
q84 0 136.5 59t52.5 160v415h87v-421q0 -136 -74.5 -215.5t-201.5 -79.5z" />
    <glyph glyph-name="Yacute" unicode="&#xdd;" horiz-adv-x="601" 
d="M249 782l112 129h93l-122 -129h-83zM256 0v317l-241 393h100l184 -305h2l183 305h102l-243 -393v-317h-87z" />
    <glyph glyph-name="Thorn" unicode="&#xde;" horiz-adv-x="632" 
d="M88 0v710h87v-140h181q119 0 176.5 -60t57.5 -160q0 -108 -67 -162.5t-183 -54.5h-165v-133h-87zM175 211h159q83 0 124.5 38.5t41.5 102.5q0 67 -40.5 103t-113.5 36h-171v-280z" />
    <glyph glyph-name="germandbls" unicode="&#xdf;" horiz-adv-x="621" 
d="M252 -6v73h90q68 0 113.5 43t45.5 112q0 66 -46.5 113.5t-124.5 47.5h-54v70h50q41 0 69.5 12t40.5 31t17 34.5t5 30.5q0 47 -36 77.5t-104 30.5q-161 0 -161 -175v-494h-81v492q0 126 62.5 188.5t177.5 62.5q104 0 163 -48.5t59 -126.5q0 -40 -20.5 -78.5t-69.5 -60.5
v-2q63 -25 99.5 -82t36.5 -125q0 -102 -62.5 -164t-161.5 -62h-108z" />
    <glyph glyph-name="agrave" unicode="&#xe0;" horiz-adv-x="604" 
d="M280 558l-121 138l92 -1l111 -137h-82zM281 -6q-102 0 -169.5 68.5t-67.5 177.5t67 181t170 72q54 0 99 -24.5t71 -68.5l2 1v86h81v-487h-78v88h-1q-57 -94 -174 -94zM293 68q69 0 116 48t47 124t-46 127.5t-117 51.5t-119 -50t-48 -129q0 -74 46.5 -123t120.5 -49z" />
    <glyph glyph-name="aacute" unicode="&#xe1;" horiz-adv-x="604" 
d="M253 557l118 141l91 1l-124 -142h-85zM281 -6q-102 0 -169.5 68.5t-67.5 177.5t67 181t170 72q54 0 99 -24.5t71 -68.5l2 1v86h81v-487h-78v88h-1q-57 -94 -174 -94zM293 68q69 0 116 48t47 124t-46 127.5t-117 51.5t-119 -50t-48 -129q0 -74 46.5 -123t120.5 -49z" />
    <glyph glyph-name="acircumflex" unicode="&#xe2;" horiz-adv-x="604" 
d="M143 556l115 140h85l111 -140h-81l-72 89h-2l-73 -89h-83zM281 -6q-102 0 -169.5 68.5t-67.5 177.5t67 181t170 72q54 0 99 -24.5t71 -68.5l2 1v86h81v-487h-78v88h-1q-57 -94 -174 -94zM293 68q69 0 116 48t47 124t-46 127.5t-117 51.5t-119 -50t-48 -129
q0 -74 46.5 -123t120.5 -49z" />
    <glyph glyph-name="atilde" unicode="&#xe3;" horiz-adv-x="604" 
d="M377 562q-35 0 -88 36q-37 24 -58 24q-39 0 -60 -56l-52 23q31 98 104 98q38 0 81 -29l12 -8t13.5 -8.5t11.5 -6t13.5 -5t13.5 -1.5q38 0 58 55l51 -17q-13 -50 -40 -77.5t-60 -27.5zM281 -6q-102 0 -169.5 68.5t-67.5 177.5t67 181t170 72q54 0 99 -24.5t71 -68.5l2 1
v86h81v-487h-78v88h-1q-57 -94 -174 -94zM293 68q69 0 116 48t47 124t-46 127.5t-117 51.5t-119 -50t-48 -129q0 -74 46.5 -123t120.5 -49z" />
    <glyph glyph-name="adieresis" unicode="&#xe4;" horiz-adv-x="604" 
d="M208 577q-25 0 -41.5 17t-16.5 41q0 23 16.5 39.5t41.5 16.5q24 0 41 -17t17 -40t-17 -40t-41 -17zM389 577q-24 0 -41 17t-17 41q0 23 17 39.5t41 16.5t41 -17t17 -40t-17 -40t-41 -17zM281 -6q-102 0 -169.5 68.5t-67.5 177.5t67 181t170 72q54 0 99 -24.5t71 -68.5
l2 1v86h81v-487h-78v88h-1q-57 -94 -174 -94zM293 68q69 0 116 48t47 124t-46 127.5t-117 51.5t-119 -50t-48 -129q0 -74 46.5 -123t120.5 -49z" />
    <glyph glyph-name="aring" unicode="&#xe5;" horiz-adv-x="604" 
d="M298 545q-39 0 -67 27.5t-28 66.5t27.5 66.5t67.5 27.5q41 0 69 -27t28 -67q0 -38 -28 -66t-69 -28zM298 598q19 0 31.5 12.5t12.5 29.5t-12.5 29.5t-31.5 12.5q-17 0 -29.5 -12.5t-12.5 -29.5q0 -18 12.5 -30t29.5 -12zM281 -6q-102 0 -169.5 68.5t-67.5 177.5t67 181
t170 72q54 0 99 -24.5t71 -68.5l2 1v86h81v-487h-78v88h-1q-57 -94 -174 -94zM293 68q69 0 116 48t47 124t-46 127.5t-117 51.5t-119 -50t-48 -129q0 -74 46.5 -123t120.5 -49z" />
    <glyph glyph-name="ae" unicode="&#xe6;" horiz-adv-x="790" 
d="M754 252q0 -27 -1 -34h-340q8 -70 47 -110t102 -40q44 0 71 16t51 49l56 -48q-35 -46 -75.5 -68.5t-108.5 -22.5q-116 0 -174 99h-2q-21 -44 -68 -71.5t-111 -27.5q-83 0 -126 42t-43 106q0 67 47.5 106t138.5 39h116v12q0 67 -22.5 94t-74.5 27q-72 0 -139 -37l-31 66
q29 17 77.5 30.5t97.5 13.5q110 0 146 -94h2q27 45 71 69.5t93 24.5q89 0 144.5 -68t55.5 -173zM415 285h258q-6 60 -37 97t-85 37q-53 0 -89.5 -37t-46.5 -97zM208 62q53 0 90 32.5t37 87.5v39h-110q-113 0 -113 -78q0 -35 24.5 -58t71.5 -23z" />
    <glyph glyph-name="ccedilla" unicode="&#xe7;" horiz-adv-x="521" 
d="M298 -6l-12 -25v-2q40 -2 64 -22.5t24 -56.5q0 -34 -27 -55t-80 -21q-26 0 -56 6v44q21 -7 48 -7q23 0 39.5 9.5t16.5 27.5t-21.5 30t-61.5 12l1 30l15 33q-91 13 -147 79.5t-56 166.5q0 110 68.5 180t177.5 70q56 0 108.5 -22.5t87.5 -64.5l-55 -49q-53 62 -137 62
q-75 0 -121 -49t-46 -127t46 -126.5t120 -48.5q89 0 139 62l56 -51q-70 -82 -191 -85z" />
    <glyph glyph-name="egrave" unicode="&#xe8;" horiz-adv-x="551" 
d="M352 558h-82l-121 138l92 -1zM509 252q0 -7 -1 -19t-1 -14h-380q8 -69 53 -110t114 -41q88 0 141 65l57 -48q-71 -91 -201 -91q-109 0 -177.5 69t-68.5 180q0 110 67.5 180t172.5 70q99 0 161.5 -68t62.5 -173zM284 419q-59 0 -101.5 -36t-53.5 -98h299q-9 61 -47 97.5
t-97 36.5z" />
    <glyph glyph-name="eacute" unicode="&#xe9;" horiz-adv-x="551" 
d="M443 699l-124 -142h-85l118 141zM509 252q0 -7 -1 -19t-1 -14h-380q8 -69 53 -110t114 -41q88 0 141 65l57 -48q-71 -91 -201 -91q-109 0 -177.5 69t-68.5 180q0 110 67.5 180t172.5 70q99 0 161.5 -68t62.5 -173zM284 419q-59 0 -101.5 -36t-53.5 -98h299
q-9 61 -47 97.5t-97 36.5z" />
    <glyph glyph-name="ecircumflex" unicode="&#xea;" horiz-adv-x="552" 
d="M287 645l-73 -89h-83l115 140h85l111 -140h-81l-72 89h-2zM509 252q0 -7 -1 -19t-1 -14h-380q8 -69 53 -110t114 -41q88 0 141 65l57 -48q-71 -91 -201 -91q-109 0 -177.5 69t-68.5 180q0 110 67.5 180t172.5 70q99 0 161.5 -68t62.5 -173zM284 419q-59 0 -101.5 -36
t-53.5 -98h299q-9 61 -47 97.5t-97 36.5z" />
    <glyph glyph-name="edieresis" unicode="&#xeb;" horiz-adv-x="552" 
d="M196 577q-25 0 -41.5 17t-16.5 41q0 23 16.5 39.5t41.5 16.5q24 0 41 -17t17 -40t-17 -40t-41 -17zM377 577q-24 0 -41 17t-17 41q0 23 17 39.5t41 16.5t41 -17t17 -40t-17 -40t-41 -17zM509 252q0 -7 -1 -19t-1 -14h-380q8 -69 53 -110t114 -41q88 0 141 65l57 -48
q-71 -91 -201 -91q-109 0 -177.5 69t-68.5 180q0 110 67.5 180t172.5 70q99 0 161.5 -68t62.5 -173zM284 419q-59 0 -101.5 -36t-53.5 -98h299q-9 61 -47 97.5t-97 36.5z" />
    <glyph glyph-name="igrave" unicode="&#xec;" horiz-adv-x="246" 
d="M79 557l-90 142l91 -1l83 -141h-84zM82 0v487h81v-487h-81z" />
    <glyph glyph-name="iacute" unicode="&#xed;" horiz-adv-x="245" 
d="M86 557l118 141l91 1l-124 -142h-85zM82 0v487h81v-487h-81z" />
    <glyph glyph-name="icircumflex" unicode="&#xee;" horiz-adv-x="245" 
d="M-33 556l115 140h85l111 -140h-81l-72 89h-2l-73 -89h-83zM82 0v487h81v-487h-81z" />
    <glyph glyph-name="idieresis" unicode="&#xef;" horiz-adv-x="245" 
d="M32 577q-25 0 -41.5 17t-16.5 41q0 23 16.5 39.5t41.5 16.5q24 0 41 -17t17 -40t-17 -40t-41 -17zM213 577q-24 0 -41 17t-17 41q0 23 17 39.5t41 16.5t41 -17t17 -40t-17 -40t-41 -17zM82 0v487h81v-487h-81z" />
    <glyph glyph-name="eth" unicode="&#xf0;" horiz-adv-x="588" 
d="M434 564q109 -135 109 -302q0 -126 -68.5 -197t-182.5 -71q-105 0 -176 68t-71 173q0 107 65.5 176.5t160.5 69.5q105 0 168 -70l1 2q-24 58 -65 107q-20 25 -57 58l-51 -60l-54 40l51 60q-51 35 -122 62l32 60q70 -23 137 -66l67 80l55 -38l-69 -82q35 -28 70 -70z
M292 68q74 0 121 49.5t47 125.5q0 71 -48 118t-119 47q-72 0 -119 -49t-47 -119q0 -75 47.5 -123.5t117.5 -48.5z" />
    <glyph glyph-name="ntilde" unicode="&#xf1;" horiz-adv-x="576" 
d="M369 562q-35 0 -88 36q-37 24 -58 24q-39 0 -60 -56l-52 23q31 98 104 98q38 0 81 -29l12 -8t13.5 -8.5t11.5 -6t13.5 -5t13.5 -1.5q38 0 58 55l51 -17q-13 -50 -40 -77.5t-60 -27.5zM76 0v487h81v-88h1q61 94 177 94q81 0 128 -51.5t47 -152.5v-289h-81v266
q0 153 -120 153q-70 0 -111 -47t-41 -129v-243h-81z" />
    <glyph glyph-name="ograve" unicode="&#xf2;" horiz-adv-x="593" 
d="M273 558l-121 138l92 -1l111 -137h-82zM297 -6q-112 0 -182 71t-70 178t70 178.5t182 71.5q109 0 180 -70t71 -180t-71 -179.5t-180 -69.5zM297 68q71 0 119.5 49t48.5 126t-48.5 126.5t-119.5 49.5q-75 0 -122 -51t-47 -125t47.5 -124.5t121.5 -50.5z" />
    <glyph glyph-name="oacute" unicode="&#xf3;" horiz-adv-x="593" 
d="M252 557l118 141l91 1l-124 -142h-85zM297 -6q-112 0 -182 71t-70 178t70 178.5t182 71.5q109 0 180 -70t71 -180t-71 -179.5t-180 -69.5zM297 68q71 0 119.5 49t48.5 126t-48.5 126.5t-119.5 49.5q-75 0 -122 -51t-47 -125t47.5 -124.5t121.5 -50.5z" />
    <glyph glyph-name="ocircumflex" unicode="&#xf4;" horiz-adv-x="593" 
d="M141 556l115 140h85l111 -140h-81l-72 89h-2l-73 -89h-83zM297 -6q-112 0 -182 71t-70 178t70 178.5t182 71.5q109 0 180 -70t71 -180t-71 -179.5t-180 -69.5zM297 68q71 0 119.5 49t48.5 126t-48.5 126.5t-119.5 49.5q-75 0 -122 -51t-47 -125t47.5 -124.5t121.5 -50.5z
" />
    <glyph glyph-name="otilde" unicode="&#xf5;" horiz-adv-x="593" 
d="M375 562q-35 0 -88 36q-37 24 -58 24q-39 0 -60 -56l-52 23q31 98 104 98q38 0 81 -29l12 -8t13.5 -8.5t11.5 -6t13.5 -5t13.5 -1.5q38 0 58 55l51 -17q-13 -50 -40 -77.5t-60 -27.5zM297 -6q-112 0 -182 71t-70 178t70 178.5t182 71.5q109 0 180 -70t71 -180t-71 -179.5
t-180 -69.5zM297 68q71 0 119.5 49t48.5 126t-48.5 126.5t-119.5 49.5q-75 0 -122 -51t-47 -125t47.5 -124.5t121.5 -50.5z" />
    <glyph glyph-name="odieresis" unicode="&#xf6;" horiz-adv-x="593" 
d="M206 577q-25 0 -41.5 17t-16.5 41q0 23 16.5 39.5t41.5 16.5q24 0 41 -17t17 -40t-17 -40t-41 -17zM387 577q-24 0 -41 17t-17 41q0 23 17 39.5t41 16.5t41 -17t17 -40t-17 -40t-41 -17zM297 -6q-112 0 -182 71t-70 178t70 178.5t182 71.5q109 0 180 -70t71 -180
t-71 -179.5t-180 -69.5zM297 68q71 0 119.5 49t48.5 126t-48.5 126.5t-119.5 49.5q-75 0 -122 -51t-47 -125t47.5 -124.5t121.5 -50.5z" />
    <glyph glyph-name="divide" unicode="&#xf7;" horiz-adv-x="578" 
d="M290 412q-25 0 -42 17t-17 41t17 41t42 17t42 -17t17 -41t-17 -41t-42 -17zM61 239v75h469v-75h-469zM290 18q-25 0 -42 17t-17 41t17 41t42 17t42 -17t17 -41t-17 -41t-42 -17z" />
    <glyph glyph-name="oslash" unicode="&#xf8;" horiz-adv-x="593" 
d="M556 465l-60 -64q52 -65 52 -158q0 -110 -71 -179.5t-180 -69.5q-82 0 -145 41l-54 -57l-45 42l52 56q-60 69 -60 167q0 107 70 178.5t182 71.5q89 0 155 -49l59 63zM128 243q0 -61 33 -108l237 251q-44 33 -101 33q-75 0 -122 -51t-47 -125zM465 243q0 55 -26 98
l-233 -248q41 -25 91 -25q71 0 119.5 49t48.5 126z" />
    <glyph glyph-name="ugrave" unicode="&#xf9;" horiz-adv-x="562" 
d="M264 558l-121 138l92 -1l111 -137h-82zM248 -6q-87 0 -135 50.5t-48 152.5v290h81v-267q0 -80 29.5 -116t89.5 -36q61 0 103 49.5t42 133.5v236h81v-487h-81v84h-1q-27 -43 -69.5 -66.5t-91.5 -23.5z" />
    <glyph glyph-name="uacute" unicode="&#xfa;" horiz-adv-x="562" 
d="M233 557l118 141l91 1l-124 -142h-85zM248 -6q-87 0 -135 50.5t-48 152.5v290h81v-267q0 -80 29.5 -116t89.5 -36q61 0 103 49.5t42 133.5v236h81v-487h-81v84h-1q-27 -43 -69.5 -66.5t-91.5 -23.5z" />
    <glyph glyph-name="ucircumflex" unicode="&#xfb;" horiz-adv-x="562" 
d="M123 556l115 140h85l111 -140h-81l-72 89h-2l-73 -89h-83zM248 -6q-87 0 -135 50.5t-48 152.5v290h81v-267q0 -80 29.5 -116t89.5 -36q61 0 103 49.5t42 133.5v236h81v-487h-81v84h-1q-27 -43 -69.5 -66.5t-91.5 -23.5z" />
    <glyph glyph-name="udieresis" unicode="&#xfc;" horiz-adv-x="562" 
d="M188 577q-25 0 -41.5 17t-16.5 41q0 23 16.5 39.5t41.5 16.5q24 0 41 -17t17 -40t-17 -40t-41 -17zM369 577q-24 0 -41 17t-17 41q0 23 17 39.5t41 16.5t41 -17t17 -40t-17 -40t-41 -17zM248 -6q-87 0 -135 50.5t-48 152.5v290h81v-267q0 -80 29.5 -116t89.5 -36
q61 0 103 49.5t42 133.5v236h81v-487h-81v84h-1q-27 -43 -69.5 -66.5t-91.5 -23.5z" />
    <glyph glyph-name="yacute" unicode="&#xfd;" horiz-adv-x="525" 
d="M204 557l118 141l91 1l-124 -142h-85zM142 -198l87 217l-207 468h88l158 -370h2l147 370h85l-276 -685h-84z" />
    <glyph glyph-name="thorn" unicode="&#xfe;" horiz-adv-x="614" 
d="M76 -198v934h81v-334h1q58 91 173 91q103 0 170 -72t67 -181t-67.5 -177.5t-169.5 -68.5q-117 0 -173 90l-1 -1v-281h-81zM320 68q73 0 119.5 49t46.5 123q0 79 -48 129t-119 50q-73 0 -119.5 -51.5t-46.5 -127.5t48 -124t119 -48z" />
    <glyph glyph-name="ydieresis" unicode="&#xff;" horiz-adv-x="525" 
d="M173 577q-25 0 -41.5 17t-16.5 41q0 23 16.5 39.5t41.5 16.5q24 0 41 -17t17 -40t-17 -40t-41 -17zM354 577q-24 0 -41 17t-17 41q0 23 17 39.5t41 16.5t41 -17t17 -40t-17 -40t-41 -17zM142 -198l87 217l-207 468h88l158 -370h2l147 370h85l-276 -685h-84z" />
    <glyph glyph-name="Amacron" unicode="&#x100;" horiz-adv-x="676" 
d="M194 809v67h288v-67h-288zM25 0l269 710h87l270 -710h-91l-64 173h-317l-63 -173h-91zM207 249h262l-131 356h-2z" />
    <glyph glyph-name="amacron" unicode="&#x101;" horiz-adv-x="604" 
d="M155 596v69h288v-69h-288zM281 -6q-102 0 -169.5 68.5t-67.5 177.5t67 181t170 72q54 0 99 -24.5t71 -68.5l2 1v86h81v-487h-78v88h-1q-57 -94 -174 -94zM293 68q69 0 116 48t47 124t-46 127.5t-117 51.5t-119 -50t-48 -129q0 -74 46.5 -123t120.5 -49z" />
    <glyph glyph-name="Abreve" unicode="&#x102;" horiz-adv-x="676" 
d="M338 776q-62 0 -100.5 35.5t-43.5 94.5h65q2 -28 23 -47.5t56 -19.5t56 19.5t23 47.5h65q-5 -59 -43.5 -94.5t-100.5 -35.5zM25 0l269 710h87l270 -710h-91l-64 173h-317l-63 -173h-91zM207 249h262l-131 356h-2z" />
    <glyph glyph-name="abreve" unicode="&#x103;" horiz-adv-x="604" 
d="M299 552q-63 0 -101.5 37.5t-42.5 104.5h65q2 -33 23 -55.5t56 -22.5t56 22.5t23 55.5h65q-4 -67 -42.5 -104.5t-101.5 -37.5zM281 -6q-102 0 -169.5 68.5t-67.5 177.5t67 181t170 72q54 0 99 -24.5t71 -68.5l2 1v86h81v-487h-78v88h-1q-57 -94 -174 -94zM293 68
q69 0 116 48t47 124t-46 127.5t-117 51.5t-119 -50t-48 -129q0 -74 46.5 -123t120.5 -49z" />
    <glyph glyph-name="Aogonek" unicode="&#x104;" horiz-adv-x="676" 
d="M652 -121l6 -52q-29 -13 -69 -13q-46 0 -72.5 22.5t-26.5 61.5q0 26 18 54.5t51 50.5l-63 170h-317l-63 -173h-91l269 710h87l270 -710h-16q-36 -12 -57.5 -36t-21.5 -49q0 -45 49 -45q27 0 47 9zM207 249h262l-131 356h-2z" />
    <glyph glyph-name="aogonek" unicode="&#x105;" horiz-adv-x="604" 
d="M544 -121l6 -52q-29 -13 -69 -13q-46 0 -72.5 22.5t-26.5 61.5q0 27 19.5 57t54.5 52v81h-1q-57 -94 -174 -94q-102 0 -169.5 68.5t-67.5 177.5t67 181t170 72q54 0 99 -24.5t71 -68.5l2 1v86h81v-487h-7q-36 -12 -57.5 -36t-21.5 -49q0 -45 49 -45q27 0 47 9zM293 68
q69 0 116 48t47 124t-46 127.5t-117 51.5t-119 -50t-48 -129q0 -74 46.5 -123t120.5 -49z" />
    <glyph glyph-name="Cacute" unicode="&#x106;" horiz-adv-x="724" 
d="M348 782l112 129h93l-122 -129h-83zM411 -5q-151 0 -252.5 95t-101.5 263q0 157 94 260.5t259 103.5q166 0 277 -136l-65 -54q-86 107 -212 107q-119 0 -190.5 -78.5t-71.5 -202.5q0 -125 74 -200.5t189 -75.5q127 0 212 107l65 -55q-108 -134 -277 -134z" />
    <glyph glyph-name="cacute" unicode="&#x107;" horiz-adv-x="521" 
d="M238 557l118 141l91 1l-124 -142h-85zM288 -6q-107 0 -175 69t-68 180q0 110 68.5 180t177.5 70q56 0 108.5 -22.5t87.5 -64.5l-55 -49q-53 62 -137 62q-75 0 -121 -49t-46 -127t46 -126.5t120 -48.5q89 0 139 62l56 -51q-71 -85 -201 -85z" />
    <glyph glyph-name="Ccircumflex" unicode="&#x108;" horiz-adv-x="724" 
d="M252 782l116 124h85l113 -124h-81l-74 78h-2l-74 -78h-83zM411 -5q-151 0 -252.5 95t-101.5 263q0 157 94 260.5t259 103.5q166 0 277 -136l-65 -54q-86 107 -212 107q-119 0 -190.5 -78.5t-71.5 -202.5q0 -125 74 -200.5t189 -75.5q127 0 212 107l65 -55
q-108 -134 -277 -134z" />
    <glyph glyph-name="ccircumflex" unicode="&#x109;" horiz-adv-x="521" 
d="M134 556l115 140h85l111 -140h-81l-72 89h-2l-73 -89h-83zM288 -6q-107 0 -175 69t-68 180q0 110 68.5 180t177.5 70q56 0 108.5 -22.5t87.5 -64.5l-55 -49q-53 62 -137 62q-75 0 -121 -49t-46 -127t46 -126.5t120 -48.5q89 0 139 62l56 -51q-71 -85 -201 -85z" />
    <glyph glyph-name="Cdotaccent" unicode="&#x10a;" horiz-adv-x="724" 
d="M410 792q-25 0 -42 17t-17 41t17 41t42 17t42 -17t17 -41t-17 -41t-42 -17zM411 -5q-151 0 -252.5 95t-101.5 263q0 157 94 260.5t259 103.5q166 0 277 -136l-65 -54q-86 107 -212 107q-119 0 -190.5 -78.5t-71.5 -202.5q0 -125 74 -200.5t189 -75.5q127 0 212 107
l65 -55q-108 -134 -277 -134z" />
    <glyph glyph-name="cdotaccent" unicode="&#x10b;" horiz-adv-x="521" 
d="M290 576q-25 0 -42 17t-17 41t17 41t42 17t42 -17t17 -41t-17 -41t-42 -17zM288 -6q-107 0 -175 69t-68 180q0 110 68.5 180t177.5 70q56 0 108.5 -22.5t87.5 -64.5l-55 -49q-53 62 -137 62q-75 0 -121 -49t-46 -127t46 -126.5t120 -48.5q89 0 139 62l56 -51
q-71 -85 -201 -85z" />
    <glyph glyph-name="Ccaron" unicode="&#x10c;" horiz-adv-x="724" 
d="M365 782l-113 124h82l73 -78h2l75 78h82l-116 -124h-85zM411 -5q-151 0 -252.5 95t-101.5 263q0 157 94 260.5t259 103.5q166 0 277 -136l-65 -54q-86 107 -212 107q-119 0 -190.5 -78.5t-71.5 -202.5q0 -125 74 -200.5t189 -75.5q127 0 212 107l65 -55
q-108 -134 -277 -134z" />
    <glyph glyph-name="ccaron" unicode="&#x10d;" horiz-adv-x="521" 
d="M245 555l-111 139h82l72 -88h2l72 88h83l-115 -139h-85zM288 -6q-107 0 -175 69t-68 180q0 110 68.5 180t177.5 70q56 0 108.5 -22.5t87.5 -64.5l-55 -49q-53 62 -137 62q-75 0 -121 -49t-46 -127t46 -126.5t120 -48.5q89 0 139 62l56 -51q-71 -85 -201 -85z" />
    <glyph glyph-name="Dcaron" unicode="&#x10e;" horiz-adv-x="726" 
d="M303 782l-113 124h82l73 -78h2l75 78h82l-116 -124h-85zM88 0v710h212q167 0 268 -98.5t101 -257.5t-99 -256.5t-267 -97.5h-215zM175 79h123q128 0 204.5 76.5t76.5 198.5t-77 199.5t-201 77.5h-126v-552z" />
    <glyph glyph-name="dcaron" unicode="&#x10f;" horiz-adv-x="686" 
d="M612 588l29 184h80l-49 -184h-60zM283 -6q-103 0 -171 68.5t-68 177.5q0 108 68 180.5t170 72.5q116 0 174 -93h1v336h81v-736h-78v90h-1q-57 -96 -176 -96zM294 68q70 0 118 48t48 124t-46.5 127.5t-118.5 51.5q-71 0 -119.5 -50t-48.5 -129q0 -74 46.5 -123t120.5 -49z
" />
    <glyph glyph-name="Dcroat" unicode="&#x110;" horiz-adv-x="726" 
d="M300 710q167 0 268 -98.5t101 -257.5t-99 -256.5t-267 -97.5h-215v316h-68v77h68v317h212zM298 79q128 0 204.5 76.5t76.5 198.5t-77 199.5t-201 77.5h-126v-238h190v-77h-190v-237h123z" />
    <glyph glyph-name="dcroat" unicode="&#x111;" horiz-adv-x="605" 
d="M600 628v-58h-62v-570h-78v90h-1q-57 -96 -176 -96q-103 0 -171 68.5t-68 177.5q0 108 68 180.5t170 72.5q116 0 174 -93h1v170h-205v58h205v108h81v-108h62zM294 68q70 0 118 48t48 124t-46.5 127.5t-118.5 51.5q-71 0 -119.5 -50t-48.5 -129q0 -74 46.5 -123t120.5 -49
z" />
    <glyph glyph-name="Emacron" unicode="&#x112;" horiz-adv-x="593" 
d="M164 809v67h288v-67h-288zM88 0v710h435v-79h-348v-238h285v-79h-285v-235h369v-79h-456z" />
    <glyph glyph-name="emacron" unicode="&#x113;" horiz-adv-x="552" 
d="M431 665v-69h-288v69h288zM509 252q0 -7 -1 -19t-1 -14h-380q8 -69 53 -110t114 -41q88 0 141 65l57 -48q-71 -91 -201 -91q-109 0 -177.5 69t-68.5 180q0 110 67.5 180t172.5 70q99 0 161.5 -68t62.5 -173zM284 419q-59 0 -101.5 -36t-53.5 -98h299q-9 61 -47 97.5
t-97 36.5z" />
    <glyph glyph-name="Ebreve" unicode="&#x114;" horiz-adv-x="593" 
d="M308 776q-62 0 -100.5 35.5t-43.5 94.5h65q2 -28 23 -47.5t56 -19.5t56 19.5t23 47.5h65q-5 -59 -43.5 -94.5t-100.5 -35.5zM88 0v710h435v-79h-348v-238h285v-79h-285v-235h369v-79h-456z" />
    <glyph glyph-name="ebreve" unicode="&#x115;" horiz-adv-x="552" 
d="M287 552q-63 0 -101.5 37.5t-42.5 104.5h65q2 -33 23 -55.5t56 -22.5t56 22.5t23 55.5h65q-4 -67 -42.5 -104.5t-101.5 -37.5zM509 252q0 -7 -1 -19t-1 -14h-380q8 -69 53 -110t114 -41q88 0 141 65l57 -48q-71 -91 -201 -91q-109 0 -177.5 69t-68.5 180q0 110 67.5 180
t172.5 70q99 0 161.5 -68t62.5 -173zM284 419q-59 0 -101.5 -36t-53.5 -98h299q-9 61 -47 97.5t-97 36.5z" />
    <glyph glyph-name="Edotaccent" unicode="&#x116;" horiz-adv-x="593" 
d="M308 792q-25 0 -42 17t-17 41t17 41t42 17t42 -17t17 -41t-17 -41t-42 -17zM88 0v710h435v-79h-348v-238h285v-79h-285v-235h369v-79h-456z" />
    <glyph glyph-name="edotaccent" unicode="&#x117;" horiz-adv-x="552" 
d="M287 576q-25 0 -42 17t-17 41t17 41t42 17t42 -17t17 -41t-17 -41t-42 -17zM509 252q0 -7 -1 -19t-1 -14h-380q8 -69 53 -110t114 -41q88 0 141 65l57 -48q-71 -91 -201 -91q-109 0 -177.5 69t-68.5 180q0 110 67.5 180t172.5 70q99 0 161.5 -68t62.5 -173zM284 419
q-59 0 -101.5 -36t-53.5 -98h299q-9 61 -47 97.5t-97 36.5z" />
    <glyph glyph-name="Eogonek" unicode="&#x118;" horiz-adv-x="593" 
d="M552 -121l6 -52q-29 -13 -69 -13q-46 0 -72.5 22.5t-26.5 61.5q0 56 64 102h-366v710h435v-79h-348v-238h285v-79h-285v-235h369v-79h-9q-36 -12 -57.5 -36t-21.5 -49q0 -45 49 -45q27 0 47 9z" />
    <glyph glyph-name="eogonek" unicode="&#x119;" horiz-adv-x="551" 
d="M509 252q0 -7 -1 -19t-1 -14h-380q8 -69 53 -110t114 -41q88 0 141 65l57 -48q-55 -70 -142 -86q-74 -35 -74 -80q0 -43 50 -43q28 0 47 9l6 -55q-29 -13 -69 -13q-49 0 -77 23t-28 62q0 49 52 92v2q-95 11 -153.5 78t-58.5 169q0 110 67.5 180t172.5 70q99 0 161.5 -68
t62.5 -173zM284 419q-59 0 -101.5 -36t-53.5 -98h299q-9 61 -47 97.5t-97 36.5z" />
    <glyph glyph-name="Ecaron" unicode="&#x11a;" horiz-adv-x="593" 
d="M263 782l-113 124h82l73 -78h2l75 78h82l-116 -124h-85zM88 0v710h435v-79h-348v-238h285v-79h-285v-235h369v-79h-456z" />
    <glyph glyph-name="ecaron" unicode="&#x11b;" horiz-adv-x="552" 
d="M327 555h-85l-111 139h82l72 -88h2l72 88h83zM509 252q0 -7 -1 -19t-1 -14h-380q8 -69 53 -110t114 -41q88 0 141 65l57 -48q-71 -91 -201 -91q-109 0 -177.5 69t-68.5 180q0 110 67.5 180t172.5 70q99 0 161.5 -68t62.5 -173zM284 419q-59 0 -101.5 -36t-53.5 -98h299
q-9 61 -47 97.5t-97 36.5z" />
    <glyph glyph-name="Gcircumflex" unicode="&#x11c;" horiz-adv-x="759" 
d="M247 782l116 124h85l113 -124h-81l-74 78h-2l-74 -78h-83zM412 -5q-155 0 -255 98t-100 261q0 160 96.5 261.5t255.5 101.5q163 0 270 -111l-61 -54q-85 82 -210 82q-113 0 -186.5 -77t-73.5 -203q0 -122 73 -200.5t191 -78.5q111 0 189 59v153h-206v79h293v-281
q-106 -90 -276 -90z" />
    <glyph glyph-name="gcircumflex" unicode="&#x11d;" horiz-adv-x="600" 
d="M133 556l115 140h85l111 -140h-81l-72 89h-2l-73 -89h-83zM291 -204q-110 0 -198 53l20 72q89 -51 175 -51q79 0 121 40.5t42 105.5v78h-2q-59 -85 -169 -85q-101 0 -168.5 67t-67.5 174q0 105 65.5 174t167.5 69q109 0 171 -84h2v78h81v-451q0 -111 -59 -175.5
t-181 -64.5zM290 84q73 0 118 48t45 122q0 72 -46.5 118t-115.5 46q-73 0 -119 -47t-46 -119q0 -76 46.5 -122t117.5 -46z" />
    <glyph glyph-name="Gbreve" unicode="&#x11e;" horiz-adv-x="759" 
d="M405 776q-62 0 -100.5 35.5t-43.5 94.5h65q2 -28 23 -47.5t56 -19.5t56 19.5t23 47.5h65q-5 -59 -43.5 -94.5t-100.5 -35.5zM412 -5q-155 0 -255 98t-100 261q0 160 96.5 261.5t255.5 101.5q163 0 270 -111l-61 -54q-85 82 -210 82q-113 0 -186.5 -77t-73.5 -203
q0 -122 73 -200.5t191 -78.5q111 0 189 59v153h-206v79h293v-281q-106 -90 -276 -90z" />
    <glyph glyph-name="gbreve" unicode="&#x11f;" horiz-adv-x="600" 
d="M289 552q-63 0 -101.5 37.5t-42.5 104.5h65q2 -33 23 -55.5t56 -22.5t56 22.5t23 55.5h65q-4 -67 -42.5 -104.5t-101.5 -37.5zM291 -204q-110 0 -198 53l20 72q89 -51 175 -51q79 0 121 40.5t42 105.5v78h-2q-59 -85 -169 -85q-101 0 -168.5 67t-67.5 174q0 105 65.5 174
t167.5 69q109 0 171 -84h2v78h81v-451q0 -111 -59 -175.5t-181 -64.5zM290 84q73 0 118 48t45 122q0 72 -46.5 118t-115.5 46q-73 0 -119 -47t-46 -119q0 -76 46.5 -122t117.5 -46z" />
    <glyph glyph-name="Gdotaccent" unicode="&#x120;" horiz-adv-x="759" 
d="M405 792q-25 0 -42 17t-17 41t17 41t42 17t42 -17t17 -41t-17 -41t-42 -17zM412 -5q-155 0 -255 98t-100 261q0 160 96.5 261.5t255.5 101.5q163 0 270 -111l-61 -54q-85 82 -210 82q-113 0 -186.5 -77t-73.5 -203q0 -122 73 -200.5t191 -78.5q111 0 189 59v153h-206v79
h293v-281q-106 -90 -276 -90z" />
    <glyph glyph-name="gdotaccent" unicode="&#x121;" horiz-adv-x="600" 
d="M289 576q-25 0 -42 17t-17 41t17 41t42 17t42 -17t17 -41t-17 -41t-42 -17zM291 -204q-110 0 -198 53l20 72q89 -51 175 -51q79 0 121 40.5t42 105.5v78h-2q-59 -85 -169 -85q-101 0 -168.5 67t-67.5 174q0 105 65.5 174t167.5 69q109 0 171 -84h2v78h81v-451
q0 -111 -59 -175.5t-181 -64.5zM290 84q73 0 118 48t45 122q0 72 -46.5 118t-115.5 46q-73 0 -119 -47t-46 -119q0 -76 46.5 -122t117.5 -46z" />
    <glyph glyph-name="Gcommaaccent" unicode="&#x122;" horiz-adv-x="759" 
d="M412 -5q-155 0 -255 98t-100 261q0 160 96.5 261.5t255.5 101.5q163 0 270 -111l-61 -54q-85 82 -210 82q-113 0 -186.5 -77t-73.5 -203q0 -122 73 -200.5t191 -78.5q111 0 189 59v153h-206v79h293v-281q-106 -90 -276 -90zM333 -212l-20 49q33 7 46 22.5t13 41.5
q0 17 -5 45h74q4 -20 4 -49q0 -48 -30.5 -76t-81.5 -33z" />
    <glyph glyph-name="gcommaaccent" unicode="&#x123;" horiz-adv-x="600" 
d="M367 715l20 -49q-33 -7 -46 -22.5t-13 -41.5q0 -17 5 -45h-74q-4 20 -4 49q0 48 30.5 76t81.5 33zM291 -204q-110 0 -198 53l20 72q89 -51 175 -51q79 0 121 40.5t42 105.5v78h-2q-59 -85 -169 -85q-101 0 -168.5 67t-67.5 174q0 105 65.5 174t167.5 69q109 0 171 -84h2
v78h81v-451q0 -111 -59 -175.5t-181 -64.5zM290 84q73 0 118 48t45 122q0 72 -46.5 118t-115.5 46q-73 0 -119 -47t-46 -119q0 -76 46.5 -122t117.5 -46z" />
    <glyph glyph-name="Hcircumflex" unicode="&#x124;" horiz-adv-x="721" 
d="M204 782l116 124h85l113 -124h-81l-74 78h-2l-74 -78h-83zM88 0v710h87v-333h371v333h87v-710h-87v298h-371v-298h-87z" />
    <glyph glyph-name="hcircumflex" unicode="&#x125;" horiz-adv-x="581" 
d="M75 793l116 124h85l113 -124h-81l-74 78h-2l-74 -78h-83zM76 0v736h81v-334h1q60 91 180 91q82 0 129.5 -50t47.5 -151v-292h-81v269q0 150 -120 150q-73 0 -115 -46t-42 -128v-245h-81z" />
    <glyph glyph-name="Hbar" unicode="&#x126;" horiz-adv-x="722" 
d="M694 586v-61h-60v-525h-87v298h-371v-298h-87v525h-63v61h63v124h87v-124h371v124h87v-124h60zM547 377v148h-371v-148h371z" />
    <glyph glyph-name="hbar" unicode="&#x127;" horiz-adv-x="581" 
d="M338 493q82 0 129.5 -50t47.5 -151v-292h-81v269q0 150 -120 150q-73 0 -115 -46t-42 -128v-245h-81v570h-71v58h71v108h81v-108h189v-58h-189v-168h1q60 91 180 91z" />
    <glyph glyph-name="Itilde" unicode="&#x128;" horiz-adv-x="273" 
d="M214 782q-35 0 -85 33q-41 25 -63 25q-35 0 -58 -55l-52 22q32 94 104 94q36 0 85 -30q4 -2 12.5 -7.5t13 -8t12 -6t13.5 -5t13 -1.5q34 0 54 55l52 -17q-30 -99 -101 -99zM93 0v710h87v-710h-87z" />
    <glyph glyph-name="itilde" unicode="&#x129;" horiz-adv-x="245" 
d="M201 562q-35 0 -88 36q-37 24 -58 24q-39 0 -60 -56l-52 23q31 98 104 98q38 0 81 -29l12 -8t13.5 -8.5t11.5 -6t13.5 -5t13.5 -1.5q38 0 58 55l51 -17q-13 -50 -40 -77.5t-60 -27.5zM82 0v487h81v-487h-81z" />
    <glyph glyph-name="Imacron" unicode="&#x12a;" horiz-adv-x="273" 
d="M-8 809v67h288v-67h-288zM93 0v710h87v-710h-87z" />
    <glyph glyph-name="imacron" unicode="&#x12b;" horiz-adv-x="245" 
d="M-21 596v69h288v-69h-288zM82 0v487h81v-487h-81z" />
    <glyph glyph-name="Ibreve" unicode="&#x12c;" horiz-adv-x="273" 
d="M136 776q-62 0 -100.5 35.5t-43.5 94.5h65q2 -28 23 -47.5t56 -19.5t56 19.5t23 47.5h65q-5 -59 -43.5 -94.5t-100.5 -35.5zM93 0v710h87v-710h-87z" />
    <glyph glyph-name="ibreve" unicode="&#x12d;" horiz-adv-x="245" 
d="M123 554q-54 0 -91 37t-41 103h65q2 -37 19 -59t48 -22q30 0 47 22t19 59h65q-4 -64 -39 -102t-92 -38zM82 0v487h81v-487h-81z" />
    <glyph glyph-name="Iogonek" unicode="&#x12e;" horiz-adv-x="273" 
d="M184 -121l6 -52q-29 -13 -69 -13q-46 0 -72.5 22.5t-26.5 61.5q0 27 18.5 56t52.5 51v705h87v-710h-13q-36 -12 -57.5 -36t-21.5 -49q0 -45 49 -45q28 0 47 9z" />
    <glyph glyph-name="iogonek" unicode="&#x12f;" horiz-adv-x="245" 
d="M123 576q-25 0 -42 17t-17 41t17 41t42 17t42 -17t17 -41t-17 -41t-42 -17zM126 -130q28 0 47 9l6 -52q-29 -13 -69 -13q-46 0 -72.5 22.5t-26.5 61.5q0 27 18.5 56t52.5 51v482h81v-487h-7q-36 -12 -57.5 -36t-21.5 -49q0 -45 49 -45z" />
    <glyph glyph-name="Idotaccent" unicode="&#x130;" horiz-adv-x="273" 
d="M136 792q-25 0 -42 17t-17 41t17 41t42 17t42 -17t17 -41t-17 -41t-42 -17zM93 0v710h87v-710h-87z" />
    <glyph glyph-name="dotlessi" unicode="&#x131;" horiz-adv-x="245" 
d="M82 0v487h81v-487h-81z" />
    <glyph glyph-name="IJ" unicode="&#x132;" horiz-adv-x="766" 
d="M93 0v710h87v-710h-87zM490 -5q-50 0 -101.5 23.5t-86.5 67.5l50 64q63 -72 134 -72q116 0 116 155v477h88v-479q0 -236 -200 -236z" />
    <glyph glyph-name="ij" unicode="&#x133;" horiz-adv-x="469" 
d="M123 576q-25 0 -42 17t-17 41t17 41t42 17t42 -17t17 -41t-17 -41t-42 -17zM359 576q-25 0 -42 17t-17 41t17 41t42 17t42 -17t17 -41t-17 -41t-42 -17zM82 0v487h81v-487h-81zM277 -204q-46 0 -84 16l13 72q24 -15 55 -15q58 0 58 80v538h81v-538q0 -71 -32.5 -112
t-90.5 -41z" />
    <glyph glyph-name="Jcircumflex" unicode="&#x134;" horiz-adv-x="493" 
d="M215 782l116 124h85l113 -124h-81l-74 78h-2l-74 -78h-83zM217 -5q-50 0 -101.5 23.5t-86.5 67.5l50 64q63 -72 134 -72q116 0 116 155v477h88v-479q0 -236 -200 -236z" />
    <glyph glyph-name="jcircumflex" unicode="&#x135;" horiz-adv-x="224" 
d="M-42 556l115 140h85l111 -140h-81l-72 89h-2l-73 -89h-83zM32 -204q-46 0 -84 16l13 72q24 -15 55 -15q58 0 58 80v538h81v-538q0 -71 -32.5 -112t-90.5 -41z" />
    <glyph glyph-name="Kcommaaccent" unicode="&#x136;" horiz-adv-x="646" 
d="M88 0v710h87v-389h2l322 389h112l-275 -324l282 -386h-109l-231 318l-103 -121v-197h-87zM257 -212l-20 49q33 7 46 22.5t13 41.5q0 17 -5 45h74q4 -20 4 -49q0 -48 -30.5 -76t-81.5 -33z" />
    <glyph glyph-name="kcommaaccent" unicode="&#x137;" horiz-adv-x="517" 
d="M76 0v736h81v-515l1 -1l239 267h98l-182 -201l184 -286h-93l-147 229l-100 -108v-121h-81zM200 -212l-20 49q33 7 46 22.5t13 41.5q0 17 -5 45h74q4 -20 4 -49q0 -48 -30.5 -76t-81.5 -33z" />
    <glyph glyph-name="kgreenlandic" unicode="&#x138;" horiz-adv-x="539" 
d="M76 0v487h81v-268h1l249 268h102l-199 -211l210 -276h-100l-164 222l-99 -105v-117h-81z" />
    <glyph glyph-name="Lacute" unicode="&#x139;" horiz-adv-x="557" 
d="M191 782l112 129h93l-122 -129h-83zM88 0v710h87v-631h351v-79h-438z" />
    <glyph glyph-name="lacute" unicode="&#x13a;" horiz-adv-x="245" 
d="M80 795l112 129h93l-122 -129h-83zM82 0v736h81v-736h-81z" />
    <glyph glyph-name="Lcommaaccent" unicode="&#x13b;" horiz-adv-x="557" 
d="M88 0v710h87v-631h351v-79h-438zM227 -212l-20 49q33 7 46 22.5t13 41.5q0 17 -5 45h74q4 -20 4 -49q0 -48 -30.5 -76t-81.5 -33z" />
    <glyph glyph-name="lcommaaccent" unicode="&#x13c;" horiz-adv-x="245" 
d="M82 0v736h81v-736h-81zM50 -212l-20 49q33 7 46 22.5t13 41.5q0 17 -5 45h74q4 -20 4 -49q0 -48 -30.5 -76t-81.5 -33z" />
    <glyph glyph-name="Lcaron" unicode="&#x13d;" horiz-adv-x="557" 
d="M304 587l29 184h80l-49 -184h-60zM88 0v710h87v-631h351v-79h-438z" />
    <glyph glyph-name="lcaron" unicode="&#x13e;" horiz-adv-x="310" 
d="M237 588l29 184h80l-49 -184h-60zM82 0v736h81v-736h-81z" />
    <glyph glyph-name="Ldot" unicode="&#x13f;" horiz-adv-x="557" 
d="M88 0v710h87v-631h351v-79h-438zM416 280q-25 0 -42.5 17t-17.5 42t17.5 42t42.5 17t42 -17t17 -42t-17 -42t-42 -17z" />
    <glyph glyph-name="ldot" unicode="&#x140;" horiz-adv-x="370" 
d="M82 0v736h81v-736h-81zM307 196q-25 0 -42.5 17t-17.5 42t17.5 42t42.5 17t42 -17t17 -42t-17 -42t-42 -17z" />
    <glyph glyph-name="Lslash" unicode="&#x141;" horiz-adv-x="572" 
d="M189 79h351v-79h-438v281l-80 -34v73l80 35v355h87v-318l119 52v-74l-119 -51v-240z" />
    <glyph glyph-name="lslash" unicode="&#x142;" horiz-adv-x="274" 
d="M255 404v-66l-74 -31v-307h-81v273l-80 -34v66l80 34v397h81v-363z" />
    <glyph glyph-name="Nacute" unicode="&#x143;" horiz-adv-x="751" 
d="M285 782l112 129h93l-122 -129h-83zM88 0v710h86l401 -565h1v565h87v-710h-89l-397 559h-2v-559h-87z" />
    <glyph glyph-name="nacute" unicode="&#x144;" horiz-adv-x="576" 
d="M232 557l118 141l91 1l-124 -142h-85zM76 0v487h81v-88h1q61 94 177 94q81 0 128 -51.5t47 -152.5v-289h-81v266q0 153 -120 153q-70 0 -111 -47t-41 -129v-243h-81z" />
    <glyph glyph-name="Ncommaaccent" unicode="&#x145;" horiz-adv-x="751" 
d="M88 0v710h86l401 -565h1v565h87v-710h-89l-397 559h-2v-559h-87zM302 -212l-20 49q33 7 46 22.5t13 41.5q0 17 -5 45h74q4 -20 4 -49q0 -48 -30.5 -76t-81.5 -33z" />
    <glyph glyph-name="ncommaaccent" unicode="&#x146;" horiz-adv-x="576" 
d="M76 0v487h81v-88h1q61 94 177 94q81 0 128 -51.5t47 -152.5v-289h-81v266q0 153 -120 153q-70 0 -111 -47t-41 -129v-243h-81zM226 -212l-20 49q33 7 46 22.5t13 41.5q0 17 -5 45h74q4 -20 4 -49q0 -48 -30.5 -76t-81.5 -33z" />
    <glyph glyph-name="Ncaron" unicode="&#x147;" horiz-adv-x="751" 
d="M330 782l-113 124h82l73 -78h2l75 78h82l-116 -124h-85zM88 0v710h86l401 -565h1v565h87v-710h-89l-397 559h-2v-559h-87z" />
    <glyph glyph-name="ncaron" unicode="&#x148;" horiz-adv-x="576" 
d="M246 555l-111 139h82l72 -88h2l72 88h83l-115 -139h-85zM76 0v487h81v-88h1q61 94 177 94q81 0 128 -51.5t47 -152.5v-289h-81v266q0 153 -120 153q-70 0 -111 -47t-41 -129v-243h-81z" />
    <glyph glyph-name="napostrophe" unicode="&#x149;" horiz-adv-x="647" 
d="M3 516l29 194h79l-48 -194h-60zM147 0v487h81v-88h1q61 94 177 94q81 0 128 -51.5t47 -152.5v-289h-81v266q0 153 -120 153q-70 0 -111 -47t-41 -129v-243h-81z" />
    <glyph glyph-name="Eng" unicode="&#x14a;" horiz-adv-x="751" 
d="M576 710h87v-721q0 -193 -180 -193q-43 0 -82 14l6 73q26 -13 63 -13q106 0 106 116v13l-399 559h-2v-558h-87v710h85l401 -566l2 1v565z" />
    <glyph glyph-name="eng" unicode="&#x14b;" horiz-adv-x="573" 
d="M344 -204q-36 0 -71 14l6 66q29 -11 55 -11q50 0 71 24t21 83v294q0 153 -119 153q-68 0 -109 -47t-41 -129v-243h-81v487h81v-88h1q61 94 174 94q81 0 128 -51.5t47 -152.5v-310q0 -93 -39.5 -138t-123.5 -45z" />
    <glyph glyph-name="Omacron" unicode="&#x14c;" horiz-adv-x="825" 
d="M270 809v67h288v-67h-288zM414 -6q-156 0 -256.5 101.5t-100.5 259.5t101 260t256 102q152 0 253 -101t101 -261t-101 -260.5t-253 -100.5zM414 76q112 0 187.5 78.5t75.5 200.5t-75.5 201t-187.5 79q-115 0 -190.5 -79.5t-75.5 -200.5q0 -120 75.5 -199.5t190.5 -79.5z
" />
    <glyph glyph-name="omacron" unicode="&#x14d;" horiz-adv-x="593" 
d="M153 596v69h288v-69h-288zM297 -6q-112 0 -182 71t-70 178t70 178.5t182 71.5q109 0 180 -70t71 -180t-71 -179.5t-180 -69.5zM297 68q71 0 119.5 49t48.5 126t-48.5 126.5t-119.5 49.5q-75 0 -122 -51t-47 -125t47.5 -124.5t121.5 -50.5z" />
    <glyph glyph-name="Obreve" unicode="&#x14e;" horiz-adv-x="825" 
d="M414 776q-62 0 -100.5 35.5t-43.5 94.5h65q2 -28 23 -47.5t56 -19.5t56 19.5t23 47.5h65q-5 -59 -43.5 -94.5t-100.5 -35.5zM414 -6q-156 0 -256.5 101.5t-100.5 259.5t101 260t256 102q152 0 253 -101t101 -261t-101 -260.5t-253 -100.5zM414 76q112 0 187.5 78.5
t75.5 200.5t-75.5 201t-187.5 79q-115 0 -190.5 -79.5t-75.5 -200.5q0 -120 75.5 -199.5t190.5 -79.5z" />
    <glyph glyph-name="obreve" unicode="&#x14f;" horiz-adv-x="593" 
d="M297 552q-63 0 -101.5 37.5t-42.5 104.5h65q2 -33 23 -55.5t56 -22.5t56 22.5t23 55.5h65q-4 -67 -42.5 -104.5t-101.5 -37.5zM297 -6q-112 0 -182 71t-70 178t70 178.5t182 71.5q109 0 180 -70t71 -180t-71 -179.5t-180 -69.5zM297 68q71 0 119.5 49t48.5 126
t-48.5 126.5t-119.5 49.5q-75 0 -122 -51t-47 -125t47.5 -124.5t121.5 -50.5z" />
    <glyph glyph-name="Ohungarumlaut" unicode="&#x150;" horiz-adv-x="825" 
d="M290 781l118 141l85 1l-124 -142h-79zM458 781l117 141l85 1l-124 -142h-78zM414 -6q-156 0 -256.5 101.5t-100.5 259.5t101 260t256 102q152 0 253 -101t101 -261t-101 -260.5t-253 -100.5zM414 76q112 0 187.5 78.5t75.5 200.5t-75.5 201t-187.5 79
q-115 0 -190.5 -79.5t-75.5 -200.5q0 -120 75.5 -199.5t190.5 -79.5z" />
    <glyph glyph-name="ohungarumlaut" unicode="&#x151;" horiz-adv-x="593" 
d="M173 557l118 141l85 1l-124 -142h-79zM341 557l117 141l85 1l-124 -142h-78zM297 -6q-112 0 -182 71t-70 178t70 178.5t182 71.5q109 0 180 -70t71 -180t-71 -179.5t-180 -69.5zM297 68q71 0 119.5 49t48.5 126t-48.5 126.5t-119.5 49.5q-75 0 -122 -51t-47 -125
t47.5 -124.5t121.5 -50.5z" />
    <glyph glyph-name="OE" unicode="&#x152;" horiz-adv-x="954" 
d="M535 79h370v-79h-489q-158 0 -258.5 102.5t-100.5 253.5q0 152 100.5 253.5t258.5 100.5h469v-79h-350v-239h291v-79h-291v-234zM416 81l36 1v547h-36q-113 1 -190.5 -77t-77.5 -196t77.5 -196.5t190.5 -78.5z" />
    <glyph glyph-name="oe" unicode="&#x153;" horiz-adv-x="815" 
d="M785 251q0 -19 -2 -31h-329q5 -71 42 -111.5t100 -40.5q72 0 118 65l57 -48q-64 -91 -179 -91q-126 0 -182 107h-2q-21 -49 -66.5 -78t-98.5 -29q-97 0 -154 68t-57 180q0 109 58.5 180t152.5 71q59 0 101 -29.5t64 -78.5h2q54 108 179 108q87 0 141.5 -68t54.5 -174z
M242 67q54 0 91 49.5t37 126.5t-35.5 126.5t-88.5 49.5q-57 0 -94 -50t-37 -126q0 -79 34.5 -127.5t92.5 -48.5zM455 283h249q-5 63 -36 99.5t-81 36.5q-57 0 -90.5 -36.5t-41.5 -99.5z" />
    <glyph glyph-name="Racute" unicode="&#x154;" horiz-adv-x="642" 
d="M228 782l112 129h93l-122 -129h-83zM88 0v710h252q118 0 176.5 -60t58.5 -160q0 -175 -177 -211l196 -279h-104l-188 271h-127v-271h-87zM175 350h141q85 0 127 38.5t42 103.5q0 67 -41.5 103t-115.5 36h-153v-281z" />
    <glyph glyph-name="racute" unicode="&#x155;" horiz-adv-x="353" 
d="M123 557l118 141l91 1l-124 -142h-85zM76 0v487h81v-89h2q56 95 158 95q13 0 20 -1v-90q-24 2 -32 2q-68 0 -108 -47t-40 -122v-235h-81z" />
    <glyph glyph-name="Rcommaaccent" unicode="&#x156;" horiz-adv-x="642" 
d="M88 0v710h252q118 0 176.5 -60t58.5 -160q0 -175 -177 -211l196 -279h-104l-188 271h-127v-271h-87zM175 350h141q85 0 127 38.5t42 103.5q0 67 -41.5 103t-115.5 36h-153v-281zM243 -212l-20 49q33 7 46 22.5t13 41.5q0 17 -5 45h74q4 -20 4 -49q0 -48 -30.5 -76
t-81.5 -33z" />
    <glyph glyph-name="rcommaaccent" unicode="&#x157;" horiz-adv-x="353" 
d="M76 0v487h81v-89h2q56 95 158 95q13 0 20 -1v-90q-24 2 -32 2q-68 0 -108 -47t-40 -122v-235h-81zM45 -212l-20 49q33 7 46 22.5t13 41.5q0 17 -5 45h74q4 -20 4 -49q0 -48 -30.5 -76t-81.5 -33z" />
    <glyph glyph-name="Rcaron" unicode="&#x158;" horiz-adv-x="642" 
d="M273 782l-113 124h82l73 -78h2l75 78h82l-116 -124h-85zM88 0v710h252q118 0 176.5 -60t58.5 -160q0 -175 -177 -211l196 -279h-104l-188 271h-127v-271h-87zM175 350h141q85 0 127 38.5t42 103.5q0 67 -41.5 103t-115.5 36h-153v-281z" />
    <glyph glyph-name="rcaron" unicode="&#x159;" horiz-adv-x="353" 
d="M167 555l-111 139h82l72 -88h2l72 88h83l-115 -139h-85zM76 0v487h81v-89h2q56 95 158 95q13 0 20 -1v-90q-24 2 -32 2q-68 0 -108 -47t-40 -122v-235h-81z" />
    <glyph glyph-name="Sacute" unicode="&#x15a;" horiz-adv-x="580" 
d="M228 782l112 129h93l-122 -129h-83zM293 -6q-148 0 -251 110l56 67q37 -46 89.5 -71t106.5 -25q66 0 106 29t40 80q0 60 -59 94q-25 14 -100 42q-39 14 -63.5 24.5t-56 29.5t-49 39t-30.5 50t-13 66q0 79 62.5 133.5t154.5 54.5q121 0 224 -83l-53 -69q-87 72 -171 72
q-53 0 -89.5 -27.5t-37.5 -76.5q0 -25 9.5 -43t34.5 -33.5t45.5 -25t62.5 -25.5q108 -43 141 -64q78 -53 79 -148q0 -93 -69.5 -146.5t-168.5 -53.5z" />
    <glyph glyph-name="sacute" unicode="&#x15b;" horiz-adv-x="437" 
d="M169 557l118 141l91 1l-124 -142h-85zM223 -6q-111 0 -190 69l41 62q61 -59 149 -59q43 0 68 18.5t25 47.5q0 33 -45 54q-12 5 -71 27q-35 12 -57 23t-44.5 28t-33.5 41.5t-11 56.5q0 56 45.5 93.5t114.5 37.5q94 0 168 -60l-42 -64q-56 52 -129 52q-30 0 -52.5 -16
t-22.5 -43q0 -26 23 -42.5t69 -33.5q95 -37 118 -51q53 -35 52 -102q0 -60 -45.5 -99.5t-129.5 -39.5z" />
    <glyph glyph-name="Scircumflex" unicode="&#x15c;" horiz-adv-x="580" 
d="M130 782l116 124h85l113 -124h-81l-74 78h-2l-74 -78h-83zM293 -6q-148 0 -251 110l56 67q37 -46 89.5 -71t106.5 -25q66 0 106 29t40 80q0 60 -59 94q-25 14 -100 42q-39 14 -63.5 24.5t-56 29.5t-49 39t-30.5 50t-13 66q0 79 62.5 133.5t154.5 54.5q121 0 224 -83
l-53 -69q-87 72 -171 72q-53 0 -89.5 -27.5t-37.5 -76.5q0 -25 9.5 -43t34.5 -33.5t45.5 -25t62.5 -25.5q108 -43 141 -64q78 -53 79 -148q0 -93 -69.5 -146.5t-168.5 -53.5z" />
    <glyph glyph-name="scircumflex" unicode="&#x15d;" horiz-adv-x="437" 
d="M68 556l115 140h85l111 -140h-81l-72 89h-2l-73 -89h-83zM223 -6q-111 0 -190 69l41 62q61 -59 149 -59q43 0 68 18.5t25 47.5q0 33 -45 54q-12 5 -71 27q-35 12 -57 23t-44.5 28t-33.5 41.5t-11 56.5q0 56 45.5 93.5t114.5 37.5q94 0 168 -60l-42 -64q-56 52 -129 52
q-30 0 -52.5 -16t-22.5 -43q0 -26 23 -42.5t69 -33.5q95 -37 118 -51q53 -35 52 -102q0 -60 -45.5 -99.5t-129.5 -39.5z" />
    <glyph glyph-name="Scedilla" unicode="&#x15e;" horiz-adv-x="580" 
d="M304 -6l-12 -25v-2q40 -2 64 -22.5t24 -56.5q0 -34 -27 -55t-80 -21q-26 0 -56 6v44q21 -7 48 -7q23 0 39.5 9.5t16.5 27.5t-21.5 30t-61.5 12l1 30l15 32q-124 15 -212 108l56 67q37 -46 89.5 -71t106.5 -25q66 0 106 29t40 80q0 60 -59 94q-25 14 -100 42
q-39 14 -63.5 24.5t-56 29.5t-49 39t-30.5 50t-13 66q0 79 62.5 133.5t154.5 54.5q121 0 224 -83l-53 -69q-87 72 -171 72q-53 0 -89.5 -27.5t-37.5 -76.5q0 -25 9.5 -43t34.5 -33.5t45.5 -25t62.5 -25.5q108 -43 141 -64q78 -53 79 -148q0 -90 -66 -143.5t-161 -56.5z" />
    <glyph glyph-name="scedilla" unicode="&#x15f;" horiz-adv-x="437" 
d="M228 286q95 -37 118 -51q53 -35 52 -102q0 -60 -45.5 -99.5t-129.5 -39.5h-3l-11 -25v-2q40 -2 64 -22.5t24 -56.5q0 -34 -27 -55t-80 -21q-26 0 -56 6v44q21 -7 48 -7q23 0 39.5 9.5t16.5 27.5t-21.5 30t-61.5 12l1 30l15 34q-79 13 -138 65l41 62q61 -59 149 -59
q43 0 68 18.5t25 47.5q0 33 -45 54q-12 5 -71 27q-35 12 -57 23t-44.5 28t-33.5 41.5t-11 56.5q0 56 45.5 93.5t114.5 37.5q94 0 168 -60l-42 -64q-56 52 -129 52q-30 0 -52.5 -16t-22.5 -43q0 -26 23 -42.5t69 -33.5z" />
    <glyph glyph-name="Scaron" unicode="&#x160;" horiz-adv-x="580" 
d="M243 782l-113 124h82l73 -78h2l75 78h82l-116 -124h-85zM293 -6q-148 0 -251 110l56 67q37 -46 89.5 -71t106.5 -25q66 0 106 29t40 80q0 60 -59 94q-25 14 -100 42q-39 14 -63.5 24.5t-56 29.5t-49 39t-30.5 50t-13 66q0 79 62.5 133.5t154.5 54.5q121 0 224 -83
l-53 -69q-87 72 -171 72q-53 0 -89.5 -27.5t-37.5 -76.5q0 -25 9.5 -43t34.5 -33.5t45.5 -25t62.5 -25.5q108 -43 141 -64q78 -53 79 -148q0 -93 -69.5 -146.5t-168.5 -53.5z" />
    <glyph glyph-name="scaron" unicode="&#x161;" horiz-adv-x="437" 
d="M179 555l-111 139h82l72 -88h2l72 88h83l-115 -139h-85zM223 -6q-111 0 -190 69l41 62q61 -59 149 -59q43 0 68 18.5t25 47.5q0 33 -45 54q-12 5 -71 27q-35 12 -57 23t-44.5 28t-33.5 41.5t-11 56.5q0 56 45.5 93.5t114.5 37.5q94 0 168 -60l-42 -64q-56 52 -129 52
q-30 0 -52.5 -16t-22.5 -43q0 -26 23 -42.5t69 -33.5q95 -37 118 -51q53 -35 52 -102q0 -60 -45.5 -99.5t-129.5 -39.5z" />
    <glyph glyph-name="uni0162" unicode="&#x162;" horiz-adv-x="573" 
d="M292 0l-14 -31v-2q40 -2 64 -22.5t24 -56.5q0 -34 -27 -55t-80 -21q-26 0 -56 6v44q21 -7 48 -7q23 0 39.5 9.5t16.5 27.5t-21.5 30t-61.5 12l1 30l17 38v629h-212v79h514v-79h-215v-631h-37z" />
    <glyph glyph-name="uni0163" unicode="&#x163;" horiz-adv-x="361" 
d="M199 -33q40 -2 64 -22.5t24 -56.5q0 -34 -27 -55t-80 -21q-26 0 -56 6v44q21 -7 48 -7q23 0 39.5 9.5t16.5 27.5t-21.5 30t-61.5 12l1 30l17 38q-76 25 -76 143v272h-63v70h63v166l81 9v-175h161v-70h-161v-260q0 -46 13 -66.5t46 -20.5q37 0 83 25l21 -71
q-51 -30 -118 -30h-3l-11 -25v-2z" />
    <glyph glyph-name="Tcaron" unicode="&#x164;" horiz-adv-x="573" 
d="M240 782l-113 124h82l73 -78h2l75 78h82l-116 -124h-85zM242 0v631h-212v79h514v-79h-215v-631h-87z" />
    <glyph glyph-name="tcaron" unicode="&#x165;" horiz-adv-x="361" 
d="M239 588l29 184h80l-49 -184h-60zM213 -6q-126 0 -126 151v272h-63v70h63v166l81 9v-175h161v-70h-161v-260q0 -46 13 -66.5t46 -20.5q37 0 83 25l21 -71q-51 -30 -118 -30z" />
    <glyph glyph-name="Tbar" unicode="&#x166;" horiz-adv-x="573" 
d="M544 631h-215v-247h121v-67h-121v-317h-87v317h-117v67h117v247h-212v79h514v-79z" />
    <glyph glyph-name="tbar" unicode="&#x167;" horiz-adv-x="361" 
d="M310 95l21 -71q-51 -30 -118 -30q-126 0 -126 151v98h-53v58h53v116h-63v70h63v166l81 9v-175h161v-70h-161v-116h136v-58h-136v-86q0 -46 13 -66.5t46 -20.5q37 0 83 25z" />
    <glyph glyph-name="Utilde" unicode="&#x168;" horiz-adv-x="706" 
d="M431 782q-35 0 -85 33q-41 25 -63 25q-35 0 -58 -55l-52 22q32 94 104 94q36 0 85 -30q4 -2 12.5 -7.5t13 -8t12 -6t13.5 -5t13 -1.5q34 0 54 55l52 -17q-30 -99 -101 -99zM353 -6q-124 0 -199.5 78.5t-75.5 216.5v421h87v-415q0 -99 51 -159t137 -60q84 0 136.5 59
t52.5 160v415h87v-421q0 -136 -74.5 -215.5t-201.5 -79.5z" />
    <glyph glyph-name="utilde" unicode="&#x169;" horiz-adv-x="562" 
d="M357 562q-35 0 -88 36q-37 24 -58 24q-39 0 -60 -56l-52 23q31 98 104 98q38 0 81 -29l12 -8t13.5 -8.5t11.5 -6t13.5 -5t13.5 -1.5q38 0 58 55l51 -17q-13 -50 -40 -77.5t-60 -27.5zM248 -6q-87 0 -135 50.5t-48 152.5v290h81v-267q0 -80 29.5 -116t89.5 -36
q61 0 103 49.5t42 133.5v236h81v-487h-81v84h-1q-27 -43 -69.5 -66.5t-91.5 -23.5z" />
    <glyph glyph-name="Umacron" unicode="&#x16a;" horiz-adv-x="706" 
d="M209 809v67h288v-67h-288zM353 -6q-124 0 -199.5 78.5t-75.5 216.5v421h87v-415q0 -99 51 -159t137 -60q84 0 136.5 59t52.5 160v415h87v-421q0 -136 -74.5 -215.5t-201.5 -79.5z" />
    <glyph glyph-name="umacron" unicode="&#x16b;" horiz-adv-x="562" 
d="M135 596v69h288v-69h-288zM248 -6q-87 0 -135 50.5t-48 152.5v290h81v-267q0 -80 29.5 -116t89.5 -36q61 0 103 49.5t42 133.5v236h81v-487h-81v84h-1q-27 -43 -69.5 -66.5t-91.5 -23.5z" />
    <glyph glyph-name="Ubreve" unicode="&#x16c;" horiz-adv-x="706" 
d="M353 776q-62 0 -100.5 35.5t-43.5 94.5h65q2 -28 23 -47.5t56 -19.5t56 19.5t23 47.5h65q-5 -59 -43.5 -94.5t-100.5 -35.5zM353 -6q-124 0 -199.5 78.5t-75.5 216.5v421h87v-415q0 -99 51 -159t137 -60q84 0 136.5 59t52.5 160v415h87v-421q0 -136 -74.5 -215.5
t-201.5 -79.5z" />
    <glyph glyph-name="ubreve" unicode="&#x16d;" horiz-adv-x="562" 
d="M279 552q-63 0 -101.5 37.5t-42.5 104.5h65q2 -33 23 -55.5t56 -22.5t56 22.5t23 55.5h65q-4 -67 -42.5 -104.5t-101.5 -37.5zM248 -6q-87 0 -135 50.5t-48 152.5v290h81v-267q0 -80 29.5 -116t89.5 -36q61 0 103 49.5t42 133.5v236h81v-487h-81v84h-1
q-27 -43 -69.5 -66.5t-91.5 -23.5z" />
    <glyph glyph-name="Uring" unicode="&#x16e;" horiz-adv-x="706" 
d="M352 760q-39 0 -67 27.5t-28 66.5t27.5 66.5t67.5 27.5q41 0 69 -27t28 -67q0 -38 -28 -66t-69 -28zM352 813q19 0 31.5 12.5t12.5 29.5t-12.5 29.5t-31.5 12.5q-17 0 -29.5 -12.5t-12.5 -29.5q0 -18 12.5 -30t29.5 -12zM353 -6q-124 0 -199.5 78.5t-75.5 216.5v421h87
v-415q0 -99 51 -159t137 -60q84 0 136.5 59t52.5 160v415h87v-421q0 -136 -74.5 -215.5t-201.5 -79.5z" />
    <glyph glyph-name="uring" unicode="&#x16f;" horiz-adv-x="562" 
d="M278 545q-39 0 -67 27.5t-28 66.5t27.5 66.5t67.5 27.5q41 0 69 -27t28 -67q0 -38 -28 -66t-69 -28zM278 598q19 0 31.5 12.5t12.5 29.5t-12.5 29.5t-31.5 12.5q-17 0 -29.5 -12.5t-12.5 -29.5q0 -18 12.5 -30t29.5 -12zM248 -6q-87 0 -135 50.5t-48 152.5v290h81v-267
q0 -80 29.5 -116t89.5 -36q61 0 103 49.5t42 133.5v236h81v-487h-81v84h-1q-27 -43 -69.5 -66.5t-91.5 -23.5z" />
    <glyph glyph-name="Uhungarumlaut" unicode="&#x170;" horiz-adv-x="706" 
d="M229 781l118 141l85 1l-124 -142h-79zM397 781l117 141l85 1l-124 -142h-78zM353 -6q-124 0 -199.5 78.5t-75.5 216.5v421h87v-415q0 -99 51 -159t137 -60q84 0 136.5 59t52.5 160v415h87v-421q0 -136 -74.5 -215.5t-201.5 -79.5z" />
    <glyph glyph-name="uhungarumlaut" unicode="&#x171;" horiz-adv-x="562" 
d="M155 557l118 141l85 1l-124 -142h-79zM323 557l117 141l85 1l-124 -142h-78zM248 -6q-87 0 -135 50.5t-48 152.5v290h81v-267q0 -80 29.5 -116t89.5 -36q61 0 103 49.5t42 133.5v236h81v-487h-81v84h-1q-27 -43 -69.5 -66.5t-91.5 -23.5z" />
    <glyph glyph-name="Uogonek" unicode="&#x172;" horiz-adv-x="706" 
d="M542 710h87v-421q0 -115 -54 -190.5t-148 -96.5q-36 -14 -57 -36.5t-21 -46.5q0 -46 49 -46q28 0 47 9l5 -52q-29 -13 -68 -13q-46 0 -73 23t-27 62q0 48 51 91v2q-116 6 -185.5 84t-69.5 210v421h87v-415q0 -99 51 -159t137 -60q84 0 136.5 59t52.5 160v415z" />
    <glyph glyph-name="uogonek" unicode="&#x173;" horiz-adv-x="562" 
d="M500 -121l6 -52q-29 -13 -69 -13q-46 0 -72.5 22.5t-26.5 61.5q0 27 19 56t53 51v79h-1q-27 -43 -69.5 -66.5t-91.5 -23.5q-87 0 -135 50.5t-48 152.5v290h81v-267q0 -80 29.5 -116t89.5 -36q61 0 103 49.5t42 133.5v236h81v-487h-8q-36 -12 -57.5 -36t-21.5 -49
q0 -45 49 -45q27 0 47 9z" />
    <glyph glyph-name="Wcircumflex" unicode="&#x174;" horiz-adv-x="1020" 
d="M353 782l116 124h85l113 -124h-81l-74 78h-2l-74 -78h-83zM259 0l-226 710h93l175 -569h2l160 569h95l159 -568h2l176 568h92l-227 -710h-84l-164 583h-2l-167 -583h-84z" />
    <glyph glyph-name="wcircumflex" unicode="&#x175;" horiz-adv-x="764" 
d="M226 556l115 140h85l111 -140h-81l-72 89h-2l-73 -89h-83zM195 0l-168 487h83l123 -366h2l112 366h70l114 -366h2l122 366h83l-168 -487h-76l-112 357h-1l-112 -357h-74z" />
    <glyph glyph-name="Ycircumflex" unicode="&#x176;" horiz-adv-x="601" 
d="M144 782l116 124h85l113 -124h-81l-74 78h-2l-74 -78h-83zM256 0v317l-241 393h100l184 -305h2l183 305h102l-243 -393v-317h-87z" />
    <glyph glyph-name="ycircumflex" unicode="&#x177;" horiz-adv-x="525" 
d="M108 556l115 140h85l111 -140h-81l-72 89h-2l-73 -89h-83zM142 -198l87 217l-207 468h88l158 -370h2l147 370h85l-276 -685h-84z" />
    <glyph glyph-name="Ydieresis" unicode="&#x178;" horiz-adv-x="601" 
d="M212 793q-25 0 -41.5 17t-16.5 41q0 23 16.5 39.5t41.5 16.5q24 0 41 -17t17 -40t-17 -40t-41 -17zM393 793q-24 0 -41 17t-17 41q0 23 17 39.5t41 16.5t41 -17t17 -40t-17 -40t-41 -17zM256 0v317l-241 393h100l184 -305h2l183 305h102l-243 -393v-317h-87z" />
    <glyph glyph-name="Zacute" unicode="&#x179;" horiz-adv-x="613" 
d="M214 782l112 129h93l-122 -129h-83zM57 0v69l378 561l-1 1h-358v79h473v-69l-381 -560l1 -2h384v-79h-496z" />
    <glyph glyph-name="zacute" unicode="&#x17a;" horiz-adv-x="471" 
d="M182 557l118 141l91 1l-124 -142h-85zM36 0v59l283 355l-1 3h-267v70h379v-58l-284 -358l1 -1h283v-70h-394z" />
    <glyph glyph-name="Zdotaccent" unicode="&#x17b;" horiz-adv-x="613" 
d="M304 792q-25 0 -42 17t-17 41t17 41t42 17t42 -17t17 -41t-17 -41t-42 -17zM57 0v69l378 561l-1 1h-358v79h473v-69l-381 -560l1 -2h384v-79h-496z" />
    <glyph glyph-name="zdotaccent" unicode="&#x17c;" horiz-adv-x="471" 
d="M236 576q-25 0 -42 17t-17 41t17 41t42 17t42 -17t17 -41t-17 -41t-42 -17zM36 0v59l283 355l-1 3h-267v70h379v-58l-284 -358l1 -1h283v-70h-394z" />
    <glyph glyph-name="Zcaron" unicode="&#x17d;" horiz-adv-x="613" 
d="M259 782l-113 124h82l73 -78h2l75 78h82l-116 -124h-85zM57 0v69l378 561l-1 1h-358v79h473v-69l-381 -560l1 -2h384v-79h-496z" />
    <glyph glyph-name="zcaron" unicode="&#x17e;" horiz-adv-x="471" 
d="M191 555l-111 139h82l72 -88h2l72 88h83l-115 -139h-85zM36 0v59l283 355l-1 3h-267v70h379v-58l-284 -358l1 -1h283v-70h-394z" />
    <glyph glyph-name="longs" unicode="&#x17f;" horiz-adv-x="319" 
d="M96 0v417h-59v70h59v99q0 77 35.5 117t101.5 40q62 0 113 -32l-18 -69q-50 26 -85 26q-66 0 -66 -90v-578h-81z" />
    <glyph glyph-name="uni018F" unicode="&#x18f;" horiz-adv-x="775" 
d="M367 717q166 0 258.5 -101.5t92.5 -258.5q0 -165 -96 -264t-246 -99q-149 0 -240 88.5t-91 243.5q0 18 2 44h582q-5 120 -75.5 192t-194.5 72q-120 2 -220 -71l-50 66q116 89 278 88zM374 76q97 0 165 57t85 159h-491q4 -99 70 -157.5t171 -58.5z" />
    <glyph glyph-name="florin" unicode="&#x192;" horiz-adv-x="534" 
d="M99 -125q-87 0 -130 41l32 58q37 -25 85 -25q79 0 92 101l45 348h-77l10 70h78l15 117q22 158 160 158q80 0 130 -41l-32 -58q-42 24 -85 24q-80 0 -92 -101l-12 -99h148l-9 -70h-150l-48 -365q-20 -158 -160 -158z" />
    <glyph glyph-name="uni019D" unicode="&#x19d;" horiz-adv-x="751" 
d="M576 710h87v-710h-89l-397 559h-2v-596q0 -167 -131 -167q-39 0 -78 14l6 73q27 -12 53 -12q63 0 63 76v763h87v-1l400 -564h1v565z" />
    <glyph glyph-name="Ohorn" unicode="&#x1a0;" horiz-adv-x="867" 
d="M751 774h83v-73q0 -142 -106 -171q40 -77 40 -175q0 -160 -101 -260.5t-253 -100.5q-156 0 -256.5 101.5t-100.5 259.5t101 260t256 102q86 0 160 -35.5t122 -98.5q33 9 44 37.5t11 84.5v69zM414 76q112 0 187.5 78.5t75.5 200.5t-75.5 201t-187.5 79
q-115 0 -190.5 -79.5t-75.5 -200.5q0 -120 75.5 -199.5t190.5 -79.5z" />
    <glyph glyph-name="ohorn" unicode="&#x1a1;" horiz-adv-x="669" 
d="M568 565h83v-73q0 -147 -113 -172q10 -40 10 -77q0 -110 -71 -179.5t-180 -69.5q-112 0 -182 71t-70 178t70 178.5t182 71.5q71 0 128 -31.5t90 -87.5q32 10 42.5 38.5t10.5 83.5v69zM297 68q71 0 119.5 49t48.5 126t-48.5 126.5t-119.5 49.5q-75 0 -122 -51t-47 -125
t47.5 -124.5t121.5 -50.5z" />
    <glyph glyph-name="Uhorn" unicode="&#x1af;" horiz-adv-x="791" 
d="M698 774h83v-73q0 -84 -39 -129.5t-113 -47.5v-235q0 -136 -74.5 -215.5t-201.5 -79.5q-124 0 -199.5 78.5t-75.5 216.5v421h87v-415q0 -99 51 -159t137 -60q84 0 136.5 59t52.5 160v415h87v-130q42 6 55.5 35t13.5 90v69z" />
    <glyph glyph-name="uhorn" unicode="&#x1b0;" horiz-adv-x="657" 
d="M556 565h83v-73q0 -169 -148 -177v-315h-81v84h-1q-27 -43 -69.5 -66.5t-91.5 -23.5q-87 0 -135 50.5t-48 152.5v290h81v-267q0 -80 29.5 -116t89.5 -36q61 0 103 49.5t42 133.5v236h81v-116q39 8 52 37t13 88v69z" />
    <glyph glyph-name="uni01CD" unicode="&#x1cd;" horiz-adv-x="676" 
d="M293 782l-113 124h82l73 -78h2l75 78h82l-116 -124h-85zM25 0l269 710h87l270 -710h-91l-64 173h-317l-63 -173h-91zM207 249h262l-131 356h-2z" />
    <glyph glyph-name="uni01CE" unicode="&#x1ce;" horiz-adv-x="604" 
d="M254 555l-111 139h82l72 -88h2l72 88h83l-115 -139h-85zM281 -6q-102 0 -169.5 68.5t-67.5 177.5t67 181t170 72q54 0 99 -24.5t71 -68.5l2 1v86h81v-487h-78v88h-1q-57 -94 -174 -94zM293 68q69 0 116 48t47 124t-46 127.5t-117 51.5t-119 -50t-48 -129q0 -74 46.5 -123
t120.5 -49z" />
    <glyph glyph-name="uni01CF" unicode="&#x1cf;" horiz-adv-x="273" 
d="M91 782l-113 124h82l73 -78h2l75 78h82l-116 -124h-85zM93 0v710h87v-710h-87z" />
    <glyph glyph-name="uni01D0" unicode="&#x1d0;" horiz-adv-x="245" 
d="M78 555l-111 139h82l72 -88h2l72 88h83l-115 -139h-85zM82 0v487h81v-487h-81z" />
    <glyph glyph-name="uni01D1" unicode="&#x1d1;" horiz-adv-x="825" 
d="M369 782l-113 124h82l73 -78h2l75 78h82l-116 -124h-85zM414 -6q-156 0 -256.5 101.5t-100.5 259.5t101 260t256 102q152 0 253 -101t101 -261t-101 -260.5t-253 -100.5zM414 76q112 0 187.5 78.5t75.5 200.5t-75.5 201t-187.5 79q-115 0 -190.5 -79.5t-75.5 -200.5
q0 -120 75.5 -199.5t190.5 -79.5z" />
    <glyph glyph-name="uni01D2" unicode="&#x1d2;" horiz-adv-x="593" 
d="M252 555l-111 139h82l72 -88h2l72 88h83l-115 -139h-85zM297 -6q-112 0 -182 71t-70 178t70 178.5t182 71.5q109 0 180 -70t71 -180t-71 -179.5t-180 -69.5zM297 68q71 0 119.5 49t48.5 126t-48.5 126.5t-119.5 49.5q-75 0 -122 -51t-47 -125t47.5 -124.5t121.5 -50.5z
" />
    <glyph glyph-name="uni01D3" unicode="&#x1d3;" horiz-adv-x="706" 
d="M308 782l-113 124h82l73 -78h2l75 78h82l-116 -124h-85zM353 -6q-124 0 -199.5 78.5t-75.5 216.5v421h87v-415q0 -99 51 -159t137 -60q84 0 136.5 59t52.5 160v415h87v-421q0 -136 -74.5 -215.5t-201.5 -79.5z" />
    <glyph glyph-name="uni01D4" unicode="&#x1d4;" horiz-adv-x="562" 
d="M234 555l-111 139h82l72 -88h2l72 88h83l-115 -139h-85zM248 -6q-87 0 -135 50.5t-48 152.5v290h81v-267q0 -80 29.5 -116t89.5 -36q61 0 103 49.5t42 133.5v236h81v-487h-81v84h-1q-27 -43 -69.5 -66.5t-91.5 -23.5z" />
    <glyph glyph-name="uni01D5" unicode="&#x1d5;" horiz-adv-x="706" 
d="M209 941v57h288v-57h-288zM267 782q-23 0 -39 15t-16 37t16 37.5t39 15.5t39 -15.5t16 -37.5t-16 -37t-39 -15zM435 782q-23 0 -39 15t-16 37t16 37.5t39 15.5t39 -15.5t16 -37.5t-16 -37t-39 -15zM353 -6q-124 0 -199.5 78.5t-75.5 216.5v421h87v-415q0 -99 51 -159
t137 -60q84 0 136.5 59t52.5 160v415h87v-421q0 -136 -74.5 -215.5t-201.5 -79.5z" />
    <glyph glyph-name="uni01D6" unicode="&#x1d6;" horiz-adv-x="562" 
d="M134 757v64h288v-64h-288zM189 579q-25 0 -42 16.5t-17 39.5q0 24 17 40t42 16t42 -16t17 -40q0 -23 -17 -39.5t-42 -16.5zM369 579q-25 0 -42 16.5t-17 39.5q0 24 17 40t42 16t42 -16t17 -40q0 -23 -17 -39.5t-42 -16.5zM248 -6q-87 0 -135 50.5t-48 152.5v290h81v-267
q0 -80 29.5 -116t89.5 -36q61 0 103 49.5t42 133.5v236h81v-487h-81v84h-1q-27 -43 -69.5 -66.5t-91.5 -23.5z" />
    <glyph glyph-name="uni01D7" unicode="&#x1d7;" horiz-adv-x="706" 
d="M323 901l97 129h92l-125 -129h-64zM267 782q-23 0 -39 15t-16 37t16 37.5t39 15.5t39 -15.5t16 -37.5t-16 -37t-39 -15zM435 782q-23 0 -39 15t-16 37t16 37.5t39 15.5t39 -15.5t16 -37.5t-16 -37t-39 -15zM353 -6q-124 0 -199.5 78.5t-75.5 216.5v421h87v-415
q0 -99 51 -159t137 -60q84 0 136.5 59t52.5 160v415h87v-421q0 -136 -74.5 -215.5t-201.5 -79.5z" />
    <glyph glyph-name="uni01D8" unicode="&#x1d8;" horiz-adv-x="562" 
d="M242 716l118 141h91l-143 -141h-66zM189 579q-25 0 -42 16.5t-17 39.5q0 24 17 40t42 16t42 -16t17 -40q0 -23 -17 -39.5t-42 -16.5zM369 579q-25 0 -42 16.5t-17 39.5q0 24 17 40t42 16t42 -16t17 -40q0 -23 -17 -39.5t-42 -16.5zM248 -6q-87 0 -135 50.5t-48 152.5v290
h81v-267q0 -80 29.5 -116t89.5 -36q61 0 103 49.5t42 133.5v236h81v-487h-81v84h-1q-27 -43 -69.5 -66.5t-91.5 -23.5z" />
    <glyph glyph-name="uni01D9" unicode="&#x1d9;" horiz-adv-x="706" 
d="M313 910l-113 124h82l73 -78h2l75 78h82l-116 -124h-85zM267 782q-23 0 -39 15t-16 37t16 37.5t39 15.5t39 -15.5t16 -37.5t-16 -37t-39 -15zM435 782q-23 0 -39 15t-16 37t16 37.5t39 15.5t39 -15.5t16 -37.5t-16 -37t-39 -15zM353 -6q-124 0 -199.5 78.5t-75.5 216.5
v421h87v-415q0 -99 51 -159t137 -60q84 0 136.5 59t52.5 160v415h87v-421q0 -136 -74.5 -215.5t-201.5 -79.5z" />
    <glyph glyph-name="uni01DA" unicode="&#x1da;" horiz-adv-x="562" 
d="M234 722l-111 139h82l72 -88h2l72 88h83l-115 -139h-85zM189 579q-25 0 -42 16.5t-17 39.5q0 24 17 40t42 16t42 -16t17 -40q0 -23 -17 -39.5t-42 -16.5zM369 579q-25 0 -42 16.5t-17 39.5q0 24 17 40t42 16t42 -16t17 -40q0 -23 -17 -39.5t-42 -16.5zM248 -6
q-87 0 -135 50.5t-48 152.5v290h81v-267q0 -80 29.5 -116t89.5 -36q61 0 103 49.5t42 133.5v236h81v-487h-81v84h-1q-27 -43 -69.5 -66.5t-91.5 -23.5z" />
    <glyph glyph-name="uni01DB" unicode="&#x1db;" horiz-adv-x="706" 
d="M321 901l-124 129h91l98 -129h-65zM267 782q-23 0 -39 15t-16 37t16 37.5t39 15.5t39 -15.5t16 -37.5t-16 -37t-39 -15zM435 782q-23 0 -39 15t-16 37t16 37.5t39 15.5t39 -15.5t16 -37.5t-16 -37t-39 -15zM353 -6q-124 0 -199.5 78.5t-75.5 216.5v421h87v-415
q0 -99 51 -159t137 -60q84 0 136.5 59t52.5 160v415h87v-421q0 -136 -74.5 -215.5t-201.5 -79.5z" />
    <glyph glyph-name="uni01DC" unicode="&#x1dc;" horiz-adv-x="562" 
d="M318 716h-66l-143 141h92zM189 579q-25 0 -42 16.5t-17 39.5q0 24 17 40t42 16t42 -16t17 -40q0 -23 -17 -39.5t-42 -16.5zM369 579q-25 0 -42 16.5t-17 39.5q0 24 17 40t42 16t42 -16t17 -40q0 -23 -17 -39.5t-42 -16.5zM248 -6q-87 0 -135 50.5t-48 152.5v290h81v-267
q0 -80 29.5 -116t89.5 -36q61 0 103 49.5t42 133.5v236h81v-487h-81v84h-1q-27 -43 -69.5 -66.5t-91.5 -23.5z" />
    <glyph glyph-name="Gcaron" unicode="&#x1e6;" horiz-adv-x="759" 
d="M360 782l-113 124h82l73 -78h2l75 78h82l-116 -124h-85zM412 -5q-155 0 -255 98t-100 261q0 160 96.5 261.5t255.5 101.5q163 0 270 -111l-61 -54q-85 82 -210 82q-113 0 -186.5 -77t-73.5 -203q0 -122 73 -200.5t191 -78.5q111 0 189 59v153h-206v79h293v-281
q-106 -90 -276 -90z" />
    <glyph glyph-name="gcaron" unicode="&#x1e7;" horiz-adv-x="600" 
d="M244 555l-111 139h82l72 -88h2l72 88h83l-115 -139h-85zM291 -204q-110 0 -198 53l20 72q89 -51 175 -51q79 0 121 40.5t42 105.5v78h-2q-59 -85 -169 -85q-101 0 -168.5 67t-67.5 174q0 105 65.5 174t167.5 69q109 0 171 -84h2v78h81v-451q0 -111 -59 -175.5t-181 -64.5
zM290 84q73 0 118 48t45 122q0 72 -46.5 118t-115.5 46q-73 0 -119 -47t-46 -119q0 -76 46.5 -122t117.5 -46z" />
    <glyph glyph-name="uni01EA" unicode="&#x1ea;" horiz-adv-x="825" 
d="M464 -3q-32 -13 -51.5 -35.5t-19.5 -46.5q0 -45 49 -45q28 0 47 9l6 -52q-29 -13 -69 -13q-46 0 -72.5 22.5t-26.5 61.5q0 52 56 96v1q-144 11 -235 111t-91 249q0 158 101 260t256 102q152 0 253 -101t101 -261q0 -146 -85.5 -243.5t-218.5 -114.5zM148 355
q0 -120 75.5 -199.5t190.5 -79.5q112 0 187.5 78.5t75.5 200.5t-75.5 201t-187.5 79q-115 0 -190.5 -79.5t-75.5 -200.5z" />
    <glyph glyph-name="uni01EB" unicode="&#x1eb;" horiz-adv-x="593" 
d="M332 -4q-31 -13 -49.5 -35.5t-18.5 -45.5q0 -45 49 -45q27 0 47 9l6 -52q-29 -13 -69 -13q-46 0 -72.5 22.5t-26.5 61.5q0 54 59 98l-1 1q-95 13 -153 81.5t-58 164.5q0 107 70 178.5t182 71.5q109 0 180 -70t71 -180q0 -101 -60 -168.5t-156 -78.5zM128 243
q0 -74 47.5 -124.5t121.5 -50.5q71 0 119.5 49t48.5 126t-48.5 126.5t-119.5 49.5q-75 0 -122 -51t-47 -125z" />
    <glyph glyph-name="Aringacute" unicode="&#x1fa;" horiz-adv-x="676" 
d="M337 760q-39 0 -67 27.5t-28 66.5t27.5 66.5t67.5 27.5q45 0 75 -33l69 49h96l-143 -106v-4q0 -38 -28 -66t-69 -28zM337 897q-17 0 -29.5 -12.5t-12.5 -29.5q0 -18 12.5 -30t29.5 -12q19 0 31.5 12.5t12.5 29.5t-12.5 29.5t-31.5 12.5zM381 710l270 -710h-91l-64 173
h-317l-63 -173h-91l269 710h87zM207 249h262l-131 356h-2z" />
    <glyph glyph-name="aringacute" unicode="&#x1fb;" horiz-adv-x="604" 
d="M298 545q-39 0 -67 27.5t-28 66.5t27.5 66.5t67.5 27.5q44 0 73 -31l66 46h96l-138 -102v-7q0 -38 -28 -66t-69 -28zM298 682q-17 0 -29.5 -12.5t-12.5 -29.5q0 -18 12.5 -30t29.5 -12q19 0 31.5 12.5t12.5 29.5t-12.5 29.5t-31.5 12.5zM453 487h81v-487h-78v88h-1
q-57 -94 -174 -94q-102 0 -169.5 68.5t-67.5 177.5t67 181t170 72q54 0 99 -24.5t71 -68.5l2 1v86zM293 68q69 0 116 48t47 124t-46 127.5t-117 51.5t-119 -50t-48 -129q0 -74 46.5 -123t120.5 -49z" />
    <glyph glyph-name="AEacute" unicode="&#x1fc;" horiz-adv-x="928" 
d="M419 782l112 129h93l-122 -129h-83zM9 0l374 710h486v-79h-349v-238h290v-79h-290v-235h369v-79h-455v173h-243l-92 -173h-90zM229 249h205v384h-2z" />
    <glyph glyph-name="aeacute" unicode="&#x1fd;" horiz-adv-x="790" 
d="M551 699l-124 -142h-85l118 141zM754 252q0 -27 -1 -34h-340q8 -70 47 -110t102 -40q44 0 71 16t51 49l56 -48q-35 -46 -75.5 -68.5t-108.5 -22.5q-116 0 -174 99h-2q-21 -44 -68 -71.5t-111 -27.5q-83 0 -126 42t-43 106q0 67 47.5 106t138.5 39h116v12q0 67 -22.5 94
t-74.5 27q-72 0 -139 -37l-31 66q29 17 77.5 30.5t97.5 13.5q110 0 146 -94h2q27 45 71 69.5t93 24.5q89 0 144.5 -68t55.5 -173zM415 285h258q-6 60 -37 97t-85 37q-53 0 -89.5 -37t-46.5 -97zM208 62q53 0 90 32.5t37 87.5v39h-110q-113 0 -113 -78q0 -35 24.5 -58
t71.5 -23z" />
    <glyph glyph-name="Oslashacute" unicode="&#x1fe;" horiz-adv-x="825" 
d="M565 911l-122 -129h-83l112 129h93zM772 684l-84 -91q80 -98 80 -238q0 -160 -101 -260.5t-253 -100.5q-125 0 -218 68l-81 -88l-51 47l81 88q-88 101 -88 246q0 158 101 260t256 102q132 0 225 -76l82 88zM148 355q0 -103 59 -180l373 402q-71 58 -166 58
q-115 0 -190.5 -79.5t-75.5 -200.5zM677 355q0 98 -51 171l-370 -400q67 -50 158 -50q112 0 187.5 78.5t75.5 200.5z" />
    <glyph glyph-name="oslashacute" unicode="&#x1ff;" horiz-adv-x="593" 
d="M461 699l-124 -142h-85l118 141zM556 465l-60 -64q52 -65 52 -158q0 -110 -71 -179.5t-180 -69.5q-82 0 -145 41l-54 -57l-45 42l52 56q-60 69 -60 167q0 107 70 178.5t182 71.5q89 0 155 -49l59 63zM128 243q0 -61 33 -108l237 251q-44 33 -101 33q-75 0 -122 -51
t-47 -125zM465 243q0 55 -26 98l-233 -248q41 -25 91 -25q71 0 119.5 49t48.5 126z" />
    <glyph glyph-name="Scommaaccent" unicode="&#x218;" horiz-adv-x="580" 
d="M293 -6q-148 0 -251 110l56 67q37 -46 89.5 -71t106.5 -25q66 0 106 29t40 80q0 60 -59 94q-25 14 -100 42q-39 14 -63.5 24.5t-56 29.5t-49 39t-30.5 50t-13 66q0 79 62.5 133.5t154.5 54.5q121 0 224 -83l-53 -69q-87 72 -171 72q-53 0 -89.5 -27.5t-37.5 -76.5
q0 -25 9.5 -43t34.5 -33.5t45.5 -25t62.5 -25.5q108 -43 141 -64q78 -53 79 -148q0 -93 -69.5 -146.5t-168.5 -53.5zM225 -212l-20 49q33 7 46 22.5t13 41.5q0 17 -5 45h74q4 -20 4 -49q0 -48 -30.5 -76t-81.5 -33z" />
    <glyph glyph-name="scommaaccent" unicode="&#x219;" horiz-adv-x="437" 
d="M223 -6q-111 0 -190 69l41 62q61 -59 149 -59q43 0 68 18.5t25 47.5q0 33 -45 54q-12 5 -71 27q-35 12 -57 23t-44.5 28t-33.5 41.5t-11 56.5q0 56 45.5 93.5t114.5 37.5q94 0 168 -60l-42 -64q-56 52 -129 52q-30 0 -52.5 -16t-22.5 -43q0 -26 23 -42.5t69 -33.5
q95 -37 118 -51q53 -35 52 -102q0 -60 -45.5 -99.5t-129.5 -39.5zM142 -212l-20 49q33 7 46 22.5t13 41.5q0 17 -5 45h74q4 -20 4 -49q0 -48 -30.5 -76t-81.5 -33z" />
    <glyph glyph-name="uni021A" unicode="&#x21a;" horiz-adv-x="573" 
d="M242 0v631h-212v79h514v-79h-215v-631h-87zM211 -212l-20 49q33 7 46 22.5t13 41.5q0 17 -5 45h74q4 -20 4 -49q0 -48 -30.5 -76t-81.5 -33z" />
    <glyph glyph-name="uni021B" unicode="&#x21b;" horiz-adv-x="361" 
d="M213 -6q-126 0 -126 151v272h-63v70h63v166l81 9v-175h161v-70h-161v-260q0 -46 13 -66.5t46 -20.5q37 0 83 25l21 -71q-51 -30 -118 -30zM132 -212l-20 49q33 7 46 22.5t13 41.5q0 17 -5 45h74q4 -20 4 -49q0 -48 -30.5 -76t-81.5 -33z" />
    <glyph glyph-name="uni0232" unicode="&#x232;" horiz-adv-x="601" 
d="M158 809v67h288v-67h-288zM256 0v317l-241 393h100l184 -305h2l183 305h102l-243 -393v-317h-87z" />
    <glyph glyph-name="uni0233" unicode="&#x233;" horiz-adv-x="525" 
d="M120 596v69h288v-69h-288zM142 -198l87 217l-207 468h88l158 -370h2l147 370h85l-276 -685h-84z" />
    <glyph glyph-name="uni0237" unicode="&#x237;" horiz-adv-x="224" 
d="M32 -204q-46 0 -84 16l13 72q24 -15 55 -15q58 0 58 80v538h81v-538q0 -71 -32.5 -112t-90.5 -41z" />
    <glyph glyph-name="uni0251" unicode="&#x251;" horiz-adv-x="604" 
d="M281 -6q-102 0 -169.5 68.5t-67.5 177.5t67 181t170 72q54 0 99 -24.5t71 -68.5l2 1v86h81v-487h-78v88h-1q-57 -94 -174 -94zM293 68q69 0 116 48t47 124t-46 127.5t-117 51.5t-119 -50t-48 -129q0 -74 46.5 -123t120.5 -49z" />
    <glyph glyph-name="uni0259" unicode="&#x259;" horiz-adv-x="553" 
d="M259 493q108 0 178.5 -67.5t70.5 -184.5q0 -110 -62 -178.5t-173 -68.5q-107 0 -168 67t-61 171q0 15 3 36h380q-8 71 -55.5 111.5t-117.5 40.5q-72 0 -143 -39l-32 66q82 46 180 46zM273 67q64 0 103 36t49 99h-299q6 -63 45 -99t102 -36z" />
    <glyph glyph-name="uni0261" unicode="&#x261;" horiz-adv-x="600" 
d="M291 -204q-110 0 -198 53l20 72q89 -51 175 -51q79 0 121 40.5t42 105.5v78h-2q-59 -85 -169 -85q-101 0 -168.5 67t-67.5 174q0 105 65.5 174t167.5 69q109 0 171 -84h2v78h81v-451q0 -111 -59 -175.5t-181 -64.5zM290 84q73 0 118 48t45 122q0 72 -46.5 118t-115.5 46
q-73 0 -119 -47t-46 -119q0 -76 46.5 -122t117.5 -46z" />
    <glyph glyph-name="uni0272" unicode="&#x272;" horiz-adv-x="576" 
d="M335 493q81 0 128 -51.5t47 -152.5v-289h-81v266q0 153 -120 153q-70 0 -111 -47t-41 -129v-285q0 -162 -131 -162q-36 0 -71 14l6 66q26 -11 52 -11q63 0 63 86v536h81v-88h1q61 94 177 94z" />
    <glyph glyph-name="uni02BB" unicode="&#x2bb;" horiz-adv-x="203" 
d="M64 422l14 241h66l8 -241h-88z" />
    <glyph glyph-name="uni02BC" unicode="&#x2bc;" horiz-adv-x="165" 
d="M29 516l28 194h80l-49 -194h-59z" />
    <glyph glyph-name="uni02BE" unicode="&#x2be;" horiz-adv-x="206" 
d="M42 454l-7 60q39 1 60.5 24.5t21.5 59.5q0 35 -22 58.5t-60 24.5l7 61q64 -1 104 -42t40 -102t-40 -102t-104 -42z" />
    <glyph glyph-name="uni02BF" unicode="&#x2bf;" horiz-adv-x="236" 
d="M194 454q-64 1 -104 42t-40 102t40 102t104 42l7 -61q-38 -1 -60 -24.5t-22 -58.5q0 -36 21.5 -59.5t60.5 -24.5z" />
    <glyph glyph-name="circumflex" unicode="&#x2c6;" horiz-adv-x="495" 
d="M92 540l115 140h85l111 -140h-81l-72 89h-2l-73 -89h-83z" />
    <glyph glyph-name="caron" unicode="&#x2c7;" horiz-adv-x="495" 
d="M203 539l-111 139h82l72 -88h2l72 88h83l-115 -139h-85z" />
    <glyph glyph-name="uni02C8" unicode="&#x2c8;" horiz-adv-x="175" 
d="M54 680h67v-288h-67v288z" />
    <glyph glyph-name="uni02C9" unicode="&#x2c9;" horiz-adv-x="393" 
d="M53 596v69h288v-69h-288z" />
    <glyph glyph-name="uni02CA" unicode="&#x2ca;" horiz-adv-x="313" 
d="M67 557l118 141l91 1l-124 -142h-85z" />
    <glyph glyph-name="uni02CB" unicode="&#x2cb;" horiz-adv-x="312" 
d="M161 558l-121 138l92 -1l111 -137h-82z" />
    <glyph glyph-name="uni02CC" unicode="&#x2cc;" horiz-adv-x="175" 
d="M54 133h67v-288h-67v288z" />
    <glyph glyph-name="breve" unicode="&#x2d8;" horiz-adv-x="466" 
d="M233 536q-63 0 -101.5 37.5t-42.5 104.5h65q2 -33 23 -55.5t56 -22.5t56 22.5t23 55.5h65q-4 -67 -42.5 -104.5t-101.5 -37.5z" />
    <glyph glyph-name="dotaccent" unicode="&#x2d9;" horiz-adv-x="493" 
d="M247 560q-25 0 -42 17t-17 41t17 41t42 17t42 -17t17 -41t-17 -41t-42 -17z" />
    <glyph glyph-name="ring" unicode="&#x2da;" horiz-adv-x="458" 
d="M228 522q-39 0 -67 27.5t-28 66.5t27.5 66.5t67.5 27.5q41 0 69 -27t28 -67q0 -38 -28 -66t-69 -28zM228 575q19 0 31.5 12.5t12.5 29.5t-12.5 29.5t-31.5 12.5q-17 0 -29.5 -12.5t-12.5 -29.5q0 -18 12.5 -30t29.5 -12z" />
    <glyph glyph-name="ogonek" unicode="&#x2db;" horiz-adv-x="468" 
d="M271 -186q-46 0 -72.5 22.5t-26.5 61.5q0 30 23 62t64 54l61 -13q-37 -12 -59.5 -36t-22.5 -50q0 -45 49 -45q27 0 47 9l6 -52q-29 -13 -69 -13z" />
    <glyph glyph-name="tilde" unicode="&#x2dc;" horiz-adv-x="506" 
d="M332 546q-35 0 -88 36q-37 24 -58 24q-39 0 -60 -56l-52 23q31 98 104 98q38 0 81 -29l12 -8t13.5 -8.5t11.5 -6t13.5 -5t13.5 -1.5q38 0 58 55l51 -17q-13 -50 -40 -77.5t-60 -27.5z" />
    <glyph glyph-name="hungarumlaut" unicode="&#x2dd;" horiz-adv-x="518" 
d="M75 541l118 141l85 1l-124 -142h-79zM243 541l117 141l85 1l-124 -142h-78z" />
    <glyph glyph-name="gravecomb" unicode="&#x300;" 
d="M-487 542l-121 138l92 -1l111 -137h-82z" />
    <glyph glyph-name="acutecomb" unicode="&#x301;" 
d="M-589 541l118 141l91 1l-124 -142h-85z" />
    <glyph glyph-name="uni0302" unicode="&#x302;" 
d="M-656 540l115 140h85l111 -140h-81l-72 89h-2l-73 -89h-83z" />
    <glyph glyph-name="tildecomb" unicode="&#x303;" 
d="M-422 546q-35 0 -88 36q-37 24 -58 24q-39 0 -60 -56l-52 23q31 98 104 98q38 0 81 -29l12 -8t13.5 -8.5t11.5 -6t13.5 -5t13.5 -1.5q38 0 58 55l51 -17q-13 -50 -40 -77.5t-60 -27.5z" />
    <glyph glyph-name="uni0304" unicode="&#x304;" 
d="M-644 580v69h288v-69h-288z" />
    <glyph glyph-name="uni0306" unicode="&#x306;" 
d="M-500 536q-63 0 -101.5 37.5t-42.5 104.5h65q2 -33 23 -55.5t56 -22.5t56 22.5t23 55.5h65q-4 -67 -42.5 -104.5t-101.5 -37.5z" />
    <glyph glyph-name="uni0307" unicode="&#x307;" 
d="M-500 560q-25 0 -42 17t-17 41t17 41t42 17t42 -17t17 -41t-17 -41t-42 -17z" />
    <glyph glyph-name="uni0308" unicode="&#x308;" 
d="M-591 561q-25 0 -41.5 17t-16.5 41q0 23 16.5 39.5t41.5 16.5q24 0 41 -17t17 -40t-17 -40t-41 -17zM-410 561q-24 0 -41 17t-17 41q0 23 17 39.5t41 16.5t41 -17t17 -40t-17 -40t-41 -17z" />
    <glyph glyph-name="hookabovecomb" unicode="&#x309;" 
d="M-534 538q82 60 81 93q0 29 -40 29q-47 0 -88 -33l-20 47q50 44 126 44q41 0 65.5 -19t24.5 -58q0 -33 -26 -60t-57 -43h-66z" />
    <glyph glyph-name="uni030A" unicode="&#x30a;" 
d="M-501 529q-39 0 -67 27.5t-28 66.5t27.5 66.5t67.5 27.5q41 0 69 -27t28 -67q0 -38 -28 -66t-69 -28zM-501 582q19 0 31.5 12.5t12.5 29.5t-12.5 29.5t-31.5 12.5q-17 0 -29.5 -12.5t-12.5 -29.5q0 -18 12.5 -30t29.5 -12z" />
    <glyph glyph-name="uni030B" unicode="&#x30b;" 
d="M-624 541l118 141l85 1l-124 -142h-79zM-456 541l117 141l85 1l-124 -142h-78z" />
    <glyph glyph-name="uni030C" unicode="&#x30c;" 
d="M-545 539l-111 139h82l72 -88h2l72 88h83l-115 -139h-85z" />
    <glyph glyph-name="uni0312" unicode="&#x312;" 
d="M-530 540q-4 21 -4 50q0 48 30.5 76t81.5 33l20 -49q-33 -8 -46 -23.5t-13 -41.5q0 -15 5 -45h-74z" />
    <glyph glyph-name="uni0313" unicode="&#x313;" 
d="M-454 692q4 -21 4 -50q0 -48 -30.5 -76t-81.5 -33l-20 49q33 8 46 23.5t13 41.5q0 15 -5 45h74z" />
    <glyph glyph-name="uni031B" unicode="&#x31b;" 
d="M-513 460l-1 54q52 3 68.5 32t16.5 95v69h83v-73q0 -89 -43 -134t-124 -43z" />
    <glyph glyph-name="dotbelowcomb" unicode="&#x323;" 
d="M-500 -94q25 0 42 -17t17 -41t-17 -41t-42 -17t-42 17t-17 41t17 41t42 17z" />
    <glyph glyph-name="uni0324" unicode="&#x324;" 
d="M-591 -95q24 0 41 -17t17 -41q0 -23 -17 -39.5t-41 -16.5t-41 17t-17 40t17 40t41 17zM-410 -95q25 0 41.5 -17t16.5 -41q0 -23 -16.5 -39.5t-41.5 -16.5q-24 0 -41 17t-17 40t17 40t41 17z" />
    <glyph glyph-name="uni0326" unicode="&#x326;" 
d="M-578 -212l-20 49q33 7 46 22.5t13 41.5q0 17 -5 45h74q4 -20 4 -49q0 -48 -30.5 -76t-81.5 -33z" />
    <glyph glyph-name="uni0327" unicode="&#x327;" 
d="M-530 -188q-26 0 -56 6v44q21 -7 48 -7q23 0 39.5 9.5t16.5 27.5t-21.5 30t-61.5 12l1 30l19 42h51l-17 -37v-2q40 -2 64 -22.5t24 -56.5q0 -34 -27 -55t-80 -21z" />
    <glyph glyph-name="uni0328" unicode="&#x328;" 
d="M-554 -186q-46 0 -72.5 22.5t-26.5 61.5q0 30 23 62t64 54l61 -13q-37 -12 -59.5 -36t-22.5 -50q0 -45 49 -45q27 0 47 9l6 -52q-29 -13 -69 -13z" />
    <glyph glyph-name="uni032E" unicode="&#x32e;" 
d="M-500 -220q-63 0 -101.5 37.5t-42.5 104.5h65q2 -33 23 -55.5t56 -22.5t56 22.5t23 55.5h65q-4 -67 -42.5 -104.5t-101.5 -37.5z" />
    <glyph glyph-name="uni0331" unicode="&#x331;" 
d="M-356 -194h-288v69h288v-69z" />
    <glyph glyph-name="uni0335" unicode="&#x335;" 
d="M-633 243v58h270v-58h-270z" />
    <glyph glyph-name="uni0374" unicode="&#x374;" horiz-adv-x="251" 
d="M39 480l54 246h83l-65 -246h-72z" />
    <glyph glyph-name="uni0375" unicode="&#x375;" horiz-adv-x="250" 
d="M69 -147l54 247h83l-65 -247h-72z" />
    <glyph glyph-name="uni037E" unicode="&#x37e;" horiz-adv-x="222" 
d="M114 375q-25 0 -42.5 17t-17.5 42t17.5 42t42.5 17t42 -17t17 -42t-17 -42t-42 -17zM37 -131l33 241h88l-60 -241h-61z" />
    <glyph glyph-name="tonos" unicode="&#x384;" horiz-adv-x="464" 
d="M165 541l59 164h93l-73 -164h-79z" />
    <glyph glyph-name="dieresistonos" unicode="&#x385;" horiz-adv-x="555" 
d="M219 547l29 164h78l-43 -164h-64zM120 560q-25 0 -42 17t-17 41t17 41t42 17t42 -17t17 -41t-17 -41t-42 -17zM400 561q-24 0 -41 17t-17 40t17 40t41 17t41 -17t17 -40t-17 -40t-41 -17z" />
    <glyph glyph-name="Alphatonos" unicode="&#x386;" horiz-adv-x="676" 
d="M25 0l269 710h87l270 -710h-91l-64 173h-317l-63 -173h-91zM-31 541l73 164h93l-89 -164h-77zM207 249h262l-131 356h-2z" />
    <glyph glyph-name="anoteleia" unicode="&#x387;" horiz-adv-x="236" 
d="M118 375q-25 0 -42.5 17t-17.5 42t17.5 42t42.5 17t42 -17t17 -42t-17 -42t-42 -17z" />
    <glyph glyph-name="Epsilontonos" unicode="&#x388;" horiz-adv-x="593" 
d="M88 0v710h435v-79h-348v-238h285v-79h-285v-235h369v-79h-456zM-149 541l73 164h93l-89 -164h-77z" />
    <glyph glyph-name="Etatonos" unicode="&#x389;" horiz-adv-x="721" 
d="M88 0v710h87v-333h371v333h87v-710h-87v298h-371v-298h-87zM-149 541l73 164h93l-89 -164h-77z" />
    <glyph glyph-name="Iotatonos" unicode="&#x38a;" horiz-adv-x="273" 
d="M93 0v710h87v-710h-87zM-143 541l73 164h93l-89 -164h-77z" />
    <glyph glyph-name="Omicrontonos" unicode="&#x38c;" horiz-adv-x="825" 
d="M414 -6q-156 0 -256.5 101.5t-100.5 259.5t101 260t256 102q152 0 253 -101t101 -261t-101 -260.5t-253 -100.5zM-97 541l73 164h93l-89 -164h-77zM414 76q112 0 187.5 78.5t75.5 200.5t-75.5 201t-187.5 79q-115 0 -190.5 -79.5t-75.5 -200.5q0 -120 75.5 -199.5
t190.5 -79.5z" />
    <glyph glyph-name="Upsilontonos" unicode="&#x38e;" horiz-adv-x="601" 
d="M256 0v317l-241 393h100l184 -305h2l183 305h102l-243 -393v-317h-87zM-197 541l73 164h93l-89 -164h-77z" />
    <glyph glyph-name="Omegatonos" unicode="&#x38f;" horiz-adv-x="775" 
d="M66 0v79h148l1 1q-75 52 -117 129t-42 170q0 145 92.5 241t239.5 96q146 0 239 -96t93 -241q0 -92 -42 -169.5t-117 -129.5l1 -1h148v-79h-267v79q187 113 187 299q0 112 -67.5 184t-174.5 72t-174 -72t-67 -184q0 -95 49 -171t137 -128v-79h-267zM-104 541l73 164h93
l-89 -164h-77z" />
    <glyph glyph-name="iotadieresistonos" unicode="&#x390;" horiz-adv-x="273" 
d="M90 563l29 164h78l-43 -164h-64zM-9 576q-25 0 -42 17t-17 41t17 41t42 17t42 -17t17 -41t-17 -41t-42 -17zM271 577q-24 0 -41 17t-17 40t17 40t41 17t41 -17t17 -40t-17 -40t-41 -17zM181 -6q-102 0 -102 118v375h81v-351q0 -38 7.5 -52.5t33.5 -14.5q18 0 48 8l8 -68
q-41 -15 -76 -15z" />
    <glyph glyph-name="Alpha" unicode="&#x391;" horiz-adv-x="676" 
d="M25 0l269 710h87l270 -710h-91l-64 173h-317l-63 -173h-91zM207 249h262l-131 356h-2z" />
    <glyph glyph-name="Beta" unicode="&#x392;" horiz-adv-x="635" 
d="M88 0v710h232q108 0 168.5 -42.5t60.5 -130.5q0 -54 -29 -98.5t-84 -63.5v-2q66 -13 107 -59.5t41 -120.5q0 -88 -60 -140.5t-177 -52.5h-259zM175 404h146q61 0 100 28t39 88q0 112 -149 112l-136 -1v-227zM175 79h164q72 0 113 30.5t41 90.5q0 61 -43 94.5t-124 33.5
h-151v-249z" />
    <glyph glyph-name="Gamma" unicode="&#x393;" horiz-adv-x="563" 
d="M88 0v710h446v-79h-359v-631h-87z" />
    <glyph glyph-name="uni0394" unicode="&#x394;" horiz-adv-x="663" 
d="M35 0v68l251 642h89l253 -642v-68h-593zM133 79h395l-196 524h-2z" />
    <glyph glyph-name="Epsilon" unicode="&#x395;" horiz-adv-x="593" 
d="M88 0v710h435v-79h-348v-238h285v-79h-285v-235h369v-79h-456z" />
    <glyph glyph-name="Zeta" unicode="&#x396;" horiz-adv-x="613" 
d="M57 0v69l378 561l-1 1h-358v79h473v-69l-381 -560l1 -2h384v-79h-496z" />
    <glyph glyph-name="Eta" unicode="&#x397;" horiz-adv-x="721" 
d="M88 0v710h87v-333h371v333h87v-710h-87v298h-371v-298h-87z" />
    <glyph glyph-name="Theta" unicode="&#x398;" horiz-adv-x="835" 
d="M414 -6q-156 0 -256.5 101.5t-100.5 259.5t101 260t256 102q152 0 253 -101t101 -261t-101 -260.5t-253 -100.5zM414 76q112 0 187.5 78.5t75.5 200.5t-75.5 201t-187.5 79q-115 0 -190.5 -79.5t-75.5 -200.5q0 -120 75.5 -199.5t190.5 -79.5zM247 312v78h342v-78h-342z
" />
    <glyph glyph-name="Iota" unicode="&#x399;" horiz-adv-x="273" 
d="M93 0v710h87v-710h-87z" />
    <glyph glyph-name="Kappa" unicode="&#x39a;" horiz-adv-x="646" 
d="M88 0v710h87v-389h2l322 389h112l-275 -324l282 -386h-109l-231 318l-103 -121v-197h-87z" />
    <glyph glyph-name="Lambda" unicode="&#x39b;" horiz-adv-x="670" 
d="M27 0l262 710h89l264 -710h-95l-212 589h-3l-211 -589h-94z" />
    <glyph glyph-name="Mu" unicode="&#x39c;" horiz-adv-x="875" 
d="M88 0v710h88l261 -459h2l261 459h87v-710h-87v541h-2l-231 -398h-59l-231 398h-1v-541h-88z" />
    <glyph glyph-name="Nu" unicode="&#x39d;" horiz-adv-x="751" 
d="M88 0v710h86l401 -565h1v565h87v-710h-89l-397 559h-2v-559h-87z" />
    <glyph glyph-name="Xi" unicode="&#x39e;" horiz-adv-x="625" 
d="M69 629v81h487v-81h-487zM115 312v79h393v-79h-393zM62 0v81h501v-81h-501z" />
    <glyph glyph-name="Omicron" unicode="&#x39f;" horiz-adv-x="825" 
d="M414 -6q-156 0 -256.5 101.5t-100.5 259.5t101 260t256 102q152 0 253 -101t101 -261t-101 -260.5t-253 -100.5zM414 76q112 0 187.5 78.5t75.5 200.5t-75.5 201t-187.5 79q-115 0 -190.5 -79.5t-75.5 -200.5q0 -120 75.5 -199.5t190.5 -79.5z" />
    <glyph glyph-name="Pi" unicode="&#x3a0;" horiz-adv-x="696" 
d="M88 0v710h521v-710h-88v631h-346v-631h-87z" />
    <glyph glyph-name="Rho" unicode="&#x3a1;" horiz-adv-x="613" 
d="M88 0v710h248q119 0 177 -60t58 -160q0 -109 -67.5 -164t-182.5 -55h-146v-271h-87zM175 350h138q85 0 126.5 38.5t41.5 103.5q0 67 -41 103t-113 36h-152v-281z" />
    <glyph glyph-name="Sigma" unicode="&#x3a3;" horiz-adv-x="577" 
d="M54 0v63l200 293l-200 289v65h480v-79h-361l-1 -2l188 -273l-188 -274l1 -3h361v-79h-480z" />
    <glyph glyph-name="Tau" unicode="&#x3a4;" horiz-adv-x="573" 
d="M242 0v631h-212v79h514v-79h-215v-631h-87z" />
    <glyph glyph-name="Upsilon" unicode="&#x3a5;" horiz-adv-x="601" 
d="M256 0v317l-241 393h100l184 -305h2l183 305h102l-243 -393v-317h-87z" />
    <glyph glyph-name="Phi" unicode="&#x3a6;" horiz-adv-x="850" 
d="M803 361q0 -127 -89 -205.5t-245 -82.5v-73h-88v73q-155 4 -244 82.5t-89 205.5q0 133 89 216t244 87v65h88v-65q155 -4 244.5 -87.5t89.5 -215.5zM139 361q0 -92 64.5 -149t179.5 -61v434q-116 -3 -180 -64t-64 -160zM467 151q116 4 180.5 60.5t64.5 149.5q0 98 -64 159
t-181 65v-434z" />
    <glyph glyph-name="Chi" unicode="&#x3a7;" horiz-adv-x="663" 
d="M33 0l241 355l-238 355h101l195 -287h1l194 287h101l-239 -355l242 -355h-103l-196 286h-2l-196 -286h-101z" />
    <glyph glyph-name="Psi" unicode="&#x3a8;" horiz-adv-x="788" 
d="M633 710h87l-1 -255q0 -286 -282 -287v-168h-88v168q-281 3 -281 287l1 255h87l-1 -246q0 -108 45 -161.5t149 -55.5v463h88v-463q101 2 148 54.5t48 162.5v246z" />
    <glyph glyph-name="uni03A9" unicode="&#x3a9;" horiz-adv-x="775" 
d="M66 0v79h148l1 1q-75 52 -117 129t-42 170q0 145 92.5 241t239.5 96q146 0 239 -96t93 -241q0 -92 -42 -169.5t-117 -129.5l1 -1h148v-79h-267v79q187 113 187 299q0 112 -67.5 184t-174.5 72t-174 -72t-67 -184q0 -95 49 -171t137 -128v-79h-267z" />
    <glyph glyph-name="Iotadieresis" unicode="&#x3aa;" horiz-adv-x="273" 
d="M29 792q-25 0 -42 17t-17 41t17 41t42 17q24 0 41.5 -17t17.5 -41t-17.5 -41t-41.5 -17zM246 793q-24 0 -41 17t-17 40t17 40t41 17t41 -17t17 -40t-17 -40t-41 -17zM93 0v710h87v-710h-87z" />
    <glyph glyph-name="Upsilondieresis" unicode="&#x3ab;" horiz-adv-x="601" 
d="M188 792q-25 0 -42 17t-17 41t17 41t42 17q24 0 41.5 -17t17.5 -41t-17.5 -41t-41.5 -17zM405 793q-24 0 -41 17t-17 40t17 40t41 17t41 -17t17 -40t-17 -40t-41 -17zM256 0v317l-241 393h100l184 -305h2l183 305h102l-243 -393v-317h-87z" />
    <glyph glyph-name="alphatonos" unicode="&#x3ac;" horiz-adv-x="600" 
d="M259 557l59 164h93l-73 -164h-79zM266 -6q-99 0 -161 68.5t-62 177.5t64 181t165 72q120 0 172 -108h2l5 102h78l-23 -237v-107q0 -38 8 -56t32 -18q19 0 34 6l9 -67q-37 -14 -70 -14q-36 0 -57 24t-26 62l-1 12q-55 -98 -169 -98zM275 68q65 0 110.5 47.5t52.5 124.5
q-1 80 -43 129.5t-112 49.5q-67 0 -112 -49.5t-45 -129.5q0 -75 41 -123.5t108 -48.5z" />
    <glyph glyph-name="epsilontonos" unicode="&#x3ad;" horiz-adv-x="487" 
d="M360 721l-73 -164h-79l59 164h93zM419 110l38 -60q-92 -56 -220 -56q-87 0 -137.5 35.5t-50.5 102.5q0 40 24.5 72t66.5 47q-37 18 -57 46t-20 59q0 68 51.5 102.5t134.5 34.5q114 0 203 -51l-34 -61q-85 38 -163 38q-110 -2 -110 -69q0 -27 25.5 -48t76.5 -21h86v-66
h-96q-53 0 -78 -23.5t-25 -52.5q0 -71 123 -71q89 0 162 42z" />
    <glyph glyph-name="etatonos" unicode="&#x3ae;" horiz-adv-x="574" 
d="M249 557l59 164h93l-73 -164h-79zM426 -198v464q0 153 -119 153q-67 0 -108.5 -48t-41.5 -129v-242h-81v487h81v-87l2 -1q29 44 75 69t99 25q82 0 128 -51.5t46 -152.5v-487h-81z" />
    <glyph glyph-name="iotatonos" unicode="&#x3af;" horiz-adv-x="265" 
d="M81 557l59 164h93l-73 -164h-79zM181 -6q-102 0 -102 118v375h81v-351q0 -38 7.5 -52.5t33.5 -14.5q18 0 48 8l8 -68q-41 -15 -76 -15z" />
    <glyph glyph-name="upsilondieresistonos" unicode="&#x3b0;" horiz-adv-x="559" 
d="M241 564l29 164h78l-43 -164h-64zM142 577q-25 0 -42 17t-17 41t17 41t42 17t42 -17t17 -41t-17 -41t-42 -17zM422 578q-24 0 -41 17t-17 40t17 40t41 17t41 -17t17 -40t-17 -40t-41 -17zM277 -6q-97 0 -155 61.5t-58 177.5v254h81v-244q0 -88 37 -131.5t95 -43.5
q62 0 97.5 43t35.5 132v244h80v-254q0 -117 -56 -178t-157 -61z" />
    <glyph glyph-name="alpha" unicode="&#x3b1;" horiz-adv-x="600" 
d="M266 -6q-99 0 -161 68.5t-62 177.5t64 181t165 72q120 0 172 -108h2l5 102h78l-23 -237v-107q0 -38 8 -56t32 -18q19 0 34 6l9 -67q-37 -14 -70 -14q-36 0 -57 24t-26 62l-1 12q-55 -98 -169 -98zM275 68q65 0 110.5 47.5t52.5 124.5q-1 80 -43 129.5t-112 49.5
q-67 0 -112 -49.5t-45 -129.5q0 -75 41 -123.5t108 -48.5z" />
    <glyph glyph-name="beta" unicode="&#x3b2;" horiz-adv-x="585" 
d="M76 -198v693q0 122 60.5 185t161.5 63q94 0 151 -51.5t57 -130.5q0 -118 -93 -161v-1q61 -24 95.5 -74.5t34.5 -110.5q0 -100 -61.5 -160t-163.5 -60q-104 0 -159 78l-2 -1v-269h-81zM310 67q68 0 109 40t41 104q0 60 -43.5 101.5t-122.5 41.5h-42v69h38q42 1 71 14
t42 34t18 40.5t5 41.5q0 49 -33.5 82.5t-92.5 33.5q-64 0 -103.5 -42t-39.5 -127v-275q0 -64 43 -111t110 -47z" />
    <glyph glyph-name="gamma" unicode="&#x3b3;" horiz-adv-x="520" 
d="M232 -198v36t-0.5 38t-2 33.5t-3.5 37t-6.5 33.5t-11.5 36l-185 471h89l147 -396h3l147 396h88l-196 -494q5 -19 7 -44t3 -39t1 -55v-53h-80z" />
    <glyph glyph-name="delta" unicode="&#x3b4;" horiz-adv-x="572" 
d="M367 478q165 -66 165 -241q0 -110 -69.5 -176.5t-172.5 -66.5q-108 0 -177 69t-69 175q0 79 42 137.5t115 92.5q-100 50 -100 138q0 61 49 98.5t138 38.5q120 0 209 -52l-33 -64q-78 41 -172 41q-52 0 -81 -17.5t-29 -48.5q0 -28 21.5 -49.5t72.5 -41.5q62 -21 91 -33z
M290 68q67 0 113.5 46t46.5 123q0 140 -146 189q-29 10 -30 11q-68 -27 -108 -79.5t-40 -119.5q0 -74 45.5 -122t118.5 -48z" />
    <glyph glyph-name="epsilon" unicode="&#x3b5;" horiz-adv-x="487" 
d="M419 110l38 -60q-92 -56 -220 -56q-87 0 -137.5 35.5t-50.5 102.5q0 40 24.5 72t66.5 47q-37 18 -57 46t-20 59q0 68 51.5 102.5t134.5 34.5q114 0 203 -51l-34 -61q-85 38 -163 38q-110 -2 -110 -69q0 -27 25.5 -48t76.5 -21h86v-66h-96q-53 0 -78 -23.5t-25 -52.5
q0 -71 123 -71q89 0 162 42z" />
    <glyph glyph-name="zeta" unicode="&#x3b6;" horiz-adv-x="456" 
d="M374 -212l-69 36q1 1 8 9.5t8.5 10.5t8 10t8.5 11t7.5 10.5t7 11.5t5 11t5 12t2.5 11t1 12q0 27 -22.5 43.5t-93.5 37.5q-50 15 -81.5 29.5t-63 39.5t-46.5 62.5t-15 89.5q3 193 295 429v2h-261v70h381v-62q-147 -109 -239.5 -225t-93.5 -214q0 -28 9 -50.5t21.5 -36.5
t39.5 -28t46.5 -21.5t58.5 -20.5q84 -26 116 -54.5t32 -79.5q0 -75 -75 -156z" />
    <glyph glyph-name="eta" unicode="&#x3b7;" horiz-adv-x="574" 
d="M426 -198v464q0 153 -119 153q-67 0 -108.5 -48t-41.5 -129v-242h-81v487h81v-87l2 -1q29 44 75 69t99 25q82 0 128 -51.5t46 -152.5v-487h-81z" />
    <glyph glyph-name="theta" unicode="&#x3b8;" horiz-adv-x="578" 
d="M291 743q112 0 179.5 -93t67.5 -281q0 -110 -24 -191.5t-80.5 -132.5t-142.5 -51q-113 0 -180 92.5t-67 282.5q0 167 60.5 270.5t186.5 103.5zM291 669q-76 0 -117 -69t-47 -190h328q-6 127 -49.5 193t-114.5 66zM291 68q78 0 119 72t46 200h-330q4 -134 47.5 -203
t117.5 -69z" />
    <glyph glyph-name="iota" unicode="&#x3b9;" horiz-adv-x="265" 
d="M181 -6q-102 0 -102 118v375h81v-351q0 -38 7.5 -52.5t33.5 -14.5q18 0 48 8l8 -68q-41 -15 -76 -15z" />
    <glyph glyph-name="kappa" unicode="&#x3ba;" horiz-adv-x="547" 
d="M76 0v487h81v-263l2 -1l261 264h103l-209 -206l220 -281h-100l-174 225l-103 -100v-125h-81z" />
    <glyph glyph-name="lambda" unicode="&#x3bb;" horiz-adv-x="544" 
d="M517 0h-85q-11 30 -62.5 173t-79.5 218h-1l-172 -391h-89l222 496l-30 79q-18 49 -39.5 72t-54.5 23q-26 0 -51 -9l-10 68q42 14 81 14q54 0 89.5 -38t64.5 -117q84 -223 217 -588z" />
    <glyph glyph-name="uni03BC" unicode="&#x3bc;" horiz-adv-x="569" 
d="M72 -198v685h81v-258q0 -161 124 -161q61 0 100.5 48t39.5 128v243h81v-487h-74l-5 84h-2q-57 -90 -155 -90q-76 0 -111 54l-2 -1q4 -70 4 -108v-137h-81z" />
    <glyph glyph-name="nu" unicode="&#x3bd;" horiz-adv-x="520" 
d="M221 0l-198 487h88l149 -384h1l149 384h87l-198 -487h-78z" />
    <glyph glyph-name="xi" unicode="&#x3be;" horiz-adv-x="478" 
d="M381 -212l-69 36q62 69 62 108q0 26 -24 42.5t-98 42.5q-45 16 -78 32.5t-64 41t-47.5 58.5t-16.5 76q0 55 36.5 103.5t98.5 72.5v1q-99 47 -99 156q0 87 59.5 136t138.5 49q104 0 193 -52l-33 -64q-78 41 -151 41q-56 1 -90.5 -31.5t-34.5 -81.5q0 -124 184 -124h67v-70
h-106q-83 0 -132 -39t-49 -92q0 -52 40.5 -85t123.5 -64q93 -34 129 -63t36 -77q-1 -35 -24 -78t-52 -75z" />
    <glyph glyph-name="omicron" unicode="&#x3bf;" horiz-adv-x="577" 
d="M289 -6q-109 0 -177.5 70t-68.5 179t68.5 179.5t177.5 70.5q107 0 176 -70t69 -180t-69 -179.5t-176 -69.5zM289 68q70 0 117 49t47 126t-47 126t-117 49q-72 0 -118 -49.5t-46 -125.5q0 -75 46 -125t118 -50z" />
    <glyph glyph-name="pi" unicode="&#x3c0;" horiz-adv-x="604" 
d="M584 487v-70h-93v-417h-81v417h-222v-417h-81v417h-82v70h559z" />
    <glyph glyph-name="rho" unicode="&#x3c1;" horiz-adv-x="594" 
d="M66 -198v438q0 111 66 182t171 71q108 0 178 -72t70 -181t-66.5 -177.5t-165.5 -68.5q-109 0 -170 82h-2v-274h-81zM303 68q73 0 119.5 49t46.5 123q0 79 -48 129t-118 50t-114.5 -51.5t-44.5 -127.5t46 -124t113 -48z" />
    <glyph glyph-name="uni03C2" unicode="&#x3c2;" horiz-adv-x="499" 
d="M369 -213l-69 37q2 2 9 9.5t9.5 10.5t8 9.5t8 10t7.5 10t7 10.5t5 10.5t4.5 11.5t2.5 11.5t1 12.5q0 26 -20.5 42t-77.5 38q-53 19 -88 37.5t-69 47t-50.5 69.5t-16.5 95q0 103 67.5 168.5t177.5 65.5q54 0 106 -22.5t88 -64.5l-56 -49q-53 62 -136 62q-75 0 -120 -45.5
t-45 -114.5t45 -108.5t142 -74.5q73 -26 104 -56.5t31 -80.5q0 -30 -13 -60.5t-26 -48t-36 -43.5z" />
    <glyph glyph-name="sigma" unicode="&#x3c3;" horiz-adv-x="588" 
d="M286 -6q-105 0 -173.5 67t-68.5 177q0 108 69.5 178.5t178.5 70.5h278v-70h-135l-1 -2q96 -73 96 -187q0 -101 -68 -167.5t-176 -66.5zM286 68q72 0 116 48t44 122q0 114 -106 179h-48q-72 0 -118.5 -51.5t-46.5 -127.5q0 -77 46 -123.5t113 -46.5z" />
    <glyph glyph-name="tau" unicode="&#x3c4;" horiz-adv-x="457" 
d="M280 -6q-64 0 -93 35.5t-29 109.5v278h-143v70h413v-70h-189v-257q0 -49 12 -70t51 -21q40 0 88 27l21 -72q-62 -30 -131 -30z" />
    <glyph glyph-name="upsilon" unicode="&#x3c5;" horiz-adv-x="555" 
d="M277 -6q-97 0 -155 61.5t-58 177.5v254h81v-244q0 -88 37 -131.5t95 -43.5q62 0 97.5 43t35.5 132v244h80v-254q0 -117 -56 -178t-157 -61z" />
    <glyph glyph-name="phi" unicode="&#x3c6;" horiz-adv-x="698" 
d="M653 264q0 -112 -73.5 -188.5t-196.5 -78.5v-195h-81v195q-111 2 -183 69t-72 177q0 141 101 256l81 -25q-100 -103 -100 -225q0 -76 47.5 -124.5t125.5 -53.5v227q0 97 42.5 146t107.5 49q89 0 145 -65.5t56 -163.5zM383 70q89 4 138.5 58t49.5 134q0 62 -30.5 109.5
t-82.5 47.5q-75 0 -75 -127v-222z" />
    <glyph glyph-name="chi" unicode="&#x3c7;" horiz-adv-x="514" 
d="M454 -204q-39 0 -64.5 24t-48.5 73l-85 179h-1l-148 -270h-89l200 352l-105 208q-15 30 -29 43t-35 13q-9 0 -22 -3l-10 65q26 13 58 13q38 0 63.5 -24.5t47.5 -72.5l73 -161h2l139 252h88l-189 -332l115 -229q28 -57 60 -57q2 0 26 4l9 -64q-26 -13 -55 -13z" />
    <glyph glyph-name="psi" unicode="&#x3c8;" horiz-adv-x="698" 
d="M555 487h81v-256q0 -115 -66.5 -175.5t-181.5 -61.5v-192h-81v192q-113 1 -179 61.5t-66 175.5v256h80v-245q0 -85 46 -128t119 -44v567h81v-567q75 1 121 43.5t46 128.5v245z" />
    <glyph glyph-name="omega" unicode="&#x3c9;" horiz-adv-x="754" 
d="M228 -6q-78 0 -130 66t-52 174q0 155 100 265l73 -19q-41 -49 -65.5 -112t-24.5 -127q0 -81 30 -127t79 -46q47 0 73 47t26 129v120h80v-120q0 -82 26 -129t74 -47t78 46t30 127q0 63 -24.5 126.5t-65.5 112.5l73 19q100 -108 100 -265q0 -108 -52 -174t-130 -66
q-108 0 -148 107h-2q-40 -107 -148 -107z" />
    <glyph glyph-name="iotadieresis" unicode="&#x3ca;" horiz-adv-x="265" 
d="M12 576q-25 0 -42 17t-17 41t17 41t42 17q24 0 41.5 -17t17.5 -41t-17.5 -41t-41.5 -17zM229 577q-24 0 -41 17t-17 40t17 40t41 17t41 -17t17 -40t-17 -40t-41 -17zM181 -6q-102 0 -102 118v375h81v-351q0 -38 7.5 -52.5t33.5 -14.5q18 0 48 8l8 -68q-41 -15 -76 -15z
" />
    <glyph glyph-name="upsilondieresis" unicode="&#x3cb;" horiz-adv-x="555" 
d="M169 576q-25 0 -42 17t-17 41t17 41t42 17q24 0 41.5 -17t17.5 -41t-17.5 -41t-41.5 -17zM386 577q-24 0 -41 17t-17 40t17 40t41 17t41 -17t17 -40t-17 -40t-41 -17zM277 -6q-97 0 -155 61.5t-58 177.5v254h81v-244q0 -88 37 -131.5t95 -43.5q62 0 97.5 43t35.5 132v244
h80v-254q0 -117 -56 -178t-157 -61z" />
    <glyph glyph-name="omicrontonos" unicode="&#x3cc;" horiz-adv-x="577" 
d="M248 557l59 164h93l-73 -164h-79zM289 -6q-109 0 -177.5 70t-68.5 179t68.5 179.5t177.5 70.5q107 0 176 -70t69 -180t-69 -179.5t-176 -69.5zM289 68q70 0 117 49t47 126t-47 126t-117 49q-72 0 -118 -49.5t-46 -125.5q0 -75 46 -125t118 -50z" />
    <glyph glyph-name="upsilontonos" unicode="&#x3cd;" horiz-adv-x="555" 
d="M238 557l59 164h93l-73 -164h-79zM277 -6q-97 0 -155 61.5t-58 177.5v254h81v-244q0 -88 37 -131.5t95 -43.5q62 0 97.5 43t35.5 132v244h80v-254q0 -117 -56 -178t-157 -61z" />
    <glyph glyph-name="omegatonos" unicode="&#x3ce;" horiz-adv-x="754" 
d="M337 557l59 164h93l-73 -164h-79zM228 -6q-78 0 -130 66t-52 174q0 155 100 265l73 -19q-41 -49 -65.5 -112t-24.5 -127q0 -81 30 -127t79 -46q47 0 73 47t26 129v120h80v-120q0 -82 26 -129t74 -47t78 46t30 127q0 63 -24.5 126.5t-65.5 112.5l73 19q100 -108 100 -265
q0 -108 -52 -174t-130 -66q-108 0 -148 107h-2q-40 -107 -148 -107z" />
    <glyph glyph-name="uni03D7" unicode="&#x3d7;" horiz-adv-x="582" 
d="M195 -216q-108 0 -189 49l16 73q73 -52 162 -52q136 0 266 142v4q-140 60 -192 218l-101 -106v-112h-81v487h81v-265l2 -1l251 266h99l-193 -206q36 -97 91 -151t148 -74v-47q-99 -121 -178.5 -173t-181.5 -52z" />
    <glyph glyph-name="uni0400" unicode="&#x400;" horiz-adv-x="593" 
d="M321 782l-122 129h92l112 -129h-82zM88 0v710h435v-79h-348v-238h285v-79h-285v-235h369v-79h-456z" />
    <glyph glyph-name="uni0401" unicode="&#x401;" horiz-adv-x="593" 
d="M217 811q-25 0 -41.5 17t-16.5 41q0 23 16.5 39.5t41.5 16.5q24 0 41 -17t17 -40t-17 -40t-41 -17zM398 811q-24 0 -41 17t-17 41q0 23 17 39.5t41 16.5t41 -17t17 -40t-17 -40t-41 -17zM88 0v710h435v-79h-348v-238h285v-79h-285v-235h369v-79h-456z" />
    <glyph glyph-name="uni0402" unicode="&#x402;" horiz-adv-x="790" 
d="M500 441q111 0 179.5 -58t68.5 -165q0 -108 -64.5 -166.5t-170.5 -58.5q-46 0 -91 9l7 74q38 -7 78 -7q72 0 111.5 37.5t39.5 106.5q0 71 -46 109t-131 38q-95 0 -165 -36v-324h-88v631h-212v79h515v-79h-215v-231q88 41 184 41z" />
    <glyph glyph-name="uni0403" unicode="&#x403;" horiz-adv-x="554" 
d="M218 782l112 129h93l-122 -129h-83zM88 0v710h436v-79h-349v-631h-87z" />
    <glyph glyph-name="uni0404" unicode="&#x404;" horiz-adv-x="724" 
d="M624 177l65 -55q-105 -127 -279 -127q-153 0 -253 92.5t-100 265.5q0 164 93.5 264t265.5 100q151 0 256 -108l-60 -59q-81 84 -198 84q-116 0 -185 -64t-80 -174h373l1 -78h-375q8 -112 79.5 -176.5t181.5 -64.5q133 0 215 100z" />
    <glyph glyph-name="uni0405" unicode="&#x405;" horiz-adv-x="580" 
d="M293 -6q-148 0 -251 110l56 67q37 -46 89.5 -71t106.5 -25q66 0 106 29t40 80q0 60 -59 94q-25 14 -100 42q-39 14 -63.5 24.5t-56 29.5t-49 39t-30.5 50t-13 66q0 79 62.5 133.5t154.5 54.5q121 0 224 -83l-53 -69q-87 72 -171 72q-53 0 -89.5 -27.5t-37.5 -76.5
q0 -25 9.5 -43t34.5 -33.5t45.5 -25t62.5 -25.5q108 -43 141 -64q78 -53 79 -148q0 -93 -69.5 -146.5t-168.5 -53.5z" />
    <glyph glyph-name="uni0406" unicode="&#x406;" horiz-adv-x="273" 
d="M93 0v710h87v-710h-87z" />
    <glyph glyph-name="uni0407" unicode="&#x407;" horiz-adv-x="273" 
d="M45 811q-25 0 -41.5 17t-16.5 41q0 23 16.5 39.5t41.5 16.5q24 0 41 -17t17 -40t-17 -40t-41 -17zM226 811q-24 0 -41 17t-17 41q0 23 17 39.5t41 16.5t41 -17t17 -40t-17 -40t-41 -17zM93 0v710h87v-710h-87z" />
    <glyph glyph-name="uni0408" unicode="&#x408;" horiz-adv-x="493" 
d="M217 -5q-50 0 -101.5 23.5t-86.5 67.5l50 64q63 -72 134 -72q116 0 116 155v477h88v-479q0 -236 -200 -236z" />
    <glyph glyph-name="uni0409" unicode="&#x409;" horiz-adv-x="1084" 
d="M794 433q247 0 247 -212q0 -221 -248 -221h-246v631h-252q-10 -202 -25 -336q-17 -156 -60 -227t-130 -71q-33 0 -61 8l7 73q12 -3 35 -3q57 0 84 59t43 191q16 136 23 385h423v-277h160zM793 79q158 0 158 138q0 137 -157 137h-160v-275h159z" />
    <glyph glyph-name="uni040A" unicode="&#x40a;" horiz-adv-x="1076" 
d="M789 418q125 0 184.5 -53.5t59.5 -149.5q0 -215 -246 -215h-253v327h-359v-327h-87v710h87v-304h359v304h87v-292h168zM787 79q156 0 156 131q0 62 -38.5 95.5t-115.5 33.5h-168v-260h166z" />
    <glyph glyph-name="uni040B" unicode="&#x40b;" horiz-adv-x="780" 
d="M516 446q104 0 150.5 -57.5t46.5 -174.5v-214h-87v207q0 87 -33 121.5t-103 34.5q-94 0 -174 -42v-321h-88v631h-212v79h515v-79h-215v-233q104 48 200 48z" />
    <glyph glyph-name="uni040C" unicode="&#x40c;" horiz-adv-x="646" 
d="M245 782l112 129h93l-122 -129h-83zM88 0v710h87v-389h2l322 389h112l-275 -324l282 -386h-109l-231 318l-103 -121v-197h-87z" />
    <glyph glyph-name="uni040D" unicode="&#x40d;" horiz-adv-x="734" 
d="M383 782l-122 129h92l112 -129h-82zM88 0v710h87v-565h2l393 565h76v-710h-87v560h-2l-391 -560h-78z" />
    <glyph glyph-name="uni040E" unicode="&#x40e;" horiz-adv-x="643" 
d="M325 775q-62 0 -105 31.5t-54 98.5l72 8q4 -33 25.5 -59t61.5 -26t62 26t25 59l72 -8q-11 -67 -54 -98.5t-105 -31.5zM531 710h93l-236 -529q-44 -98 -66 -127q-46 -61 -124 -61q-28 0 -62 10t-52 27l30 75q39 -28 83 -28q40 0 64.5 27.5t44.5 86.5l-287 519h98l227 -419
h3z" />
    <glyph glyph-name="uni040F" unicode="&#x40f;" horiz-adv-x="696" 
d="M609 710v-710h-222l-2 -140h-73l-2 140h-222v710h87v-631h346v631h88z" />
    <glyph glyph-name="uni0410" unicode="&#x410;" horiz-adv-x="676" 
d="M25 0l269 710h87l270 -710h-91l-64 173h-317l-63 -173h-91zM207 249h262l-131 356h-2z" />
    <glyph glyph-name="uni0411" unicode="&#x411;" horiz-adv-x="623" 
d="M88 0v710h430v-79h-343v-204h152q126 0 186.5 -54.5t60.5 -153.5q0 -219 -248 -219h-238zM175 79h151q158 0 158 136q0 65 -39.5 100t-117.5 35h-152v-271z" />
    <glyph glyph-name="uni0412" unicode="&#x412;" horiz-adv-x="635" 
d="M88 0v710h232q108 0 168.5 -42.5t60.5 -130.5q0 -54 -29 -98.5t-84 -63.5v-2q66 -13 107 -59.5t41 -120.5q0 -88 -60 -140.5t-177 -52.5h-259zM175 404h146q61 0 100 28t39 88q0 112 -149 112l-136 -1v-227zM175 79h164q72 0 113 30.5t41 90.5q0 61 -43 94.5t-124 33.5
h-151v-249z" />
    <glyph glyph-name="uni0413" unicode="&#x413;" horiz-adv-x="554" 
d="M88 0v710h436v-79h-349v-631h-87z" />
    <glyph glyph-name="uni0414" unicode="&#x414;" horiz-adv-x="792" 
d="M753 79v-219h-73l-4 140h-583l-4 -140h-73v219h96q69 122 96 286q21 128 23 345h424v-631h98zM291 337q-28 -160 -85 -258h362v552h-252q-2 -169 -25 -294z" />
    <glyph glyph-name="uni0415" unicode="&#x415;" horiz-adv-x="593" 
d="M88 0v710h435v-79h-348v-238h285v-79h-285v-235h369v-79h-456z" />
    <glyph glyph-name="uni0416" unicode="&#x416;" horiz-adv-x="942" 
d="M26 0l245 388l-244 322h106l292 -390h1v390h84v-395l2 -1l286 396h105l-235 -323l248 -387h-102l-211 327l-93 -120v-207h-84v209l-92 120l-207 -329h-101z" />
    <glyph glyph-name="uni0417" unicode="&#x417;" horiz-adv-x="607" 
d="M300 -6q-167 0 -262 110l56 67q72 -96 208 -96q76 0 120.5 33.5t44.5 93.5t-44.5 94t-129.5 34h-114v76h108q65 0 106 31t41 89q0 53 -36.5 81t-104.5 28q-100 0 -179 -62l-48 67q36 34 102.5 55.5t134.5 21.5q102 0 161 -47.5t59 -128.5q0 -55 -29 -100t-86 -64v-1
q68 -14 109 -57.5t41 -116.5q0 -93 -68.5 -150.5t-189.5 -57.5z" />
    <glyph glyph-name="uni0418" unicode="&#x418;" horiz-adv-x="734" 
d="M88 0v710h87v-565h2l393 565h76v-710h-87v560h-2l-391 -560h-78z" />
    <glyph glyph-name="uni0419" unicode="&#x419;" horiz-adv-x="734" 
d="M370 775q-62 0 -105 31.5t-54 98.5l72 8q4 -33 25.5 -59t61.5 -26t62 26t25 59l72 -8q-11 -67 -54 -98.5t-105 -31.5zM88 0v710h87v-565h2l393 565h76v-710h-87v560h-2l-391 -560h-78z" />
    <glyph glyph-name="uni041A" unicode="&#x41a;" horiz-adv-x="646" 
d="M88 0v710h87v-389h2l322 389h112l-275 -324l282 -386h-109l-231 318l-103 -121v-197h-87z" />
    <glyph glyph-name="uni041B" unicode="&#x41b;" horiz-adv-x="722" 
d="M211 710h423v-710h-87v631h-252q-10 -202 -25 -336q-17 -156 -60 -227t-130 -71q-33 0 -61 8l7 73q12 -3 35 -3q57 0 84 59t43 191q16 136 23 385z" />
    <glyph glyph-name="uni041C" unicode="&#x41c;" horiz-adv-x="875" 
d="M88 0v710h88l261 -459h2l261 459h87v-710h-87v541h-2l-231 -398h-59l-231 398h-1v-541h-88z" />
    <glyph glyph-name="uni041D" unicode="&#x41d;" horiz-adv-x="721" 
d="M88 0v710h87v-333h371v333h87v-710h-87v298h-371v-298h-87z" />
    <glyph glyph-name="uni041E" unicode="&#x41e;" horiz-adv-x="825" 
d="M414 -6q-156 0 -256.5 101.5t-100.5 259.5t101 260t256 102q152 0 253 -101t101 -261t-101 -260.5t-253 -100.5zM414 76q112 0 187.5 78.5t75.5 200.5t-75.5 201t-187.5 79q-115 0 -190.5 -79.5t-75.5 -200.5q0 -120 75.5 -199.5t190.5 -79.5z" />
    <glyph glyph-name="uni041F" unicode="&#x41f;" horiz-adv-x="696" 
d="M88 0v710h521v-710h-88v631h-346v-631h-87z" />
    <glyph glyph-name="uni0420" unicode="&#x420;" horiz-adv-x="613" 
d="M88 0v710h248q119 0 177 -60t58 -160q0 -109 -67.5 -164t-182.5 -55h-146v-271h-87zM175 350h138q85 0 126.5 38.5t41.5 103.5q0 67 -41 103t-113 36h-152v-281z" />
    <glyph glyph-name="uni0421" unicode="&#x421;" horiz-adv-x="724" 
d="M411 -5q-151 0 -252.5 95t-101.5 263q0 157 94 260.5t259 103.5q166 0 277 -136l-65 -54q-86 107 -212 107q-119 0 -190.5 -78.5t-71.5 -202.5q0 -125 74 -200.5t189 -75.5q127 0 212 107l65 -55q-108 -134 -277 -134z" />
    <glyph glyph-name="uni0422" unicode="&#x422;" horiz-adv-x="573" 
d="M242 0v631h-212v79h514v-79h-215v-631h-87z" />
    <glyph glyph-name="uni0423" unicode="&#x423;" horiz-adv-x="643" 
d="M531 710h93l-236 -529q-44 -98 -66 -127q-46 -61 -124 -61q-28 0 -62 10t-52 27l30 75q39 -28 83 -28q40 0 64.5 27.5t44.5 86.5l-287 519h98l227 -419h3z" />
    <glyph glyph-name="uni0424" unicode="&#x424;" horiz-adv-x="850" 
d="M803 361q0 -127 -89 -205.5t-245 -82.5v-73h-88v73q-155 4 -244 82.5t-89 205.5q0 133 89 216t244 87v65h88v-65q155 -4 244.5 -87.5t89.5 -215.5zM139 361q0 -92 64.5 -149t179.5 -61v434q-116 -3 -180 -64t-64 -160zM467 151q116 4 180.5 60.5t64.5 149.5q0 98 -64 159
t-181 65v-434z" />
    <glyph glyph-name="uni0425" unicode="&#x425;" horiz-adv-x="663" 
d="M33 0l241 355l-238 355h101l195 -287h1l194 287h101l-239 -355l242 -355h-103l-196 286h-2l-196 -286h-101z" />
    <glyph glyph-name="uni0426" unicode="&#x426;" horiz-adv-x="735" 
d="M696 79v-219h-73l-4 140h-531v710h87v-631h336v631h87v-631h98z" />
    <glyph glyph-name="uni0427" unicode="&#x427;" horiz-adv-x="647" 
d="M472 710h87v-710h-87v294q-38 -20 -95 -33t-106 -13q-106 0 -155 57.5t-49 174.5v230h87v-217q0 -93 33 -128.5t107 -35.5q107 0 178 42v339z" />
    <glyph glyph-name="uni0428" unicode="&#x428;" horiz-adv-x="968" 
d="M793 710h88v-710h-793v710h87v-631h266v631h87v-631h265v631z" />
    <glyph glyph-name="uni0429" unicode="&#x429;" horiz-adv-x="1017" 
d="M979 79v-219h-73l-4 140h-814v710h87v-631h266v631h87v-631h265v631h88v-631h98z" />
    <glyph glyph-name="uni042A" unicode="&#x42a;" horiz-adv-x="724" 
d="M434 433q248 0 248 -212q0 -221 -248 -221h-247v631h-180v79h267v-277h160zM434 79q157 0 157 138q0 137 -157 137h-160v-275h160z" />
    <glyph glyph-name="uni042B" unicode="&#x42b;" horiz-adv-x="848" 
d="M88 0v710h87v-277h140q247 0 247 -212q0 -221 -248 -221h-226zM673 0v710h87v-710h-87zM175 79h139q158 0 158 138q0 137 -157 137h-140v-275z" />
    <glyph glyph-name="uni042C" unicode="&#x42c;" horiz-adv-x="625" 
d="M88 0v710h87v-277h160q247 0 247 -212q0 -221 -248 -221h-246zM175 79h159q158 0 158 138q0 137 -157 137h-160v-275z" />
    <glyph glyph-name="uni042D" unicode="&#x42d;" horiz-adv-x="724" 
d="M317 717q164 0 257 -100.5t93 -263.5q0 -170 -98 -264t-249 -94q-83 0 -156.5 29.5t-122.5 82.5l52 68q38 -43 99.5 -70.5t129.5 -27.5q108 0 177.5 65t77.5 176h-379l1 78h378q-8 109 -78.5 174t-182.5 65q-119 0 -207 -74l-50 67q108 89 258 89z" />
    <glyph glyph-name="uni042E" unicode="&#x42e;" horiz-adv-x="1043" 
d="M645 717q155 0 250 -100.5t95 -261.5t-95 -261t-250 -100q-134 0 -227 85.5t-110 218.5h-138v-298h-87v710h87v-333h136q9 150 103.5 245t235.5 95zM645 76q114 0 184 78t70 201t-70 201.5t-184 78.5q-108 0 -180 -81.5t-72 -204.5q0 -115 72.5 -194t179.5 -79z" />
    <glyph glyph-name="uni042F" unicode="&#x42f;" horiz-adv-x="655" 
d="M45 0l183 280q-156 45 -156 206q0 106 62 165t180 59h254v-710h-87v266h-163l-169 -266h-104zM337 345h144v286h-155q-78 0 -121 -36.5t-43 -107.5q0 -65 43 -103.5t132 -38.5z" />
    <glyph glyph-name="uni0430" unicode="&#x430;" horiz-adv-x="604" 
d="M281 -6q-102 0 -169.5 68.5t-67.5 177.5t67 181t170 72q54 0 99 -24.5t71 -68.5l2 1v86h81v-487h-78v88h-1q-57 -94 -174 -94zM293 68q69 0 116 48t47 124t-46 127.5t-117 51.5t-119 -50t-48 -129q0 -74 46.5 -123t120.5 -49z" />
    <glyph glyph-name="uni0431" unicode="&#x431;" horiz-adv-x="601" 
d="M318 -6q-128 0 -191.5 86.5t-62.5 230.5q0 70 4.5 120t19.5 100t41.5 83t71.5 58.5t108 36.5l188 33l23 -72l-195 -35q-58 -11 -94.5 -31.5t-55.5 -57t-26 -72.5t-12 -99l2 -1q57 115 190 115q96 0 162.5 -69t66.5 -175q0 -109 -70 -180t-170 -71zM315 67
q66 0 113.5 50.5t47.5 127.5q0 74 -47.5 122.5t-116.5 48.5q-74 0 -119 -50.5t-46 -113.5q0 -72 44 -128.5t124 -56.5z" />
    <glyph glyph-name="uni0432" unicode="&#x432;" horiz-adv-x="536" 
d="M76 0v487h227q165 0 165 -119q0 -87 -80 -112v-1q47 -9 76 -40t29 -79q0 -136 -183 -136h-234zM155 281h141q92 0 92 71q0 66 -89 66h-144v-137zM155 69h149q106 0 106 74q0 73 -101 73h-154v-147z" />
    <glyph glyph-name="uni0433" unicode="&#x433;" horiz-adv-x="437" 
d="M76 0v487h334v-72h-253v-415h-81z" />
    <glyph glyph-name="uni0434" unicode="&#x434;" horiz-adv-x="612" 
d="M584 72v-206h-69l-5 134h-415l-5 -134h-68v206h77q45 76 63 181q17 93 19 234h318v-415h85zM183 72h235v343h-160q-4 -114 -20 -186q-19 -90 -55 -157z" />
    <glyph glyph-name="uni0435" unicode="&#x435;" horiz-adv-x="552" 
d="M509 252q0 -7 -1 -19t-1 -14h-380q8 -69 53 -110t114 -41q88 0 141 65l57 -48q-71 -91 -201 -91q-109 0 -177.5 69t-68.5 180q0 110 67.5 180t172.5 70q99 0 161.5 -68t62.5 -173zM284 419q-59 0 -101.5 -36t-53.5 -98h299q-9 61 -47 97.5t-97 36.5z" />
    <glyph glyph-name="uni0436" unicode="&#x436;" horiz-adv-x="775" 
d="M22 0l190 270l-187 217h98l223 -259h2v259h78v-262h1l220 262h95l-182 -216l193 -271h-94l-157 227l-76 -86v-141h-78v142l-79 85l-156 -227h-91z" />
    <glyph glyph-name="uni0437" unicode="&#x437;" horiz-adv-x="490" 
d="M239 -6q-119 0 -199 51l25 73q73 -52 174 -52q58 0 91.5 20.5t33.5 58.5q0 70 -107 70h-110v65h97q97 0 97 69q0 71 -104 71q-83 0 -149 -37l-31 66q76 44 179 44q86 0 136 -33t50 -91q0 -39 -21.5 -69t-60.5 -43v-1q46 -11 76.5 -41.5t30.5 -79.5q0 -64 -54.5 -102.5
t-153.5 -38.5z" />
    <glyph glyph-name="uni0438" unicode="&#x438;" horiz-adv-x="587" 
d="M76 0v487h81v-370h2l275 370h77v-487h-81v362h-2l-274 -362h-78z" />
    <glyph glyph-name="uni0439" unicode="&#x439;" horiz-adv-x="587" 
d="M299 554q-62 0 -105 32t-54 101l72 13q3 -38 25 -65.5t62 -27.5q41 0 62.5 27.5t24.5 65.5l72 -13q-11 -69 -54 -101t-105 -32zM76 0v487h81v-370h2l275 370h77v-487h-81v362h-2l-274 -362h-78z" />
    <glyph glyph-name="uni043A" unicode="&#x43a;" horiz-adv-x="537" 
d="M76 0v487h81v-266h2l245 266h100l-195 -210l206 -277h-96l-168 228l-94 -100v-128h-81z" />
    <glyph glyph-name="uni043B" unicode="&#x43b;" horiz-adv-x="563" 
d="M155 487h332v-487h-81v415h-172q-8 -160 -16 -224q-26 -195 -155 -195q-25 0 -43 7l6 70q12 -2 23 -2q76 0 93 146q8 80 13 270z" />
    <glyph glyph-name="uni043C" unicode="&#x43c;" horiz-adv-x="678" 
d="M76 0v487h79l183 -312h2l184 312h78v-487h-78v350h-2l-156 -265h-55l-155 264h-2v-349h-78z" />
    <glyph glyph-name="uni043D" unicode="&#x43d;" horiz-adv-x="577" 
d="M76 0v487h81v-214h263v214h81v-487h-81v203h-263v-203h-81z" />
    <glyph glyph-name="uni043E" unicode="&#x43e;" horiz-adv-x="593" 
d="M297 -6q-112 0 -182 71t-70 178t70 178.5t182 71.5q109 0 180 -70t71 -180t-71 -179.5t-180 -69.5zM297 68q71 0 119.5 49t48.5 126t-48.5 126.5t-119.5 49.5q-75 0 -122 -51t-47 -125t47.5 -124.5t121.5 -50.5z" />
    <glyph glyph-name="uni043F" unicode="&#x43f;" horiz-adv-x="566" 
d="M76 0v487h414v-487h-81v415h-252v-415h-81z" />
    <glyph glyph-name="uni0440" unicode="&#x440;" horiz-adv-x="614" 
d="M76 -198v685h81v-86h1q59 92 173 92q103 0 170 -72t67 -181t-67.5 -177.5t-169.5 -68.5q-115 0 -173 90h-1v-282h-81zM320 68q73 0 119.5 49t46.5 123q0 79 -48 129t-119 50q-73 0 -119.5 -51.5t-46.5 -127.5t48 -124t119 -48z" />
    <glyph glyph-name="uni0441" unicode="&#x441;" horiz-adv-x="521" 
d="M288 -6q-107 0 -175 69t-68 180q0 110 68.5 180t177.5 70q56 0 108.5 -22.5t87.5 -64.5l-55 -49q-53 62 -137 62q-75 0 -121 -49t-46 -127t46 -126.5t120 -48.5q89 0 139 62l56 -51q-71 -85 -201 -85z" />
    <glyph glyph-name="uni0442" unicode="&#x442;" horiz-adv-x="458" 
d="M189 0v415h-163v72h407v-72h-163v-415h-81z" />
    <glyph glyph-name="uni0443" unicode="&#x443;" horiz-adv-x="525" 
d="M142 -198l87 217l-207 468h88l158 -370h2l147 370h85l-276 -685h-84z" />
    <glyph glyph-name="uni0444" unicode="&#x444;" horiz-adv-x="699" 
d="M662 241q0 -107 -74 -175t-198 -72v-192h-81v192q-126 3 -198.5 70.5t-72.5 176.5q0 108 73.5 178.5t197.5 73.5v243h81v-243q125 -1 198.5 -71t73.5 -181zM389 64q93 4 141.5 51.5t48.5 125.5q0 80 -50.5 128.5t-139.5 53.5v-359zM120 240q0 -79 49 -125.5t142 -50.5
v358q-90 -4 -140.5 -53.5t-50.5 -128.5z" />
    <glyph glyph-name="uni0445" unicode="&#x445;" horiz-adv-x="506" 
d="M29 0l177 247l-177 240h96l126 -178h2l128 178h95l-176 -241l178 -246h-92l-132 177h-1l-133 -177h-91z" />
    <glyph glyph-name="uni0446" unicode="&#x446;" horiz-adv-x="594" 
d="M566 72v-206h-69l-5 134h-416v487h81v-415h239v415h81v-415h89z" />
    <glyph glyph-name="uni0447" unicode="&#x447;" horiz-adv-x="532" 
d="M375 487h81v-487h-81v192q-70 -34 -153 -34q-91 0 -133.5 43.5t-42.5 137.5v148h81v-130q0 -75 28 -101t88 -26q67 0 132 29v228z" />
    <glyph glyph-name="uni0448" unicode="&#x448;" horiz-adv-x="815" 
d="M74 0v487h81v-415h212v415h81v-415h211v415h81v-487h-666z" />
    <glyph glyph-name="uni0449" unicode="&#x449;" horiz-adv-x="856" 
d="M829 72v-206h-68l-5 134h-682v487h81v-415h212v415h81v-415h211v415h81v-415h89z" />
    <glyph glyph-name="uni044A" unicode="&#x44a;" horiz-adv-x="567" 
d="M346 324q187 0 187 -162t-194 -162h-192v415h-139v72h220v-163h118zM340 70q110 0 110 91q0 95 -107 95h-115v-186h112z" />
    <glyph glyph-name="uni044B" unicode="&#x44b;" horiz-adv-x="701" 
d="M76 0v487h81v-162h109q186 0 186 -163q0 -162 -193 -162h-183zM544 0v487h81v-487h-81zM157 70h102q111 0 111 91q0 95 -107 95h-106v-186z" />
    <glyph glyph-name="uni044C" unicode="&#x44c;" horiz-adv-x="495" 
d="M76 0v487h81v-163h118q187 0 187 -162t-194 -162h-192zM157 70h112q110 0 110 91q0 95 -107 95h-115v-186z" />
    <glyph glyph-name="uni044D" unicode="&#x44d;" horiz-adv-x="528" 
d="M229 493q118 0 186 -69t68 -183q0 -111 -64 -179t-191 -68q-56 0 -109.5 17.5t-83.5 44.5l42 61q65 -51 159 -50q72 1 114.5 38.5t50.5 107.5h-269v66h269q-9 66 -55 102.5t-119 37.5q-69 1 -144 -36l-31 66q73 44 177 44z" />
    <glyph glyph-name="uni044E" unicode="&#x44e;" horiz-adv-x="791" 
d="M504 493q106 0 174.5 -70t68.5 -180t-68.5 -179.5t-174.5 -69.5q-98 0 -162.5 58t-76.5 151h-110v-203h-81v487h81v-214h108q10 97 75.5 158.5t165.5 61.5zM504 68q69 0 115 49t46 126t-46.5 126.5t-114.5 49.5q-72 0 -116.5 -50t-44.5 -126q0 -75 44.5 -125t116.5 -50z
" />
    <glyph glyph-name="uni044F" unicode="&#x44f;" horiz-adv-x="537" 
d="M246 487h215v-487h-81v175h-124l-126 -175h-92l133 183q-56 14 -85.5 51.5t-29.5 92.5q0 75 48 117.5t142 42.5zM380 245v172h-135q-107 0 -107 -90q0 -82 103 -82h139z" />
    <glyph glyph-name="uni0450" unicode="&#x450;" horiz-adv-x="551" 
d="M352 558h-82l-121 138l92 -1zM509 252q0 -7 -1 -19t-1 -14h-380q8 -69 53 -110t114 -41q88 0 141 65l57 -48q-71 -91 -201 -91q-109 0 -177.5 69t-68.5 180q0 110 67.5 180t172.5 70q99 0 161.5 -68t62.5 -173zM284 419q-59 0 -101.5 -36t-53.5 -98h299q-9 61 -47 97.5
t-97 36.5z" />
    <glyph glyph-name="uni0451" unicode="&#x451;" horiz-adv-x="552" 
d="M196 577q-25 0 -41.5 17t-16.5 41q0 23 16.5 39.5t41.5 16.5q24 0 41 -17t17 -40t-17 -40t-41 -17zM377 577q-24 0 -41 17t-17 41q0 23 17 39.5t41 16.5t41 -17t17 -40t-17 -40t-41 -17zM509 252q0 -7 -1 -19t-1 -14h-380q8 -69 53 -110t114 -41q88 0 141 65l57 -48
q-71 -91 -201 -91q-109 0 -177.5 69t-68.5 180q0 110 67.5 180t172.5 70q99 0 161.5 -68t62.5 -173zM284 419q-59 0 -101.5 -36t-53.5 -98h299q-9 61 -47 97.5t-97 36.5z" />
    <glyph glyph-name="uni0452" unicode="&#x452;" horiz-adv-x="572" 
d="M511 -21q1 -92 -39 -137.5t-123 -45.5q-37 0 -72 14l6 66q29 -11 56 -11q49 0 70 24t21 83l1 261q0 149 -114 149q-75 0 -118 -46t-43 -128v-208h-81v556h-70v68h70v112h81v-112h192v-68h-192v-190h1q62 90 183 90q78 0 124.5 -50.5t46.5 -150.5v-276z" />
    <glyph glyph-name="uni0453" unicode="&#x453;" horiz-adv-x="437" 
d="M158 557l118 141l91 1l-124 -142h-85zM76 0v487h334v-72h-253v-415h-81z" />
    <glyph glyph-name="uni0454" unicode="&#x454;" horiz-adv-x="528" 
d="M445 119l51 -53q-28 -33 -80 -52.5t-113 -19.5q-128 0 -193 69.5t-65 180.5q0 110 68 179.5t184 69.5q114 0 183 -63l-50 -53q-51 42 -130 42q-71 0 -116.5 -37t-55.5 -103h268v-66h-268q9 -69 55 -107.5t123 -38.5q90 0 139 52z" />
    <glyph glyph-name="uni0455" unicode="&#x455;" horiz-adv-x="437" 
d="M223 -6q-111 0 -190 69l41 62q61 -59 149 -59q43 0 68 18.5t25 47.5q0 33 -45 54q-12 5 -71 27q-35 12 -57 23t-44.5 28t-33.5 41.5t-11 56.5q0 56 45.5 93.5t114.5 37.5q94 0 168 -60l-42 -64q-56 52 -129 52q-30 0 -52.5 -16t-22.5 -43q0 -26 23 -42.5t69 -33.5
q95 -37 118 -51q53 -35 52 -102q0 -60 -45.5 -99.5t-129.5 -39.5z" />
    <glyph glyph-name="uni0456" unicode="&#x456;" horiz-adv-x="245" 
d="M123 576q-25 0 -42 17t-17 41t17 41t42 17t42 -17t17 -41t-17 -41t-42 -17zM82 0v487h81v-487h-81z" />
    <glyph glyph-name="uni0457" unicode="&#x457;" horiz-adv-x="245" 
d="M32 577q-25 0 -41.5 17t-16.5 41q0 23 16.5 39.5t41.5 16.5q24 0 41 -17t17 -40t-17 -40t-41 -17zM213 577q-24 0 -41 17t-17 41q0 23 17 39.5t41 16.5t41 -17t17 -40t-17 -40t-41 -17zM82 0v487h81v-487h-81z" />
    <glyph glyph-name="uni0458" unicode="&#x458;" horiz-adv-x="224" 
d="M114 576q-25 0 -42 17t-17 41t17 41t42 17t42 -17t17 -41t-17 -41t-42 -17zM32 -204q-46 0 -84 16l13 72q24 -15 55 -15q58 0 58 80v538h81v-538q0 -71 -32.5 -112t-90.5 -41z" />
    <glyph glyph-name="uni0459" unicode="&#x459;" horiz-adv-x="812" 
d="M598 324q187 0 187 -162t-194 -162h-192v415h-169q-8 -160 -16 -224q-26 -195 -153 -195q-26 0 -43 7l6 70q12 -2 23 -2q76 0 93 146q8 80 13 270h327v-163h118zM592 70q110 0 110 91q0 95 -107 95h-115v-186h112z" />
    <glyph glyph-name="uni045A" unicode="&#x45a;" horiz-adv-x="839" 
d="M637 305q175 0 175 -153q0 -152 -182 -152h-220v223h-255v-223h-81v487h81v-194h255v194h81v-182h146zM627 70q102 0 102 81q0 85 -98 85h-140v-166h136z" />
    <glyph glyph-name="uni045B" unicode="&#x45b;" horiz-adv-x="572" 
d="M340 456q78 0 124.5 -50.5t46.5 -150.5v-255h-81v233q0 149 -113 149q-75 0 -118 -46t-43 -128v-208h-81v556h-70v68h70v112h81v-112h192v-68h-192v-190h1q62 90 183 90z" />
    <glyph glyph-name="uni045C" unicode="&#x45c;" horiz-adv-x="537" 
d="M187 557l118 141l91 1l-124 -142h-85zM76 0v487h81v-266h2l245 266h100l-195 -210l206 -277h-96l-168 228l-94 -100v-128h-81z" />
    <glyph glyph-name="uni045D" unicode="&#x45d;" horiz-adv-x="587" 
d="M294 558l-121 138l92 -1l111 -137h-82zM76 0v487h81v-370h2l275 370h77v-487h-81v362h-2l-274 -362h-78z" />
    <glyph glyph-name="uni045E" unicode="&#x45e;" horiz-adv-x="525" 
d="M264 554q-62 0 -105 32t-54 101l72 13q3 -38 25 -65.5t62 -27.5q41 0 62.5 27.5t24.5 65.5l72 -13q-11 -69 -54 -101t-105 -32zM142 -198l87 217l-207 468h88l158 -370h2l147 370h85l-276 -685h-84z" />
    <glyph glyph-name="uni045F" unicode="&#x45f;" horiz-adv-x="557" 
d="M481 487v-487h-165l-2 -134h-68l-3 134h-167v487h81v-415h243v415h81z" />
    <glyph glyph-name="uni0462" unicode="&#x462;" horiz-adv-x="718" 
d="M428 425q126 0 186.5 -54.5t60.5 -152.5q0 -218 -247 -218h-250v544h-169v74h169v92h88v-92h247v-74h-247v-119h162zM428 79q157 0 157 134q0 64 -39.5 98.5t-117.5 34.5h-162v-267h162z" />
    <glyph glyph-name="uni0463" unicode="&#x463;" horiz-adv-x="565" 
d="M353 311q178 0 178 -155q0 -156 -186 -156h-206v416h-138v71h138v249h80v-249h175v-71h-175v-105h134zM346 70q103 0 103 85q0 88 -99 88h-131v-173h127z" />
    <glyph glyph-name="uni0472" unicode="&#x472;" horiz-adv-x="825" 
d="M413 717q152 0 253.5 -101t101.5 -261t-101.5 -260.5t-253.5 -100.5q-157 0 -256.5 102.5t-99.5 258.5t99.5 259t256.5 103zM413 638q-108 0 -181.5 -69.5t-85.5 -176.5h532q-12 109 -86.5 177.5t-178.5 68.5zM413 72q104 0 178 68t87 178h-532q12 -107 85.5 -176.5
t181.5 -69.5z" />
    <glyph glyph-name="uni0473" unicode="&#x473;" horiz-adv-x="593" 
d="M297 493q110 0 180.5 -69t70.5 -181q0 -111 -70.5 -180t-180.5 -69q-113 0 -182.5 70.5t-69.5 178.5t70 179t182 71zM297 420q-70 0 -115.5 -39t-55.5 -105h342q-10 66 -57.5 105t-113.5 39zM297 67q67 0 114 40t57 106h-342q9 -65 55 -105.5t116 -40.5z" />
    <glyph glyph-name="uni0474" unicode="&#x474;" horiz-adv-x="726" 
d="M298 0l-268 710h93l215 -588h1l145 446q26 83 60 115.5t94 32.5q67 0 99 -28l-19 -70q-32 21 -69 21q-33 0 -51 -23t-35 -74l-187 -542h-78z" />
    <glyph glyph-name="uni0475" unicode="&#x475;" horiz-adv-x="544" 
d="M222 0l-199 487h87l150 -384h1l96 277q20 62 43 87t68 25q44 0 76 -19l-17 -65q-20 11 -39 11q-21 0 -32.5 -15.5t-26.5 -55.5l-131 -348h-76z" />
    <glyph glyph-name="uni048A" unicode="&#x48a;" horiz-adv-x="751" 
d="M370 775q-62 0 -105 31.5t-54 98.5l72 8q4 -33 25.5 -59t61.5 -26t62 26t25 59l72 -8q-11 -67 -54 -98.5t-105 -31.5zM646 79h83v-32l-75 -187h-64l43 140h-74v560h-2l-391 -560h-78v710h87v-565h2l393 565h76v-631z" />
    <glyph glyph-name="uni048B" unicode="&#x48b;" horiz-adv-x="609" 
d="M299 554q-62 0 -105 32t-54 101l72 13q3 -38 25 -65.5t62 -27.5q41 0 62.5 27.5t24.5 65.5l72 -13q-11 -69 -54 -101t-105 -32zM511 72h76v-19l-73 -187h-57l41 134h-68v362h-2l-274 -362h-78v487h81v-370h2l275 370h77v-415z" />
    <glyph glyph-name="uni048C" unicode="&#x48c;" horiz-adv-x="647" 
d="M357 425q126 0 186.5 -54.5t60.5 -152.5q0 -218 -248 -218h-249v551h-100v70h100v89h87v-89h154v-70h-154v-126h163zM356 79q158 0 158 134q0 64 -39.5 98.5t-117.5 34.5h-163v-267h162z" />
    <glyph glyph-name="uni048D" unicode="&#x48d;" horiz-adv-x="504" 
d="M292 311q178 0 178 -155q0 -156 -185 -156h-207v403h-70v57h70v53h81v-53h175v-57h-175v-92h133zM285 70q103 0 103 85q0 88 -99 88h-130v-173h126z" />
    <glyph glyph-name="uni048E" unicode="&#x48e;" horiz-adv-x="615" 
d="M574 490q0 -146 -122 -197l72 -134l-64 -33l-80 149q-24 -4 -56 -4h-149v-271h-87v710h251q119 0 177 -60t58 -160zM315 350q19 0 27 1l-66 122l60 29l74 -137q74 31 74 127q0 67 -41 103t-113 36h-155v-281h140z" />
    <glyph glyph-name="uni048F" unicode="&#x48f;" horiz-adv-x="614" 
d="M568 240q0 -68 -28 -122.5t-76 -85.5l63 -112l-54 -30l-67 115q-36 -11 -75 -11q-115 0 -173 90h-1v-282h-81v685h81v-86h1q59 92 173 92q103 0 170 -72t67 -181zM320 68q28 0 49 7l-69 117l52 28l69 -119q65 48 65 139q0 79 -48 129t-119 50q-73 0 -119.5 -51.5
t-46.5 -127.5t48 -124t119 -48z" />
    <glyph glyph-name="uni0490" unicode="&#x490;" horiz-adv-x="554" 
d="M451 850h73v-219h-349v-631h-87v710h359z" />
    <glyph glyph-name="uni0491" unicode="&#x491;" horiz-adv-x="437" 
d="M342 621h68v-206h-253v-415h-81v487h261z" />
    <glyph glyph-name="uni0492" unicode="&#x492;" horiz-adv-x="579" 
d="M549 631h-349v-253h192v-69h-192v-309h-87v309h-102v69h102v332h436v-79z" />
    <glyph glyph-name="uni0493" unicode="&#x493;" horiz-adv-x="437" 
d="M410 415h-253v-164h185v-58h-185v-193h-81v193h-71v58h71v236h334v-72z" />
    <glyph glyph-name="uni0494" unicode="&#x494;" horiz-adv-x="649" 
d="M332 395q123 0 195.5 -75t72.5 -214q0 -151 -73 -229.5t-194 -78.5q-47 0 -86 9l7 74q36 -7 74 -7q83 0 132.5 58t49.5 164q0 110 -53 164t-142 54q-71 0 -140 -26v-288h-87v710h436v-79h-349v-265q79 29 157 29z" />
    <glyph glyph-name="uni0495" unicode="&#x495;" horiz-adv-x="521" 
d="M504 38q1 -119 -61 -180.5t-166 -61.5q-41 0 -74 9l6 67q35 -6 60 -6q71 0 112 45.5t41 120.5q0 76 -41 116t-113 40q-60 0 -111 -18v-170h-81v487h334v-72h-253v-178q62 23 125 23q98 0 159.5 -58t62.5 -164z" />
    <glyph glyph-name="uni0496" unicode="&#x496;" horiz-adv-x="988" 
d="M951 79v-219h-73l-4 140h-60l-211 327l-93 -120v-207h-84v209l-92 120l-207 -329h-101l245 388l-244 322h106l292 -390h1v390h84v-395l2 -1l286 396h105l-235 -323l197 -308h86z" />
    <glyph glyph-name="uni0497" unicode="&#x497;" horiz-adv-x="801" 
d="M773 72v-206h-68l-5 134h-41l-157 227l-76 -86v-141h-78v142l-79 85l-156 -227h-91l190 270l-187 217h98l223 -259h2v259h78v-262h1l220 262h95l-182 -216l142 -199h71z" />
    <glyph glyph-name="uni0498" unicode="&#x498;" horiz-adv-x="607" 
d="M558 202q0 -87 -61 -143.5t-171 -63.5l-7 -29q72 -18 72 -70q0 -38 -26 -59.5t-74 -21.5q-33 -1 -67 7v51q26 -9 53 -9q53 0 53 35q0 32 -71 38l12 58q-147 9 -233 109l56 67q72 -96 208 -96q76 0 120.5 33.5t44.5 93.5t-44.5 94t-129.5 34h-114v76h108q65 0 106 31
t41 89q0 53 -36.5 81t-104.5 28q-100 0 -179 -62l-48 67q36 34 102.5 55.5t134.5 21.5q102 0 161 -47.5t59 -128.5q0 -55 -29 -100t-86 -64v-1q68 -14 109 -57.5t41 -116.5z" />
    <glyph glyph-name="uni0499" unicode="&#x499;" horiz-adv-x="490" 
d="M447 135q0 -58 -45 -95.5t-127 -44.5l-8 -29q72 -18 72 -70q0 -38 -26 -59.5t-74 -21.5q-33 -1 -67 7v51q26 -9 53 -9q53 0 53 35q0 32 -71 38l12 57q-107 5 -179 51l25 73q73 -52 174 -52q58 0 91.5 20.5t33.5 58.5q0 70 -107 70h-110v65h97q97 0 97 69q0 71 -104 71
q-83 0 -149 -37l-31 66q76 44 179 44q86 0 136 -33t50 -91q0 -39 -21.5 -69t-60.5 -43v-1q46 -11 76.5 -41.5t30.5 -79.5z" />
    <glyph glyph-name="uni049A" unicode="&#x49a;" horiz-adv-x="692" 
d="M652 79v-219h-73l-4 140h-66l-231 318l-103 -121v-197h-87v710h87v-389h2l322 389h112l-275 -324l225 -308v1h91z" />
    <glyph glyph-name="uni049B" unicode="&#x49b;" horiz-adv-x="563" 
d="M534 72v-206h-68l-5 134h-42l-168 228l-94 -100v-128h-81v487h81v-266h2l245 266h100l-195 -210l152 -205h73z" />
    <glyph glyph-name="uni049C" unicode="&#x49c;" horiz-adv-x="713" 
d="M581 0l-212 311l-37 1v-193h-72v194l-85 1v-314h-87v710h87v-323l85 2v195h72v-194l32 1l211 319h102l-235 -348l243 -362h-104z" />
    <glyph glyph-name="uni049D" unicode="&#x49d;" horiz-adv-x="577" 
d="M462 0l-137 207l-32 1v-129h-57v130l-79 1v-210h-81v487h81v-219l79 2v131h57v-130l26 1l135 215h88l-152 -238l165 -249h-93z" />
    <glyph glyph-name="uni049E" unicode="&#x49e;" horiz-adv-x="655" 
d="M347 384l280 -384h-107l-230 316l-106 -126v-190h-87v556h-92v69h92v85h87v-85h129v-69h-129v-242h2l325 396h109z" />
    <glyph glyph-name="uni049F" unicode="&#x49f;" horiz-adv-x="537" 
d="M309 277l206 -277h-96l-168 228l-94 -100v-128h-81v575h-71v58h71v103h81v-103h179v-58h-179v-354h2l245 266h100z" />
    <glyph glyph-name="uni04A0" unicode="&#x4a0;" horiz-adv-x="745" 
d="M435 386l282 -386h-108l-232 318l-103 -121v-197h-87v631h-180v79h267v-389h2l323 389h111z" />
    <glyph glyph-name="uni04A1" unicode="&#x4a1;" horiz-adv-x="621" 
d="M393 277l206 -277h-97l-167 228l-95 -100v-128h-81v415h-152v72h233v-266h2l245 266h101z" />
    <glyph glyph-name="uni04A2" unicode="&#x4a2;" horiz-adv-x="770" 
d="M731 79v-219h-73l-4 140h-108v298h-371v-298h-87v710h87v-333h371v333h87v-631h98z" />
    <glyph glyph-name="uni04A3" unicode="&#x4a3;" horiz-adv-x="618" 
d="M590 72v-206h-68l-5 134h-97v203h-263v-203h-81v487h81v-214h263v214h81v-415h89z" />
    <glyph glyph-name="uni04A4" unicode="&#x4a4;" horiz-adv-x="861" 
d="M831 710v-79h-205v-631h-87v298h-364v-298h-87v710h87v-333h364v333h292z" />
    <glyph glyph-name="uni04A5" unicode="&#x4a5;" horiz-adv-x="668" 
d="M643 487v-72h-151v-415h-81v203h-254v-203h-81v487h81v-214h254v214h232z" />
    <glyph glyph-name="uni04A6" unicode="&#x4a6;" horiz-adv-x="1070" 
d="M753 395q123 0 195.5 -75t72.5 -214q0 -151 -73 -229.5t-194 -78.5q-47 0 -86 9l7 74q36 -7 74 -7q83 0 132.5 58t49.5 164q0 110 -53 164t-142 54q-71 0 -140 -26v-288h-87v631h-334v-631h-87v710h508v-344q79 29 157 29z" />
    <glyph glyph-name="uni04A7" unicode="&#x4a7;" horiz-adv-x="847" 
d="M831 38q1 -119 -61 -180.5t-167 -61.5q-40 0 -73 9l6 67q33 -6 60 -6q71 0 111.5 45.5t40.5 120.5q0 76 -40.5 116t-113.5 40q-59 0 -111 -18v-170h-81v415h-245v-415h-81v487h407v-250q62 23 125 23q99 0 160.5 -58t62.5 -164z" />
    <glyph glyph-name="uni04A8" unicode="&#x4a8;" horiz-adv-x="847" 
d="M850 19q-30 -26 -105 -26q-90 0 -152 37q-69 -37 -157 -37q-179 0 -279 105t-100 266q0 151 98.5 252t251.5 101q60 0 103 -15l-34 -76q-30 9 -67 9q-114 0 -187.5 -78.5t-74.5 -199.5q-1 -122 77 -204.5t214 -82.5q48 0 82 12l1 2q-120 118 -120 281q0 113 55 185
t146 72q88 0 141.5 -72t53.5 -188q0 -83 -39 -162.5t-103 -123.5l1 -2q28 -9 70 -9q67 0 110 31zM491 359q0 -147 100 -244h2q53 39 83.5 102.5t30.5 138.5q0 83 -29 134t-78 51t-79.5 -50.5t-29.5 -131.5z" />
    <glyph glyph-name="uni04A9" unicode="&#x4a9;" horiz-adv-x="625" 
d="M608 1q-24 -8 -69 -8q-73 0 -118 34q-53 -34 -131 -34q-116 0 -185.5 70.5t-69.5 180.5t66 179.5t166 69.5q27 0 52 -5l-29 -71q-18 2 -22 2q-67 -2 -109 -52t-42 -124q0 -80 51.5 -131t136.5 -51q26 0 50 6l1 3q-83 69 -83 189q0 81 40.5 138.5t113.5 57.5q72 0 111 -54
t39 -143q0 -61 -26.5 -111.5t-67.5 -80.5v-2q23 -5 44 -5q41 0 70 13zM429 381q-32 0 -52 -36.5t-20 -78.5q0 -115 68 -170q68 60 68 170q0 43 -18.5 79t-45.5 36z" />
    <glyph glyph-name="uni04AA" unicode="&#x4aa;" horiz-adv-x="724" 
d="M688 129q-106 -130 -269 -134l-7 -29q72 -18 72 -70q0 -38 -26 -59.5t-74 -21.5q-33 -1 -67 7v51q25 -9 53 -9q53 0 53 35q0 32 -71 38l12 61q-134 14 -220.5 107.5t-86.5 247.5q0 157 94 260.5t259 103.5q166 0 277 -136l-65 -54q-86 107 -212 107q-119 0 -190.5 -78.5
t-71.5 -202.5q0 -125 74 -200.5t189 -75.5q127 0 212 107z" />
    <glyph glyph-name="uni04AB" unicode="&#x4ab;" horiz-adv-x="521" 
d="M489 79q-65 -77 -179 -84l-7 -29q72 -18 72 -70q0 -38 -26 -59.5t-74 -21.5q-33 -1 -67 7v51q26 -9 53 -9q53 0 53 35q0 32 -71 38l12 59q-94 11 -152 78.5t-58 168.5q0 110 68.5 180t177.5 70q56 0 108.5 -22.5t87.5 -64.5l-55 -49q-53 62 -137 62q-75 0 -121 -49
t-46 -127t46 -126.5t120 -48.5q89 0 139 62z" />
    <glyph glyph-name="uni04AC" unicode="&#x4ac;" horiz-adv-x="573" 
d="M544 631h-215v-552h98v-219h-73l-4 140h-108v631h-212v79h514v-79z" />
    <glyph glyph-name="uni04AD" unicode="&#x4ad;" horiz-adv-x="458" 
d="M433 415h-163v-343h85v-206h-68l-5 134h-93v415h-163v72h407v-72z" />
    <glyph glyph-name="uni04AE" unicode="&#x4ae;" horiz-adv-x="601" 
d="M256 0v317l-241 393h100l184 -305h2l183 305h102l-243 -393v-317h-87z" />
    <glyph glyph-name="uni04AF" unicode="&#x4af;" horiz-adv-x="520" 
d="M497 487l-195 -499v-186h-81v184l-198 501h87l150 -400h1l149 400h87z" />
    <glyph glyph-name="uni04B0" unicode="&#x4b0;" horiz-adv-x="601" 
d="M586 710l-229 -370h142v-67h-156v-273h-87v273h-159v67h145l-227 370h100l184 -305h2l183 305h102z" />
    <glyph glyph-name="uni04B1" unicode="&#x4b1;" horiz-adv-x="520" 
d="M497 487l-173 -429h112v-58h-134v-198h-81v196l-1 2h-136v58h113l-174 429h87l150 -400h1l149 400h87z" />
    <glyph glyph-name="uni04B2" unicode="&#x4b2;" horiz-adv-x="709" 
d="M662 79v-219h-73l-4 140h-57l-196 286h-2l-196 -286h-101l241 355l-238 355h101l195 -287h1l194 287h101l-239 -355l188 -276h85z" />
    <glyph glyph-name="uni04B3" unicode="&#x4b3;" horiz-adv-x="532" 
d="M503 72v-206h-68l-5 134h-44l-132 177h-1l-133 -177h-91l177 247l-177 240h96l126 -178h2l128 178h95l-176 -241l126 -174h77z" />
    <glyph glyph-name="uni04B4" unicode="&#x4b4;" horiz-adv-x="876" 
d="M837 79v-219h-73l-4 140h-531v634h-214v75h214v1h87v-1h189v-75h-189v-555h336v631h87v-631h98z" />
    <glyph glyph-name="uni04B5" unicode="&#x4b5;" horiz-adv-x="699" 
d="M671 72v-206h-68l-5 134h-416v415h-163v72h393v-72h-149v-343h239v415h81v-415h88z" />
    <glyph glyph-name="uni04B6" unicode="&#x4b6;" horiz-adv-x="696" 
d="M657 79v-219h-73l-4 140h-108v294q-38 -20 -95 -33t-106 -13q-106 0 -155 57.5t-49 174.5v230h87v-217q0 -93 33 -128.5t107 -35.5q107 0 178 42v339h87v-631h98z" />
    <glyph glyph-name="uni04B7" unicode="&#x4b7;" horiz-adv-x="573" 
d="M545 72v-206h-68l-5 134h-97v192q-70 -34 -153 -34q-91 0 -133.5 43.5t-42.5 137.5v148h81v-130q0 -75 28 -101t88 -26q67 0 132 29v228h81v-415h89z" />
    <glyph glyph-name="uni04B8" unicode="&#x4b8;" horiz-adv-x="655" 
d="M480 710h87v-710h-87v294q-47 -25 -122 -38v-149h-66v142q-7 -1 -21 -1q-106 0 -155 57.5t-49 174.5v230h87v-217q0 -92 32.5 -127.5t105.5 -36.5v156h66v-152q74 8 122 36v341z" />
    <glyph glyph-name="uni04B9" unicode="&#x4b9;" horiz-adv-x="539" 
d="M382 487h81v-487h-81v192q-33 -15 -87 -25v-104h-58v97h-15q-91 0 -133.5 43t-42.5 136v148h81v-130q0 -73 27 -99.5t83 -27.5v135h58v-131q49 6 87 23v230z" />
    <glyph glyph-name="uni04BA" unicode="&#x4ba;" horiz-adv-x="650" 
d="M379 470q106 0 155 -57.5t49 -174.5v-238h-87v235q0 85 -35 119.5t-108 34.5q-94 0 -178 -43v-346h-87v710h87v-289q98 49 204 49z" />
    <glyph glyph-name="uni04BB" unicode="&#x4bb;" horiz-adv-x="581" 
d="M76 0v736h81v-334h1q60 91 180 91q82 0 129.5 -50t47.5 -151v-292h-81v269q0 150 -120 150q-73 0 -115 -46t-42 -128v-245h-81z" />
    <glyph glyph-name="uni04BC" unicode="&#x4bc;" horiz-adv-x="886" 
d="M839 381q0 -11 -2 -41h-581q6 -122 74.5 -192.5t186.5 -70.5q76 0 136.5 27t94.5 75l65 -55q-44 -59 -121 -94t-174 -35q-160 0 -254 94.5t-99 250.5q-170 2 -170 125q0 38 16 85l75 -11q-12 -36 -12 -61q0 -35 23.5 -49t70.5 -14h1q17 135 110.5 218.5t229.5 83.5
q141 0 235.5 -91t94.5 -245zM512 635q-103 0 -170 -59.5t-83 -159.5h488q-8 99 -71.5 159t-163.5 60z" />
    <glyph glyph-name="uni04BD" unicode="&#x4bd;" horiz-adv-x="642" 
d="M599 252q0 -19 -2 -33h-379q8 -69 53 -110t114 -41q87 0 140 65l57 -48q-69 -91 -201 -91q-101 0 -168.5 61.5t-75.5 162.5q-143 3 -143 110q0 35 14 73l64 -9q-11 -33 -11 -54q0 -30 19 -41.5t59 -12.5q13 94 78 151.5t159 57.5q99 0 161 -68t62 -173zM375 419
q-59 0 -101.5 -36.5t-53.5 -98.5h299q-10 62 -47.5 98.5t-96.5 36.5z" />
    <glyph glyph-name="uni04BE" unicode="&#x4be;" horiz-adv-x="886" 
d="M839 381q0 -11 -2 -41h-581q6 -122 74.5 -192.5t186.5 -70.5q76 0 136.5 27t94.5 75l65 -55q-39 -53 -107.5 -87.5t-154.5 -40.5l-3 -136h-72l-3 137q-140 13 -221.5 106t-86.5 237q-170 2 -170 125q0 38 16 85l75 -11q-12 -36 -12 -61q0 -35 23.5 -49t70.5 -14h1
q17 135 110.5 218.5t229.5 83.5q141 0 235.5 -91t94.5 -245zM512 635q-103 0 -170 -59.5t-83 -159.5h488q-8 99 -71.5 159t-163.5 60z" />
    <glyph glyph-name="uni04BF" unicode="&#x4bf;" horiz-adv-x="642" 
d="M599 252q0 -19 -2 -33h-379q8 -69 53 -110t114 -41q87 0 140 65l57 -48q-60 -78 -166 -89l-2 -130h-68l-3 130q-87 11 -143 71t-63 151q-143 3 -143 110q0 35 14 73l64 -9q-11 -33 -11 -54q0 -30 19 -41.5t59 -12.5q13 94 78 151.5t159 57.5q99 0 161 -68t62 -173z
M375 419q-59 0 -101.5 -36.5t-53.5 -98.5h299q-10 62 -47.5 98.5t-96.5 36.5z" />
    <glyph glyph-name="uni04C0" unicode="&#x4c0;" horiz-adv-x="273" 
d="M93 0v710h87v-710h-87z" />
    <glyph glyph-name="uni04C1" unicode="&#x4c1;" horiz-adv-x="942" 
d="M468 775q-62 0 -105 31.5t-54 98.5l72 8q4 -33 25.5 -59t61.5 -26t62 26t25 59l72 -8q-11 -67 -54 -98.5t-105 -31.5zM26 0l245 388l-244 322h106l292 -390h1v390h84v-395l2 -1l286 396h105l-235 -323l248 -387h-102l-211 327l-93 -120v-207h-84v209l-92 120l-207 -329
h-101z" />
    <glyph glyph-name="uni04C2" unicode="&#x4c2;" horiz-adv-x="775" 
d="M389 554q-62 0 -105 32t-54 101l72 13q3 -38 25 -65.5t62 -27.5q41 0 62.5 27.5t24.5 65.5l72 -13q-11 -69 -54 -101t-105 -32zM22 0l190 270l-187 217h98l223 -259h2v259h78v-262h1l220 262h95l-182 -216l193 -271h-94l-157 227l-76 -86v-141h-78v142l-79 85l-156 -227
h-91z" />
    <glyph glyph-name="uni04C3" unicode="&#x4c3;" horiz-adv-x="667" 
d="M337 388q119 -2 193 -76.5t74 -205.5q0 -151 -73 -229.5t-194 -78.5q-47 0 -86 9l7 74q36 -7 73 -7q84 0 133.5 58t49.5 164q0 109 -56.5 163t-148.5 54q-11 0 -37 -2l-97 -114v-197h-87v710h87v-389h2l322 389h112z" />
    <glyph glyph-name="uni04C4" unicode="&#x4c4;" horiz-adv-x="533" 
d="M504 38q1 -119 -61 -180.5t-166 -61.5q-41 0 -74 9l6 67q35 -6 60 -6q71 0 111.5 45.5t40.5 120.5q0 74 -41.5 115t-111.5 41q-43 0 -82 -11l-29 -22v-155h-81v487h81v-266h2l245 266h100l-210 -227q91 -4 150 -62t60 -160z" />
    <glyph glyph-name="uni04C5" unicode="&#x4c5;" horiz-adv-x="739" 
d="M634 79h83v-32l-75 -187h-64l43 140h-74v631h-252q-10 -202 -25 -336q-17 -156 -60 -227t-130 -71q-33 0 -61 8l7 73q12 -3 35 -3q57 0 84 59t43 191q16 136 23 385h423v-631z" />
    <glyph glyph-name="uni04C6" unicode="&#x4c6;" horiz-adv-x="585" 
d="M487 72h76v-19l-73 -187h-57l41 134h-68v415h-172q-8 -160 -16 -224q-26 -195 -155 -195q-25 0 -43 7l6 70q12 -2 23 -2q76 0 93 146q8 80 13 270h332v-415z" />
    <glyph glyph-name="uni04C7" unicode="&#x4c7;" horiz-adv-x="721" 
d="M546 710h87v-721q0 -193 -180 -193q-42 0 -83 14l7 73q26 -13 62 -13q107 0 107 116v312h-371v-298h-87v710h87v-333h371v333z" />
    <glyph glyph-name="uni04C8" unicode="&#x4c8;" horiz-adv-x="577" 
d="M420 487h81v-508q0 -93 -39.5 -138t-122.5 -45q-37 0 -72 14l6 66q29 -11 56 -11q49 0 70 24t21 83v231h-263v-203h-81v487h81v-214h263v214z" />
    <glyph glyph-name="uni04C9" unicode="&#x4c9;" horiz-adv-x="738" 
d="M633 79h83v-32l-75 -187h-64l43 140h-74v298h-371v-298h-87v710h87v-333h371v333h87v-631z" />
    <glyph glyph-name="uni04CA" unicode="&#x4ca;" horiz-adv-x="599" 
d="M501 72h76v-19l-73 -187h-57l41 134h-68v203h-263v-203h-81v487h81v-214h263v214h81v-415z" />
    <glyph glyph-name="uni04CB" unicode="&#x4cb;" horiz-adv-x="647" 
d="M472 710h87v-710h-107l-5 -140h-73v219h98v215q-38 -20 -95 -33t-106 -13q-106 0 -155 57.5t-49 174.5v230h87v-217q0 -93 33 -128.5t107 -35.5q107 0 178 42v339z" />
    <glyph glyph-name="uni04CC" unicode="&#x4cc;" horiz-adv-x="532" 
d="M375 487h81v-487h-93l-5 -134h-68v193h85v133q-70 -34 -153 -34q-91 0 -133.5 43.5t-42.5 137.5v148h81v-130q0 -75 28 -101t88 -26q67 0 132 29v228z" />
    <glyph glyph-name="uni04CD" unicode="&#x4cd;" horiz-adv-x="892" 
d="M787 79h83v-32l-75 -187h-64l43 140h-74v541h-2l-231 -398h-59l-231 398h-1v-541h-88v710h88l261 -459h2l261 459h87v-631z" />
    <glyph glyph-name="uni04CE" unicode="&#x4ce;" horiz-adv-x="700" 
d="M602 72h76v-19l-73 -187h-57l41 134h-65v350h-2l-156 -265h-55l-155 264h-2v-349h-78v487h79l183 -312h2l184 312h78v-415z" />
    <glyph glyph-name="uni04CF" unicode="&#x4cf;" horiz-adv-x="245" 
d="M82 0v736h81v-736h-81z" />
    <glyph glyph-name="uni04D0" unicode="&#x4d0;" horiz-adv-x="676" 
d="M338 775q-62 0 -105 31.5t-54 98.5l72 8q4 -33 25.5 -59t61.5 -26t62 26t25 59l72 -8q-11 -67 -54 -98.5t-105 -31.5zM25 0l269 710h87l270 -710h-91l-64 173h-317l-63 -173h-91zM207 249h262l-131 356h-2z" />
    <glyph glyph-name="uni04D1" unicode="&#x4d1;" horiz-adv-x="604" 
d="M299 554q-62 0 -105 32t-54 101l72 13q3 -38 25 -65.5t62 -27.5q41 0 62.5 27.5t24.5 65.5l72 -13q-11 -69 -54 -101t-105 -32zM281 -6q-102 0 -169.5 68.5t-67.5 177.5t67 181t170 72q54 0 99 -24.5t71 -68.5l2 1v86h81v-487h-78v88h-1q-57 -94 -174 -94zM293 68
q69 0 116 48t47 124t-46 127.5t-117 51.5t-119 -50t-48 -129q0 -74 46.5 -123t120.5 -49z" />
    <glyph glyph-name="uni04D2" unicode="&#x4d2;" horiz-adv-x="676" 
d="M247 811q-25 0 -41.5 17t-16.5 41q0 23 16.5 39.5t41.5 16.5q24 0 41 -17t17 -40t-17 -40t-41 -17zM428 811q-24 0 -41 17t-17 41q0 23 17 39.5t41 16.5t41 -17t17 -40t-17 -40t-41 -17zM25 0l269 710h87l270 -710h-91l-64 173h-317l-63 -173h-91zM207 249h262l-131 356
h-2z" />
    <glyph glyph-name="uni04D3" unicode="&#x4d3;" horiz-adv-x="604" 
d="M208 577q-25 0 -41.5 17t-16.5 41q0 23 16.5 39.5t41.5 16.5q24 0 41 -17t17 -40t-17 -40t-41 -17zM389 577q-24 0 -41 17t-17 41q0 23 17 39.5t41 16.5t41 -17t17 -40t-17 -40t-41 -17zM281 -6q-102 0 -169.5 68.5t-67.5 177.5t67 181t170 72q54 0 99 -24.5t71 -68.5
l2 1v86h81v-487h-78v88h-1q-57 -94 -174 -94zM293 68q69 0 116 48t47 124t-46 127.5t-117 51.5t-119 -50t-48 -129q0 -74 46.5 -123t120.5 -49z" />
    <glyph glyph-name="uni04D4" unicode="&#x4d4;" horiz-adv-x="928" 
d="M9 0l374 710h486v-79h-349v-238h290v-79h-290v-235h369v-79h-455v173h-243l-92 -173h-90zM229 249h205v384h-2z" />
    <glyph glyph-name="uni04D5" unicode="&#x4d5;" horiz-adv-x="788" 
d="M755 252q0 -27 -1 -34h-340q8 -70 47 -110t102 -40q44 0 71 16t51 49l56 -48q-35 -46 -75.5 -68.5t-108.5 -22.5q-116 0 -174 99h-2q-21 -44 -68 -71.5t-111 -27.5q-83 0 -126 42t-43 106q0 67 47.5 106t138.5 39h116v12q0 67 -22.5 94t-74.5 27q-72 0 -139 -37l-31 66
q29 17 77.5 30.5t97.5 13.5q110 0 146 -94h2q27 45 71 69.5t93 24.5q89 0 144.5 -68t55.5 -173zM416 285h258q-6 60 -37 97t-85 37q-53 0 -89.5 -37t-46.5 -97zM209 62q53 0 90 32.5t37 87.5v39h-110q-113 0 -113 -78q0 -35 24.5 -58t71.5 -23z" />
    <glyph glyph-name="uni04D6" unicode="&#x4d6;" horiz-adv-x="593" 
d="M308 775q-62 0 -105 31.5t-54 98.5l72 8q4 -33 25.5 -59t61.5 -26t62 26t25 59l72 -8q-11 -67 -54 -98.5t-105 -31.5zM88 0v710h435v-79h-348v-238h285v-79h-285v-235h369v-79h-456z" />
    <glyph glyph-name="uni04D7" unicode="&#x4d7;" horiz-adv-x="552" 
d="M287 554q-62 0 -105 32t-54 101l72 13q3 -38 25 -65.5t62 -27.5q41 0 62.5 27.5t24.5 65.5l72 -13q-11 -69 -54 -101t-105 -32zM509 252q0 -7 -1 -19t-1 -14h-380q8 -69 53 -110t114 -41q88 0 141 65l57 -48q-71 -91 -201 -91q-109 0 -177.5 69t-68.5 180q0 110 67.5 180
t172.5 70q99 0 161.5 -68t62.5 -173zM284 419q-59 0 -101.5 -36t-53.5 -98h299q-9 61 -47 97.5t-97 36.5z" />
    <glyph glyph-name="uni04D8" unicode="&#x4d8;" horiz-adv-x="775" 
d="M367 717q166 0 258.5 -101.5t92.5 -258.5q0 -165 -96 -264t-246 -99q-149 0 -240 88.5t-91 243.5q0 18 2 44h582q-5 120 -75.5 192t-194.5 72q-120 2 -220 -71l-50 66q116 89 278 88zM374 76q97 0 165 57t85 159h-491q4 -99 70 -157.5t171 -58.5z" />
    <glyph glyph-name="uni04D9" unicode="&#x4d9;" horiz-adv-x="553" 
d="M259 493q108 0 178.5 -67.5t70.5 -184.5q0 -110 -62 -178.5t-173 -68.5q-107 0 -168 67t-61 171q0 15 3 36h380q-8 71 -55.5 111.5t-117.5 40.5q-72 0 -143 -39l-32 66q82 46 180 46zM273 67q64 0 103 36t49 99h-299q6 -63 45 -99t102 -36z" />
    <glyph glyph-name="uni04DA" unicode="&#x4da;" horiz-adv-x="775" 
d="M293 811q-25 0 -41.5 17t-16.5 41q0 23 16.5 39.5t41.5 16.5q24 0 41 -17t17 -40t-17 -40t-41 -17zM474 811q-24 0 -41 17t-17 41q0 23 17 39.5t41 16.5t41 -17t17 -40t-17 -40t-41 -17zM367 717q166 0 258.5 -101.5t92.5 -258.5q0 -165 -96 -264t-246 -99
q-149 0 -240 88.5t-91 243.5q0 18 2 44h582q-5 120 -75.5 192t-194.5 72q-120 2 -220 -71l-50 66q116 89 278 88zM374 76q97 0 165 57t85 159h-491q4 -99 70 -157.5t171 -58.5z" />
    <glyph glyph-name="uni04DB" unicode="&#x4db;" horiz-adv-x="553" 
d="M196 577q-25 0 -41.5 17t-16.5 41q0 23 16.5 39.5t41.5 16.5q24 0 41 -17t17 -40t-17 -40t-41 -17zM377 577q-24 0 -41 17t-17 41q0 23 17 39.5t41 16.5t41 -17t17 -40t-17 -40t-41 -17zM259 493q108 0 178.5 -67.5t70.5 -184.5q0 -110 -62 -178.5t-173 -68.5
q-107 0 -168 67t-61 171q0 15 3 36h380q-8 71 -55.5 111.5t-117.5 40.5q-72 0 -143 -39l-32 66q82 46 180 46zM273 67q64 0 103 36t49 99h-299q6 -63 45 -99t102 -36z" />
    <glyph glyph-name="uni04DC" unicode="&#x4dc;" horiz-adv-x="942" 
d="M377 811q-25 0 -41.5 17t-16.5 41q0 23 16.5 39.5t41.5 16.5q24 0 41 -17t17 -40t-17 -40t-41 -17zM558 811q-24 0 -41 17t-17 41q0 23 17 39.5t41 16.5t41 -17t17 -40t-17 -40t-41 -17zM26 0l245 388l-244 322h106l292 -390h1v390h84v-395l2 -1l286 396h105l-235 -323
l248 -387h-102l-211 327l-93 -120v-207h-84v209l-92 120l-207 -329h-101z" />
    <glyph glyph-name="uni04DD" unicode="&#x4dd;" horiz-adv-x="775" 
d="M298 577q-25 0 -41.5 17t-16.5 41q0 23 16.5 39.5t41.5 16.5q24 0 41 -17t17 -40t-17 -40t-41 -17zM479 577q-24 0 -41 17t-17 41q0 23 17 39.5t41 16.5t41 -17t17 -40t-17 -40t-41 -17zM22 0l190 270l-187 217h98l223 -259h2v259h78v-262h1l220 262h95l-182 -216
l193 -271h-94l-157 227l-76 -86v-141h-78v142l-79 85l-156 -227h-91z" />
    <glyph glyph-name="uni04DE" unicode="&#x4de;" horiz-adv-x="607" 
d="M206 811q-25 0 -41.5 17t-16.5 41q0 23 16.5 39.5t41.5 16.5q24 0 41 -17t17 -40t-17 -40t-41 -17zM387 811q-24 0 -41 17t-17 41q0 23 17 39.5t41 16.5t41 -17t17 -40t-17 -40t-41 -17zM300 -6q-167 0 -262 110l56 67q72 -96 208 -96q76 0 120.5 33.5t44.5 93.5
t-44.5 94t-129.5 34h-114v76h108q65 0 106 31t41 89q0 53 -36.5 81t-104.5 28q-100 0 -179 -62l-48 67q36 34 102.5 55.5t134.5 21.5q102 0 161 -47.5t59 -128.5q0 -55 -29 -100t-86 -64v-1q68 -14 109 -57.5t41 -116.5q0 -93 -68.5 -150.5t-189.5 -57.5z" />
    <glyph glyph-name="uni04DF" unicode="&#x4df;" horiz-adv-x="490" 
d="M163 577q-25 0 -41.5 17t-16.5 41q0 23 16.5 39.5t41.5 16.5q24 0 41 -17t17 -40t-17 -40t-41 -17zM344 577q-24 0 -41 17t-17 41q0 23 17 39.5t41 16.5t41 -17t17 -40t-17 -40t-41 -17zM239 -6q-119 0 -199 51l25 73q73 -52 174 -52q58 0 91.5 20.5t33.5 58.5
q0 70 -107 70h-110v65h97q97 0 97 69q0 71 -104 71q-83 0 -149 -37l-31 66q76 44 179 44q86 0 136 -33t50 -91q0 -39 -21.5 -69t-60.5 -43v-1q46 -11 76.5 -41.5t30.5 -79.5q0 -64 -54.5 -102.5t-153.5 -38.5z" />
    <glyph glyph-name="uni04E0" unicode="&#x4e0;" horiz-adv-x="596" 
d="M302 416q113 -1 182.5 -58t70.5 -150q0 -99 -68.5 -156.5t-186.5 -57.5q-170 0 -265 110l57 67q33 -46 90 -71.5t120 -25.5q71 0 116.5 34.5t45.5 99.5q0 69 -52 102.5t-170 33.5h-67l-1 43l239 243l-1 1h-345v79h462v-62z" />
    <glyph glyph-name="uni04E1" unicode="&#x4e1;" horiz-adv-x="469" 
d="M204 -204q-105 0 -190 52l19 74q86 -52 166 -52q73 0 114 37.5t41 100.5q0 71 -55.5 108t-154.5 37h-38l-1 40l194 221l-1 3h-264v70h376v-41l-198 -229v-1q98 -13 161.5 -65t63.5 -145q0 -99 -63 -154.5t-170 -55.5z" />
    <glyph glyph-name="uni04E2" unicode="&#x4e2;" horiz-adv-x="734" 
d="M226 809v67h288v-67h-288zM88 0v710h87v-565h2l393 565h76v-710h-87v560h-2l-391 -560h-78z" />
    <glyph glyph-name="uni04E3" unicode="&#x4e3;" horiz-adv-x="587" 
d="M155 596v69h288v-69h-288zM76 0v487h81v-370h2l275 370h77v-487h-81v362h-2l-274 -362h-78z" />
    <glyph glyph-name="uni04E4" unicode="&#x4e4;" horiz-adv-x="734" 
d="M279 811q-25 0 -41.5 17t-16.5 41q0 23 16.5 39.5t41.5 16.5q24 0 41 -17t17 -40t-17 -40t-41 -17zM460 811q-24 0 -41 17t-17 41q0 23 17 39.5t41 16.5t41 -17t17 -40t-17 -40t-41 -17zM88 0v710h87v-565h2l393 565h76v-710h-87v560h-2l-391 -560h-78z" />
    <glyph glyph-name="uni04E5" unicode="&#x4e5;" horiz-adv-x="587" 
d="M208 577q-25 0 -41.5 17t-16.5 41q0 23 16.5 39.5t41.5 16.5q24 0 41 -17t17 -40t-17 -40t-41 -17zM389 577q-24 0 -41 17t-17 41q0 23 17 39.5t41 16.5t41 -17t17 -40t-17 -40t-41 -17zM76 0v487h81v-370h2l275 370h77v-487h-81v362h-2l-274 -362h-78z" />
    <glyph glyph-name="uni04E6" unicode="&#x4e6;" horiz-adv-x="825" 
d="M323 811q-25 0 -41.5 17t-16.5 41q0 23 16.5 39.5t41.5 16.5q24 0 41 -17t17 -40t-17 -40t-41 -17zM504 811q-24 0 -41 17t-17 41q0 23 17 39.5t41 16.5t41 -17t17 -40t-17 -40t-41 -17zM414 -6q-156 0 -256.5 101.5t-100.5 259.5t101 260t256 102q152 0 253 -101
t101 -261t-101 -260.5t-253 -100.5zM414 76q112 0 187.5 78.5t75.5 200.5t-75.5 201t-187.5 79q-115 0 -190.5 -79.5t-75.5 -200.5q0 -120 75.5 -199.5t190.5 -79.5z" />
    <glyph glyph-name="uni04E7" unicode="&#x4e7;" horiz-adv-x="593" 
d="M206 577q-25 0 -41.5 17t-16.5 41q0 23 16.5 39.5t41.5 16.5q24 0 41 -17t17 -40t-17 -40t-41 -17zM387 577q-24 0 -41 17t-17 41q0 23 17 39.5t41 16.5t41 -17t17 -40t-17 -40t-41 -17zM297 -6q-112 0 -182 71t-70 178t70 178.5t182 71.5q109 0 180 -70t71 -180
t-71 -179.5t-180 -69.5zM297 68q71 0 119.5 49t48.5 126t-48.5 126.5t-119.5 49.5q-75 0 -122 -51t-47 -125t47.5 -124.5t121.5 -50.5z" />
    <glyph glyph-name="uni04E8" unicode="&#x4e8;" horiz-adv-x="825" 
d="M413 717q152 0 253.5 -101t101.5 -261t-101.5 -260.5t-253.5 -100.5q-157 0 -256.5 102.5t-99.5 258.5t99.5 259t256.5 103zM413 638q-108 0 -181.5 -69.5t-85.5 -176.5h532q-12 109 -86.5 177.5t-178.5 68.5zM413 72q104 0 178 68t87 178h-532q12 -107 85.5 -176.5
t181.5 -69.5z" />
    <glyph glyph-name="uni04E9" unicode="&#x4e9;" horiz-adv-x="593" 
d="M297 493q110 0 180.5 -69t70.5 -181q0 -111 -70.5 -180t-180.5 -69q-113 0 -182.5 70.5t-69.5 178.5t70 179t182 71zM297 420q-70 0 -115.5 -39t-55.5 -105h342q-10 66 -57.5 105t-113.5 39zM297 67q67 0 114 40t57 106h-342q9 -65 55 -105.5t116 -40.5z" />
    <glyph glyph-name="uni04EA" unicode="&#x4ea;" horiz-adv-x="825" 
d="M324 811q-25 0 -41.5 17t-16.5 41q0 23 16.5 39.5t41.5 16.5q24 0 41 -17t17 -40t-17 -40t-41 -17zM505 811q-24 0 -41 17t-17 41q0 23 17 39.5t41 16.5t41 -17t17 -40t-17 -40t-41 -17zM413 717q152 0 253.5 -101t101.5 -261t-101.5 -260.5t-253.5 -100.5
q-157 0 -256.5 102.5t-99.5 258.5t99.5 259t256.5 103zM413 638q-108 0 -181.5 -69.5t-85.5 -176.5h532q-12 109 -86.5 177.5t-178.5 68.5zM413 72q104 0 178 68t87 178h-532q12 -107 85.5 -176.5t181.5 -69.5z" />
    <glyph glyph-name="uni04EB" unicode="&#x4eb;" horiz-adv-x="593" 
d="M206 577q-25 0 -41.5 17t-16.5 41q0 23 16.5 39.5t41.5 16.5q24 0 41 -17t17 -40t-17 -40t-41 -17zM387 577q-24 0 -41 17t-17 41q0 23 17 39.5t41 16.5t41 -17t17 -40t-17 -40t-41 -17zM297 493q110 0 180.5 -69t70.5 -181q0 -111 -70.5 -180t-180.5 -69
q-113 0 -182.5 70.5t-69.5 178.5t70 179t182 71zM297 420q-70 0 -115.5 -39t-55.5 -105h342q-10 66 -57.5 105t-113.5 39zM297 67q67 0 114 40t57 106h-342q9 -65 55 -105.5t116 -40.5z" />
    <glyph glyph-name="uni04EC" unicode="&#x4ec;" horiz-adv-x="724" 
d="M247 811q-25 0 -41.5 17t-16.5 41q0 23 16.5 39.5t41.5 16.5q24 0 41 -17t17 -40t-17 -40t-41 -17zM428 811q-24 0 -41 17t-17 41q0 23 17 39.5t41 16.5t41 -17t17 -40t-17 -40t-41 -17zM317 717q164 0 257 -100.5t93 -263.5q0 -170 -98 -264t-249 -94q-83 0 -156.5 29.5
t-122.5 82.5l52 68q38 -43 99.5 -70.5t129.5 -27.5q108 0 177.5 65t77.5 176h-379l1 78h378q-8 109 -78.5 174t-182.5 65q-119 0 -207 -74l-50 67q108 89 258 89z" />
    <glyph glyph-name="uni04ED" unicode="&#x4ed;" horiz-adv-x="528" 
d="M164 577q-25 0 -41.5 17t-16.5 41q0 23 16.5 39.5t41.5 16.5q24 0 41 -17t17 -40t-17 -40t-41 -17zM345 577q-24 0 -41 17t-17 41q0 23 17 39.5t41 16.5t41 -17t17 -40t-17 -40t-41 -17zM229 493q118 0 186 -69t68 -183q0 -111 -64 -179t-191 -68q-56 0 -109.5 17.5
t-83.5 44.5l42 61q65 -51 159 -50q72 1 114.5 38.5t50.5 107.5h-269v66h269q-9 66 -55 102.5t-119 37.5q-69 1 -144 -36l-31 66q73 44 177 44z" />
    <glyph glyph-name="uni04EE" unicode="&#x4ee;" horiz-adv-x="643" 
d="M469 876v-67h-288v67h288zM531 710h93l-236 -529q-44 -98 -66 -127q-46 -61 -124 -61q-28 0 -62 10t-52 27l30 75q39 -28 83 -28q40 0 64.5 27.5t44.5 86.5l-287 519h98l227 -419h3z" />
    <glyph glyph-name="uni04EF" unicode="&#x4ef;" horiz-adv-x="525" 
d="M120 596v69h288v-69h-288zM142 -198l87 217l-207 468h88l158 -370h2l147 370h85l-276 -685h-84z" />
    <glyph glyph-name="uni04F0" unicode="&#x4f0;" horiz-adv-x="643" 
d="M234 811q-25 0 -41.5 17t-16.5 41q0 23 16.5 39.5t41.5 16.5q24 0 41 -17t17 -40t-17 -40t-41 -17zM415 811q-24 0 -41 17t-17 41q0 23 17 39.5t41 16.5t41 -17t17 -40t-17 -40t-41 -17zM531 710h93l-236 -529q-44 -98 -66 -127q-46 -61 -124 -61q-28 0 -62 10t-52 27
l30 75q39 -28 83 -28q40 0 64.5 27.5t44.5 86.5l-287 519h98l227 -419h3z" />
    <glyph glyph-name="uni04F1" unicode="&#x4f1;" horiz-adv-x="525" 
d="M173 577q-25 0 -41.5 17t-16.5 41q0 23 16.5 39.5t41.5 16.5q24 0 41 -17t17 -40t-17 -40t-41 -17zM354 577q-24 0 -41 17t-17 41q0 23 17 39.5t41 16.5t41 -17t17 -40t-17 -40t-41 -17zM142 -198l87 217l-207 468h88l158 -370h2l147 370h85l-276 -685h-84z" />
    <glyph glyph-name="uni04F2" unicode="&#x4f2;" horiz-adv-x="643" 
d="M404 933l-124 -142h-79l118 141zM447 791h-78l117 141l85 1zM531 710h93l-236 -529q-44 -98 -66 -127q-46 -61 -124 -61q-28 0 -62 10t-52 27l30 75q39 -28 83 -28q40 0 64.5 27.5t44.5 86.5l-287 519h98l227 -419h3z" />
    <glyph glyph-name="uni04F3" unicode="&#x4f3;" horiz-adv-x="525" 
d="M114 557l118 141l85 1l-124 -142h-79zM282 557l117 141l85 1l-124 -142h-78zM142 -198l87 217l-207 468h88l158 -370h2l147 370h85l-276 -685h-84z" />
    <glyph glyph-name="uni04F4" unicode="&#x4f4;" horiz-adv-x="647" 
d="M232 811q-25 0 -41.5 17t-16.5 41q0 23 16.5 39.5t41.5 16.5q24 0 41 -17t17 -40t-17 -40t-41 -17zM413 811q-24 0 -41 17t-17 41q0 23 17 39.5t41 16.5t41 -17t17 -40t-17 -40t-41 -17zM472 710h87v-710h-87v294q-38 -20 -95 -33t-106 -13q-106 0 -155 57.5t-49 174.5
v230h87v-217q0 -93 33 -128.5t107 -35.5q107 0 178 42v339z" />
    <glyph glyph-name="uni04F5" unicode="&#x4f5;" horiz-adv-x="532" 
d="M164 577q-25 0 -41.5 17t-16.5 41q0 23 16.5 39.5t41.5 16.5q24 0 41 -17t17 -40t-17 -40t-41 -17zM345 577q-24 0 -41 17t-17 41q0 23 17 39.5t41 16.5t41 -17t17 -40t-17 -40t-41 -17zM375 487h81v-487h-81v192q-70 -34 -153 -34q-91 0 -133.5 43.5t-42.5 137.5v148h81
v-130q0 -75 28 -101t88 -26q67 0 132 29v228z" />
    <glyph glyph-name="uni04F6" unicode="&#x4f6;" horiz-adv-x="554" 
d="M524 631h-349v-552h98v-219h-73l-4 140h-108v710h436v-79z" />
    <glyph glyph-name="uni04F7" unicode="&#x4f7;" horiz-adv-x="437" 
d="M410 415h-253v-343h85v-206h-68l-5 134h-93v487h334v-72z" />
    <glyph glyph-name="uni04F8" unicode="&#x4f8;" horiz-adv-x="848" 
d="M333 811q-25 0 -41.5 17t-16.5 41q0 23 16.5 39.5t41.5 16.5q24 0 41 -17t17 -40t-17 -40t-41 -17zM514 811q-24 0 -41 17t-17 41q0 23 17 39.5t41 16.5t41 -17t17 -40t-17 -40t-41 -17zM88 0v710h87v-277h140q247 0 247 -212q0 -221 -248 -221h-226zM673 0v710h87v-710
h-87zM175 79h139q158 0 158 138q0 137 -157 137h-140v-275z" />
    <glyph glyph-name="uni04F9" unicode="&#x4f9;" horiz-adv-x="701" 
d="M262 577q-25 0 -41.5 17t-16.5 41q0 23 16.5 39.5t41.5 16.5q24 0 41 -17t17 -40t-17 -40t-41 -17zM443 577q-24 0 -41 17t-17 41q0 23 17 39.5t41 16.5t41 -17t17 -40t-17 -40t-41 -17zM76 0v487h81v-162h109q186 0 186 -163q0 -162 -193 -162h-183zM544 0v487h81v-487
h-81zM157 70h102q111 0 111 91q0 95 -107 95h-106v-186z" />
    <glyph glyph-name="uni04FA" unicode="&#x4fa;" horiz-adv-x="579" 
d="M549 631h-349v-253h192v-69h-192v-346q0 -167 -131 -167q-39 0 -78 14l6 73q27 -12 53 -12q63 0 63 76v362h-102v69h102v332h436v-79z" />
    <glyph glyph-name="uni04FB" unicode="&#x4fb;" horiz-adv-x="437" 
d="M157 415v-164h185v-58h-185v-235q0 -162 -131 -162q-36 0 -71 14l6 66q26 -11 52 -11q63 0 63 86v242h-71v58h71v236h334v-72h-253z" />
    <glyph glyph-name="uni04FC" unicode="&#x4fc;" horiz-adv-x="659" 
d="M436 -204q-50 0 -83 14l7 73q29 -13 63 -13q47 0 73.5 23t26.5 67q0 57 -64 148l-127 178h-2l-196 -286h-101l241 355l-238 355h101l195 -287h1l194 287h101l-239 -355l141 -199q41 -60 61 -104.5t20 -90.5q0 -80 -48.5 -122.5t-126.5 -42.5z" />
    <glyph glyph-name="uni04FD" unicode="&#x4fd;" horiz-adv-x="506" 
d="M314 -204q-38 0 -74 14l7 66q27 -11 58 -11q90 0 90 88q0 49 -59 121l-82 103h-1l-133 -177h-91l177 247l-177 240h96l126 -178h2l128 178h95l-176 -241l99 -127q23 -30 35 -48t27 -53.5t15 -65.5q0 -73 -41.5 -114.5t-120.5 -41.5z" />
    <glyph glyph-name="uni04FE" unicode="&#x4fe;" horiz-adv-x="663" 
d="M407 317l224 -317h-103l-196 286h-2l-196 -286h-101l222 317h-152v70h155l-222 323h101l195 -294h1l194 294h101l-224 -323h160v-70h-157z" />
    <glyph glyph-name="uni04FF" unicode="&#x4ff;" horiz-adv-x="506" 
d="M320 209l158 -209h-92l-132 177h-1l-133 -177h-91l156 209h-109v57h117l-164 221h96l126 -185h2l128 185h95l-163 -221h117v-57h-110z" />
    <glyph glyph-name="uni0510" unicode="&#x510;" horiz-adv-x="608" 
d="M304 -6q-121 0 -188 53.5t-67 138.5q0 73 45 121.5t105 60.5v2q-57 22 -87 68t-30 102q0 81 61 129t161 48q70 0 132 -23.5t99 -62.5l-53 -64q-66 68 -172 68q-66 0 -102.5 -29.5t-36.5 -79.5q1 -56 43 -88t101 -32h110v-76h-115q-80 0 -125 -35t-45 -95q0 -59 44 -92
t123 -33q133 0 200 102l65 -59q-87 -124 -268 -124z" />
    <glyph glyph-name="uni0511" unicode="&#x511;" horiz-adv-x="485" 
d="M254 -6q-106 0 -158.5 36t-52.5 101q0 47 32.5 78.5t72.5 38.5v1q-37 14 -61.5 43.5t-24.5 72.5q0 61 50 94.5t138 33.5q97 0 177 -50l-38 -62q-65 40 -141 40q-48 0 -77 -18.5t-29 -53.5q0 -32 26.5 -50.5t72.5 -18.5h98v-65h-102q-51 0 -81 -21t-30 -54q0 -74 128 -74
q92 0 163 52l33 -71q-77 -53 -196 -53z" />
    <glyph glyph-name="uni0512" unicode="&#x512;" horiz-adv-x="722" 
d="M634 710v-721q0 -193 -180 -193q-42 0 -83 14l7 73q26 -13 62 -13q107 0 107 116v645h-252q-10 -202 -25 -336q-17 -156 -60 -227t-130 -71q-33 0 -61 8l7 73q12 -3 35 -3q57 0 84 59t43 191q16 136 23 385h423z" />
    <glyph glyph-name="uni0513" unicode="&#x513;" horiz-adv-x="563" 
d="M155 487h332v-508q0 -93 -39.5 -138t-122.5 -45q-37 0 -72 14l6 66q29 -11 56 -11q49 0 70 24t21 83v443h-172q-8 -160 -16 -224q-26 -195 -155 -195q-25 0 -43 7l6 70q12 -2 23 -2q76 0 93 146q8 80 13 270z" />
    <glyph glyph-name="uni051A" unicode="&#x51a;" horiz-adv-x="842" 
d="M785 47l-50 -62l-95 86q-96 -77 -227 -77q-157 0 -256.5 102.5t-99.5 258.5t99.5 259t256.5 103q152 0 253.5 -101t101.5 -261q0 -133 -73 -228zM148 355q0 -120 75.5 -199.5t189.5 -79.5q93 0 162 55l-82 75l49 58l86 -76q49 71 49 167q0 121 -74.5 200.5t-189.5 79.5
q-114 0 -189.5 -80t-75.5 -200z" />
    <glyph glyph-name="uni051B" unicode="&#x51b;" horiz-adv-x="611" 
d="M458 -198v282h-1q-58 -90 -174 -90q-102 0 -169.5 68.5t-67.5 177.5t67 181t170 72q116 0 174 -93h1v87h81v-685h-81zM295 68q70 0 117.5 48t47.5 124t-46.5 127.5t-118.5 51.5q-71 0 -119 -49.5t-48 -129.5q0 -74 46.5 -123t120.5 -49z" />
    <glyph glyph-name="uni051C" unicode="&#x51c;" horiz-adv-x="1020" 
d="M259 0l-226 710h93l175 -569h2l160 569h95l159 -568h2l176 568h92l-227 -710h-84l-164 583h-2l-167 -583h-84z" />
    <glyph glyph-name="uni051D" unicode="&#x51d;" horiz-adv-x="764" 
d="M195 0l-168 487h83l123 -366h2l112 366h70l114 -366h2l122 366h83l-168 -487h-76l-112 357h-1l-112 -357h-74z" />
    <glyph glyph-name="uni0524" unicode="&#x524;" horiz-adv-x="745" 
d="M707 79v-219h-73l-4 140h-109v631h-346v-631h-87v710h521v-631h98z" />
    <glyph glyph-name="uni0525" unicode="&#x525;" horiz-adv-x="607" 
d="M579 72v-206h-68l-5 134h-97v415h-252v-415h-81v487h414v-415h89z" />
    <glyph glyph-name="uni0528" unicode="&#x528;" horiz-adv-x="721" 
d="M546 710h87v-710h-87v298h-371v-335q0 -167 -131 -167q-39 0 -78 14l6 73q27 -12 53 -12q63 0 63 76v763h87v-333h371v333z" />
    <glyph glyph-name="uni0529" unicode="&#x529;" horiz-adv-x="577" 
d="M420 487h81v-487h-81v203h-263v-245q0 -162 -131 -162q-36 0 -71 14l6 66q26 -11 52 -11q63 0 63 86v536h81v-214h263v214z" />
    <glyph glyph-name="uni052E" unicode="&#x52e;" horiz-adv-x="771" 
d="M732 79v-219h-73l-4 140h-108v631h-252q-10 -202 -25 -336q-17 -156 -60 -227t-130 -71q-33 0 -61 8l7 73q12 -3 35 -3q57 0 84 59t43 191q16 136 23 385h423v-631h98z" />
    <glyph glyph-name="uni052F" unicode="&#x52f;" horiz-adv-x="604" 
d="M576 72v-206h-68l-5 134h-97v415h-172q-8 -160 -16 -224q-26 -195 -155 -195q-25 0 -43 7l6 70q12 -2 23 -2q76 0 93 146q8 80 13 270h332v-415h89z" />
    <glyph glyph-name="uni1E0C" unicode="&#x1e0c;" horiz-adv-x="726" 
d="M88 0v710h212q167 0 268 -98.5t101 -257.5t-99 -256.5t-267 -97.5h-215zM175 79h123q128 0 204.5 76.5t76.5 198.5t-77 199.5t-201 77.5h-126v-552zM342 -94q25 0 42 -17t17 -41t-17 -41t-42 -17t-42 17t-17 41t17 41t42 17z" />
    <glyph glyph-name="uni1E0D" unicode="&#x1e0d;" horiz-adv-x="613" 
d="M283 -6q-103 0 -171 68.5t-68 177.5q0 108 68 180.5t170 72.5q116 0 174 -93h1v336h81v-736h-78v90h-1q-57 -96 -176 -96zM294 68q70 0 118 48t48 124t-46.5 127.5t-118.5 51.5q-71 0 -119.5 -50t-48.5 -129q0 -74 46.5 -123t120.5 -49zM307 -94q25 0 42 -17t17 -41
t-17 -41t-42 -17t-42 17t-17 41t17 41t42 17z" />
    <glyph glyph-name="uni1E0E" unicode="&#x1e0e;" horiz-adv-x="726" 
d="M88 0v710h212q167 0 268 -98.5t101 -257.5t-99 -256.5t-267 -97.5h-215zM175 79h123q128 0 204.5 76.5t76.5 198.5t-77 199.5t-201 77.5h-126v-552zM486 -194h-288v69h288v-69z" />
    <glyph glyph-name="uni1E0F" unicode="&#x1e0f;" horiz-adv-x="613" 
d="M283 -6q-103 0 -171 68.5t-68 177.5q0 108 68 180.5t170 72.5q116 0 174 -93h1v336h81v-736h-78v90h-1q-57 -96 -176 -96zM294 68q70 0 118 48t48 124t-46.5 127.5t-118.5 51.5q-71 0 -119.5 -50t-48.5 -129q0 -74 46.5 -123t120.5 -49zM451 -194h-288v69h288v-69z" />
    <glyph glyph-name="uni1E20" unicode="&#x1e20;" horiz-adv-x="759" 
d="M261 809v67h288v-67h-288zM412 -5q-155 0 -255 98t-100 261q0 160 96.5 261.5t255.5 101.5q163 0 270 -111l-61 -54q-85 82 -210 82q-113 0 -186.5 -77t-73.5 -203q0 -122 73 -200.5t191 -78.5q111 0 189 59v153h-206v79h293v-281q-106 -90 -276 -90z" />
    <glyph glyph-name="uni1E21" unicode="&#x1e21;" horiz-adv-x="600" 
d="M145 596v69h288v-69h-288zM291 -204q-110 0 -198 53l20 72q89 -51 175 -51q79 0 121 40.5t42 105.5v78h-2q-59 -85 -169 -85q-101 0 -168.5 67t-67.5 174q0 105 65.5 174t167.5 69q109 0 171 -84h2v78h81v-451q0 -111 -59 -175.5t-181 -64.5zM290 84q73 0 118 48t45 122
q0 72 -46.5 118t-115.5 46q-73 0 -119 -47t-46 -119q0 -76 46.5 -122t117.5 -46z" />
    <glyph glyph-name="uni1E24" unicode="&#x1e24;" horiz-adv-x="721" 
d="M88 0v710h87v-333h371v333h87v-710h-87v298h-371v-298h-87zM362 -94q25 0 42 -17t17 -41t-17 -41t-42 -17t-42 17t-17 41t17 41t42 17z" />
    <glyph glyph-name="uni1E25" unicode="&#x1e25;" horiz-adv-x="581" 
d="M76 0v736h81v-334h1q60 91 180 91q82 0 129.5 -50t47.5 -151v-292h-81v269q0 150 -120 150q-73 0 -115 -46t-42 -128v-245h-81zM289 -94q25 0 42 -17t17 -41t-17 -41t-42 -17t-42 17t-17 41t17 41t42 17z" />
    <glyph glyph-name="uni1E2A" unicode="&#x1e2a;" horiz-adv-x="721" 
d="M88 0v710h87v-333h371v333h87v-710h-87v298h-371v-298h-87zM362 -220q-63 0 -101.5 37.5t-42.5 104.5h65q2 -33 23 -55.5t56 -22.5t56 22.5t23 55.5h65q-4 -67 -42.5 -104.5t-101.5 -37.5z" />
    <glyph glyph-name="uni1E2B" unicode="&#x1e2b;" horiz-adv-x="581" 
d="M76 0v736h81v-334h1q60 91 180 91q82 0 129.5 -50t47.5 -151v-292h-81v269q0 150 -120 150q-73 0 -115 -46t-42 -128v-245h-81zM289 -220q-63 0 -101.5 37.5t-42.5 104.5h65q2 -33 23 -55.5t56 -22.5t56 22.5t23 55.5h65q-4 -67 -42.5 -104.5t-101.5 -37.5z" />
    <glyph glyph-name="uni1E30" unicode="&#x1e30;" horiz-adv-x="646" 
d="M245 782l112 129h93l-122 -129h-83zM88 0v710h87v-389h2l322 389h112l-275 -324l282 -386h-109l-231 318l-103 -121v-197h-87z" />
    <glyph glyph-name="uni1E31" unicode="&#x1e31;" horiz-adv-x="517" 
d="M76 0v736h81v-515l1 -1l239 267h98l-182 -201l184 -286h-93l-147 229l-100 -108v-121h-81zM231 557l118 141l91 1l-124 -142h-85z" />
    <glyph glyph-name="uni1E36" unicode="&#x1e36;" horiz-adv-x="557" 
d="M88 0v710h87v-631h351v-79h-438zM305 -94q25 0 42 -17t17 -41t-17 -41t-42 -17t-42 17t-17 41t17 41t42 17z" />
    <glyph glyph-name="uni1E37" unicode="&#x1e37;" horiz-adv-x="245" 
d="M82 0v736h81v-736h-81zM128 -94q25 0 42 -17t17 -41t-17 -41t-42 -17t-42 17t-17 41t17 41t42 17z" />
    <glyph glyph-name="uni1E38" unicode="&#x1e38;" horiz-adv-x="557" 
d="M137 809v67h288v-67h-288zM88 0v710h87v-631h351v-79h-438zM305 -94q25 0 42 -17t17 -41t-17 -41t-42 -17t-42 17t-17 41t17 41t42 17z" />
    <glyph glyph-name="uni1E39" unicode="&#x1e39;" horiz-adv-x="245" 
d="M-18 822v67h288v-67h-288zM82 0v736h81v-736h-81zM128 -94q25 0 42 -17t17 -41t-17 -41t-42 -17t-42 17t-17 41t17 41t42 17z" />
    <glyph glyph-name="uni1E3A" unicode="&#x1e3a;" horiz-adv-x="557" 
d="M88 0v710h87v-631h351v-79h-438zM449 -194h-288v69h288v-69z" />
    <glyph glyph-name="uni1E3B" unicode="&#x1e3b;" horiz-adv-x="245" 
d="M82 0v736h81v-736h-81zM272 -194h-288v69h288v-69z" />
    <glyph glyph-name="uni1E42" unicode="&#x1e42;" horiz-adv-x="875" 
d="M88 0v710h88l261 -459h2l261 459h87v-710h-87v541h-2l-231 -398h-59l-231 398h-1v-541h-88zM437 -94q25 0 42 -17t17 -41t-17 -41t-42 -17t-42 17t-17 41t17 41t42 17z" />
    <glyph glyph-name="uni1E43" unicode="&#x1e43;" horiz-adv-x="885" 
d="M76 0v487h81v-88h1q28 44 71 69t92 25q112 0 151 -104h1q28 49 75 76.5t104 27.5q81 0 124.5 -54.5t43.5 -158.5v-280h-81v258q0 161 -111 161q-59 0 -98 -48.5t-39 -128.5v-242h-81v258q0 78 -29 119.5t-84 41.5q-61 0 -100.5 -48.5t-39.5 -128.5v-242h-81zM452 -94
q25 0 42 -17t17 -41t-17 -41t-42 -17t-42 17t-17 41t17 41t42 17z" />
    <glyph glyph-name="uni1E44" unicode="&#x1e44;" horiz-adv-x="751" 
d="M375 792q-25 0 -42 17t-17 41t17 41t42 17t42 -17t17 -41t-17 -41t-42 -17zM88 0v710h86l401 -565h1v565h87v-710h-89l-397 559h-2v-559h-87z" />
    <glyph glyph-name="uni1E45" unicode="&#x1e45;" horiz-adv-x="576" 
d="M291 576q-25 0 -42 17t-17 41t17 41t42 17t42 -17t17 -41t-17 -41t-42 -17zM76 0v487h81v-88h1q61 94 177 94q81 0 128 -51.5t47 -152.5v-289h-81v266q0 153 -120 153q-70 0 -111 -47t-41 -129v-243h-81z" />
    <glyph glyph-name="uni1E46" unicode="&#x1e46;" horiz-adv-x="751" 
d="M88 0v710h86l401 -565h1v565h87v-710h-89l-397 559h-2v-559h-87zM380 -94q25 0 42 -17t17 -41t-17 -41t-42 -17t-42 17t-17 41t17 41t42 17z" />
    <glyph glyph-name="uni1E47" unicode="&#x1e47;" horiz-adv-x="576" 
d="M76 0v487h81v-88h1q61 94 177 94q81 0 128 -51.5t47 -152.5v-289h-81v266q0 153 -120 153q-70 0 -111 -47t-41 -129v-243h-81zM304 -94q25 0 42 -17t17 -41t-17 -41t-42 -17t-42 17t-17 41t17 41t42 17z" />
    <glyph glyph-name="uni1E48" unicode="&#x1e48;" horiz-adv-x="751" 
d="M88 0v710h86l401 -565h1v565h87v-710h-89l-397 559h-2v-559h-87zM524 -194h-288v69h288v-69z" />
    <glyph glyph-name="uni1E49" unicode="&#x1e49;" horiz-adv-x="576" 
d="M76 0v487h81v-88h1q61 94 177 94q81 0 128 -51.5t47 -152.5v-289h-81v266q0 153 -120 153q-70 0 -111 -47t-41 -129v-243h-81zM448 -194h-288v69h288v-69z" />
    <glyph glyph-name="uni1E5A" unicode="&#x1e5a;" horiz-adv-x="642" 
d="M88 0v710h252q118 0 176.5 -60t58.5 -160q0 -175 -177 -211l196 -279h-104l-188 271h-127v-271h-87zM175 350h141q85 0 127 38.5t42 103.5q0 67 -41.5 103t-115.5 36h-153v-281zM321 -94q25 0 42 -17t17 -41t-17 -41t-42 -17t-42 17t-17 41t17 41t42 17z" />
    <glyph glyph-name="uni1E5B" unicode="&#x1e5b;" horiz-adv-x="353" 
d="M76 0v487h81v-89h2q56 95 158 95q13 0 20 -1v-90q-24 2 -32 2q-68 0 -108 -47t-40 -122v-235h-81zM123 -94q25 0 42 -17t17 -41t-17 -41t-42 -17t-42 17t-17 41t17 41t42 17z" />
    <glyph glyph-name="uni1E5C" unicode="&#x1e5c;" horiz-adv-x="642" 
d="M174 809v67h288v-67h-288zM88 0v710h252q118 0 176.5 -60t58.5 -160q0 -175 -177 -211l196 -279h-104l-188 271h-127v-271h-87zM175 350h141q85 0 127 38.5t42 103.5q0 67 -41.5 103t-115.5 36h-153v-281zM321 -94q25 0 42 -17t17 -41t-17 -41t-42 -17t-42 17t-17 41
t17 41t42 17z" />
    <glyph glyph-name="uni1E5D" unicode="&#x1e5d;" horiz-adv-x="353" 
d="M68 596v69h288v-69h-288zM76 0v487h81v-89h2q56 95 158 95q13 0 20 -1v-90q-24 2 -32 2q-68 0 -108 -47t-40 -122v-235h-81zM123 -94q25 0 42 -17t17 -41t-17 -41t-42 -17t-42 17t-17 41t17 41t42 17z" />
    <glyph glyph-name="uni1E5E" unicode="&#x1e5e;" horiz-adv-x="642" 
d="M88 0v710h252q118 0 176.5 -60t58.5 -160q0 -175 -177 -211l196 -279h-104l-188 271h-127v-271h-87zM175 350h141q85 0 127 38.5t42 103.5q0 67 -41.5 103t-115.5 36h-153v-281zM465 -194h-288v69h288v-69z" />
    <glyph glyph-name="uni1E5F" unicode="&#x1e5f;" horiz-adv-x="353" 
d="M76 0v487h81v-89h2q56 95 158 95q13 0 20 -1v-90q-24 2 -32 2q-68 0 -108 -47t-40 -122v-235h-81zM267 -194h-288v69h288v-69z" />
    <glyph glyph-name="uni1E60" unicode="&#x1e60;" horiz-adv-x="580" 
d="M288 792q-25 0 -42 17t-17 41t17 41t42 17t42 -17t17 -41t-17 -41t-42 -17zM293 -6q-148 0 -251 110l56 67q37 -46 89.5 -71t106.5 -25q66 0 106 29t40 80q0 60 -59 94q-25 14 -100 42q-39 14 -63.5 24.5t-56 29.5t-49 39t-30.5 50t-13 66q0 79 62.5 133.5t154.5 54.5
q121 0 224 -83l-53 -69q-87 72 -171 72q-53 0 -89.5 -27.5t-37.5 -76.5q0 -25 9.5 -43t34.5 -33.5t45.5 -25t62.5 -25.5q108 -43 141 -64q78 -53 79 -148q0 -93 -69.5 -146.5t-168.5 -53.5z" />
    <glyph glyph-name="uni1E61" unicode="&#x1e61;" horiz-adv-x="437" 
d="M224 576q-25 0 -42 17t-17 41t17 41t42 17t42 -17t17 -41t-17 -41t-42 -17zM223 -6q-111 0 -190 69l41 62q61 -59 149 -59q43 0 68 18.5t25 47.5q0 33 -45 54q-12 5 -71 27q-35 12 -57 23t-44.5 28t-33.5 41.5t-11 56.5q0 56 45.5 93.5t114.5 37.5q94 0 168 -60l-42 -64
q-56 52 -129 52q-30 0 -52.5 -16t-22.5 -43q0 -26 23 -42.5t69 -33.5q95 -37 118 -51q53 -35 52 -102q0 -60 -45.5 -99.5t-129.5 -39.5z" />
    <glyph glyph-name="uni1E62" unicode="&#x1e62;" horiz-adv-x="580" 
d="M293 -6q-148 0 -251 110l56 67q37 -46 89.5 -71t106.5 -25q66 0 106 29t40 80q0 60 -59 94q-25 14 -100 42q-39 14 -63.5 24.5t-56 29.5t-49 39t-30.5 50t-13 66q0 79 62.5 133.5t154.5 54.5q121 0 224 -83l-53 -69q-87 72 -171 72q-53 0 -89.5 -27.5t-37.5 -76.5
q0 -25 9.5 -43t34.5 -33.5t45.5 -25t62.5 -25.5q108 -43 141 -64q78 -53 79 -148q0 -93 -69.5 -146.5t-168.5 -53.5zM303 -94q25 0 42 -17t17 -41t-17 -41t-42 -17t-42 17t-17 41t17 41t42 17z" />
    <glyph glyph-name="uni1E63" unicode="&#x1e63;" horiz-adv-x="437" 
d="M223 -6q-111 0 -190 69l41 62q61 -59 149 -59q43 0 68 18.5t25 47.5q0 33 -45 54q-12 5 -71 27q-35 12 -57 23t-44.5 28t-33.5 41.5t-11 56.5q0 56 45.5 93.5t114.5 37.5q94 0 168 -60l-42 -64q-56 52 -129 52q-30 0 -52.5 -16t-22.5 -43q0 -26 23 -42.5t69 -33.5
q95 -37 118 -51q53 -35 52 -102q0 -60 -45.5 -99.5t-129.5 -39.5zM220 -94q25 0 42 -17t17 -41t-17 -41t-42 -17t-42 17t-17 41t17 41t42 17z" />
    <glyph glyph-name="uni1E6C" unicode="&#x1e6c;" horiz-adv-x="573" 
d="M242 0v631h-212v79h514v-79h-215v-631h-87zM289 -94q25 0 42 -17t17 -41t-17 -41t-42 -17t-42 17t-17 41t17 41t42 17z" />
    <glyph glyph-name="uni1E6D" unicode="&#x1e6d;" horiz-adv-x="361" 
d="M213 -6q-126 0 -126 151v272h-63v70h63v166l81 9v-175h161v-70h-161v-260q0 -46 13 -66.5t46 -20.5q37 0 83 25l21 -71q-51 -30 -118 -30zM210 -94q25 0 42 -17t17 -41t-17 -41t-42 -17t-42 17t-17 41t17 41t42 17z" />
    <glyph glyph-name="uni1E6E" unicode="&#x1e6e;" horiz-adv-x="573" 
d="M242 0v631h-212v79h514v-79h-215v-631h-87zM433 -194h-288v69h288v-69z" />
    <glyph glyph-name="uni1E6F" unicode="&#x1e6f;" horiz-adv-x="361" 
d="M213 -6q-126 0 -126 151v272h-63v70h63v166l81 9v-175h161v-70h-161v-260q0 -46 13 -66.5t46 -20.5q37 0 83 25l21 -71q-51 -30 -118 -30zM354 -194h-288v69h288v-69z" />
    <glyph glyph-name="Wgrave" unicode="&#x1e80;" horiz-adv-x="1020" 
d="M473 782l-122 129h92l112 -129h-82zM259 0l-226 710h93l175 -569h2l160 569h95l159 -568h2l176 568h92l-227 -710h-84l-164 583h-2l-167 -583h-84z" />
    <glyph glyph-name="wgrave" unicode="&#x1e81;" horiz-adv-x="764" 
d="M340 558l-121 138l92 -1l111 -137h-82zM195 0l-168 487h83l123 -366h2l112 366h70l114 -366h2l122 366h83l-168 -487h-76l-112 357h-1l-112 -357h-74z" />
    <glyph glyph-name="Wacute" unicode="&#x1e82;" horiz-adv-x="1020" 
d="M471 782l112 129h93l-122 -129h-83zM259 0l-226 710h93l175 -569h2l160 569h95l159 -568h2l176 568h92l-227 -710h-84l-164 583h-2l-167 -583h-84z" />
    <glyph glyph-name="wacute" unicode="&#x1e83;" horiz-adv-x="764" 
d="M340 557l118 141l91 1l-124 -142h-85zM195 0l-168 487h83l123 -366h2l112 366h70l114 -366h2l122 366h83l-168 -487h-76l-112 357h-1l-112 -357h-74z" />
    <glyph glyph-name="Wdieresis" unicode="&#x1e84;" horiz-adv-x="1020" 
d="M421 793q-25 0 -41.5 17t-16.5 41q0 23 16.5 39.5t41.5 16.5q24 0 41 -17t17 -40t-17 -40t-41 -17zM602 793q-24 0 -41 17t-17 41q0 23 17 39.5t41 16.5t41 -17t17 -40t-17 -40t-41 -17zM259 0l-226 710h93l175 -569h2l160 569h95l159 -568h2l176 568h92l-227 -710h-84
l-164 583h-2l-167 -583h-84z" />
    <glyph glyph-name="wdieresis" unicode="&#x1e85;" horiz-adv-x="764" 
d="M291 577q-25 0 -41.5 17t-16.5 41q0 23 16.5 39.5t41.5 16.5q24 0 41 -17t17 -40t-17 -40t-41 -17zM472 577q-24 0 -41 17t-17 41q0 23 17 39.5t41 16.5t41 -17t17 -40t-17 -40t-41 -17zM195 0l-168 487h83l123 -366h2l112 366h70l114 -366h2l122 366h83l-168 -487h-76
l-112 357h-1l-112 -357h-74z" />
    <glyph glyph-name="uni1E8E" unicode="&#x1e8e;" horiz-adv-x="601" 
d="M302 792q-25 0 -42 17t-17 41t17 41t42 17t42 -17t17 -41t-17 -41t-42 -17zM256 0v317l-241 393h100l184 -305h2l183 305h102l-243 -393v-317h-87z" />
    <glyph glyph-name="uni1E8F" unicode="&#x1e8f;" horiz-adv-x="525" 
d="M264 576q-25 0 -42 17t-17 41t17 41t42 17t42 -17t17 -41t-17 -41t-42 -17zM142 -198l87 217l-207 468h88l158 -370h2l147 370h85l-276 -685h-84z" />
    <glyph glyph-name="uni1E92" unicode="&#x1e92;" horiz-adv-x="613" 
d="M57 0v69l378 561l-1 1h-358v79h473v-69l-381 -560l1 -2h384v-79h-496zM304 -94q25 0 42 -17t17 -41t-17 -41t-42 -17t-42 17t-17 41t17 41t42 17z" />
    <glyph glyph-name="uni1E93" unicode="&#x1e93;" horiz-adv-x="471" 
d="M36 0v59l283 355l-1 3h-267v70h379v-58l-284 -358l1 -1h283v-70h-394zM236 -94q25 0 42 -17t17 -41t-17 -41t-42 -17t-42 17t-17 41t17 41t42 17z" />
    <glyph glyph-name="uni1E97" unicode="&#x1e97;" horiz-adv-x="361" 
d="M77 723q-25 0 -41.5 17t-16.5 41q0 23 16.5 39.5t41.5 16.5q24 0 41 -17t17 -40t-17 -40t-41 -17zM258 723q-24 0 -41 17t-17 41q0 23 17 39.5t41 16.5t41 -17t17 -40t-17 -40t-41 -17zM213 -6q-126 0 -126 151v272h-63v70h63v166l81 9v-175h161v-70h-161v-260
q0 -46 13 -66.5t46 -20.5q37 0 83 25l21 -71q-51 -30 -118 -30z" />
    <glyph glyph-name="uni1E9E" unicode="&#x1e9e;" horiz-adv-x="739" 
d="M491 406q108 -43 139 -64q79 -53 80 -148q0 -93 -68.5 -146.5t-162.5 -53.5q-126 0 -221 88l41 79q36 -42 85 -64t96 -22q61 0 100 29t39 80q0 29 -10 49t-35.5 36.5t-47 25.5t-66.5 25q-49 18 -103 44l133 254l-1 3q-93 16 -164 16q-89 0 -130 -35t-41 -115v-487h-87
v492q0 225 248 225q115 0 297 -42l-139 -262q12 -4 18 -7z" />
    <glyph glyph-name="uni1EA0" unicode="&#x1ea0;" horiz-adv-x="676" 
d="M25 0l269 710h87l270 -710h-91l-64 173h-317l-63 -173h-91zM207 249h262l-131 356h-2zM339 -94q25 0 42 -17t17 -41t-17 -41t-42 -17t-42 17t-17 41t17 41t42 17z" />
    <glyph glyph-name="uni1EA1" unicode="&#x1ea1;" horiz-adv-x="604" 
d="M281 -6q-102 0 -169.5 68.5t-67.5 177.5t67 181t170 72q54 0 99 -24.5t71 -68.5l2 1v86h81v-487h-78v88h-1q-57 -94 -174 -94zM293 68q69 0 116 48t47 124t-46 127.5t-117 51.5t-119 -50t-48 -129q0 -74 46.5 -123t120.5 -49zM292 -94q25 0 42 -17t17 -41t-17 -41
t-42 -17t-42 17t-17 41t17 41t42 17z" />
    <glyph glyph-name="uni1EA2" unicode="&#x1ea2;" horiz-adv-x="676" 
d="M306 778q4 3 16 11.5t16.5 11.5t14 10.5t13.5 12t9.5 11t7.5 12t2 11.5q0 28 -40 28q-44 0 -89 -32l-20 47q53 40 127 40q40 0 64.5 -18.5t24.5 -55.5q0 -22 -15 -41t-29 -28t-36 -20h-66zM25 0l269 710h87l270 -710h-91l-64 173h-317l-63 -173h-91zM207 249h262
l-131 356h-2z" />
    <glyph glyph-name="uni1EA3" unicode="&#x1ea3;" horiz-adv-x="604" 
d="M265 554q82 60 81 93q0 29 -40 29q-47 0 -88 -33l-20 47q50 44 126 44q41 0 65.5 -19t24.5 -58q0 -33 -26 -60t-57 -43h-66zM281 -6q-102 0 -169.5 68.5t-67.5 177.5t67 181t170 72q54 0 99 -24.5t71 -68.5l2 1v86h81v-487h-78v88h-1q-57 -94 -174 -94zM293 68
q69 0 116 48t47 124t-46 127.5t-117 51.5t-119 -50t-48 -129q0 -74 46.5 -123t120.5 -49z" />
    <glyph glyph-name="uni1EA4" unicode="&#x1ea4;" horiz-adv-x="676" 
d="M482 839l96 135h91l-123 -135h-64zM180 782l116 124h85l113 -124h-81l-74 78h-2l-74 -78h-83zM25 0l269 710h87l270 -710h-91l-64 173h-317l-63 -173h-91zM207 249h262l-131 356h-2z" />
    <glyph glyph-name="uni1EA5" unicode="&#x1ea5;" horiz-adv-x="604" 
d="M422 643l96 142h92l-124 -142h-64zM144 556l115 140h85l111 -140h-81l-72 89h-2l-73 -89h-83zM281 -6q-102 0 -169.5 68.5t-67.5 177.5t67 181t170 72q54 0 99 -24.5t71 -68.5l2 1v86h81v-487h-78v88h-1q-57 -94 -174 -94zM293 68q69 0 116 48t47 124t-46 127.5
t-117 51.5t-119 -50t-48 -129q0 -74 46.5 -123t120.5 -49z" />
    <glyph glyph-name="uni1EA6" unicode="&#x1ea6;" horiz-adv-x="676" 
d="M526 838l-123 135h91l97 -135h-65zM180 782l116 124h85l113 -124h-81l-74 78h-2l-74 -78h-83zM25 0l269 710h87l270 -710h-91l-64 173h-317l-63 -173h-91zM207 249h262l-131 356h-2z" />
    </font>
</defs>
</svg>
